<?xml version="1.0" encoding="UTF-8" standalone="no"?>
<!DOCTYPE svg PUBLIC "-//W3C//DTD SVG 1.1//EN"
 "http://www.w3.org/Graphics/SVG/1.1/DTD/svg11.dtd">
<!-- Generated by graphviz version 2.47.3 (20210619.1520)
 -->
<!-- Title: dependencies Pages: 1 -->
<svg width="818pt" height="247pt"
 viewBox="0.00 0.00 818.00 246.80" xmlns="http://www.w3.org/2000/svg" xmlns:xlink="http://www.w3.org/1999/xlink">
<g id="graph0" class="graph" transform="scale(1 1) rotate(0) translate(4 242.8)">
<title>dependencies</title>
<polygon fill="white" stroke="transparent" points="-4,4 -4,-242.8 814,-242.8 814,4 -4,4"/>
<text text-anchor="middle" x="405" y="-8.2" font-family="sans-serif" font-size="14.00">dependencies</text>
<g id="clust1" class="cluster">
<title>cluster_StimFeaturePlayerDomainModule</title>
<polygon fill="none" stroke="black" stroke-dasharray="1,5" points="8,-32.8 8,-230.8 802,-230.8 802,-32.8 8,-32.8"/>
</g>
<g id="clust4" class="cluster">
<title>cluster_StimFeaturePlayerDomainModule_exports</title>
<polygon fill="none" stroke="black" points="191,-170.8 191,-222.8 622,-222.8 622,-170.8 191,-170.8"/>
</g>
<g id="clust6" class="cluster">
<title>cluster_StimFeaturePlayerDomainModule_providers</title>
<polygon fill="none" stroke="black" points="262,-40.8 262,-92.8 794,-92.8 794,-40.8 262,-40.8"/>
</g>
<g id="clust3" class="cluster">
<title>cluster_StimFeaturePlayerDomainModule_imports</title>
<polygon fill="none" stroke="black" points="16,-40.8 16,-92.8 254,-92.8 254,-40.8 16,-40.8"/>
</g>
<!-- StimFeatureSeedApplicationModule -->
<g id="node1" class="node">
<title>StimFeatureSeedApplicationModule</title>
<polygon fill="#8dd3c7" stroke="black" points="245.79,-84.8 242.79,-88.8 221.79,-88.8 218.79,-84.8 24.21,-84.8 24.21,-48.8 245.79,-48.8 245.79,-84.8"/>
<text text-anchor="middle" x="135" y="-62.6" font-family="Times,serif" font-size="14.00">StimFeatureSeedApplicationModule</text>
</g>
<!-- StimFeaturePlayerDomainModule -->
<g id="node2" class="node">
<title>StimFeaturePlayerDomainModule</title>
<polygon fill="#8dd3c7" stroke="black" points="516.35,-149.8 513.35,-153.8 492.35,-153.8 489.35,-149.8 307.65,-149.8 307.65,-113.8 516.35,-113.8 516.35,-149.8"/>
<text text-anchor="middle" x="412" y="-127.6" font-family="Times,serif" font-size="14.00">StimFeaturePlayerDomainModule</text>
</g>
<!-- StimFeatureSeedApplicationModule&#45;&gt;StimFeaturePlayerDomainModule -->
<g id="edge1" class="edge">
<title>StimFeatureSeedApplicationModule&#45;&gt;StimFeaturePlayerDomainModule</title>
<path fill="none" stroke="black" d="M222.51,-84.91C222.51,-104.14 222.51,-131.8 222.51,-131.8 222.51,-131.8 297.55,-131.8 297.55,-131.8"/>
<polygon fill="black" stroke="black" points="297.55,-135.3 307.55,-131.8 297.55,-128.3 297.55,-135.3"/>
</g>
<!-- ExperimentResultsRepository  -->
<g id="node3" class="node">
<title>ExperimentResultsRepository </title>
<polygon fill="#fb8072" stroke="black" points="613.97,-214.8 426.03,-214.8 426.03,-178.8 613.97,-178.8 613.97,-214.8"/>
<text text-anchor="middle" x="520" y="-192.6" font-family="Times,serif" font-size="14.00">ExperimentResultsRepository </text>
</g>
<!-- StimFeaturePlayerDomainModule&#45;&gt;ExperimentResultsRepository  -->
<g id="edge2" class="edge">
<title>StimFeaturePlayerDomainModule&#45;&gt;ExperimentResultsRepository </title>
<path fill="none" stroke="black" stroke-dasharray="5,2" d="M471.34,-149.91C471.34,-149.91 471.34,-168.79 471.34,-168.79"/>
<polygon fill="black" stroke="black" points="467.84,-168.79 471.34,-178.79 474.84,-168.79 467.84,-168.79"/>
</g>
<!-- ExperimentStopConditionFactory  -->
<g id="node4" class="node">
<title>ExperimentStopConditionFactory </title>
<polygon fill="#fb8072" stroke="black" points="408.76,-214.8 199.24,-214.8 199.24,-178.8 408.76,-178.8 408.76,-214.8"/>
<text text-anchor="middle" x="304" y="-192.6" font-family="Times,serif" font-size="14.00">ExperimentStopConditionFactory </text>
</g>
<!-- StimFeaturePlayerDomainModule&#45;&gt;ExperimentStopConditionFactory  -->
<g id="edge3" class="edge">
<title>StimFeaturePlayerDomainModule&#45;&gt;ExperimentStopConditionFactory </title>
<path fill="none" stroke="black" stroke-dasharray="5,2" d="M358.1,-149.91C358.1,-149.91 358.1,-168.79 358.1,-168.79"/>
<polygon fill="black" stroke="black" points="354.6,-168.79 358.1,-178.79 361.6,-168.79 354.6,-168.79"/>
</g>
<!-- ExperimentResultSeeder -->
<g id="node5" class="node">
<title>ExperimentResultSeeder</title>
<ellipse fill="#fdb462" stroke="black" cx="679" cy="-66.8" rx="107.08" ry="18"/>
<text text-anchor="middle" x="679" y="-62.6" font-family="Times,serif" font-size="14.00">ExperimentResultSeeder</text>
</g>
<!-- ExperimentResultSeeder&#45;&gt;StimFeaturePlayerDomainModule -->
<g id="edge4" class="edge">
<title>ExperimentResultSeeder&#45;&gt;StimFeaturePlayerDomainModule</title>
<path fill="none" stroke="black" d="M592.85,-77.53C592.85,-96 592.85,-131.8 592.85,-131.8 592.85,-131.8 526.41,-131.8 526.41,-131.8"/>
<polygon fill="black" stroke="black" points="526.41,-128.3 516.41,-131.8 526.41,-135.3 526.41,-128.3"/>
</g>
<!-- ExperimentStopConditionFactory -->
<g id="node6" class="node">
<title>ExperimentStopConditionFactory</title>
<ellipse fill="#fdb462" stroke="black" cx="412" cy="-66.8" rx="141.86" ry="18"/>
<text text-anchor="middle" x="412" y="-62.6" font-family="Times,serif" font-size="14.00">ExperimentStopConditionFactory</text>
</g>
<!-- ExperimentStopConditionFactory&#45;&gt;StimFeaturePlayerDomainModule -->
<g id="edge5" class="edge">
<title>ExperimentStopConditionFactory&#45;&gt;StimFeaturePlayerDomainModule</title>
<path fill="none" stroke="black" d="M412,-84.91C412,-84.91 412,-103.79 412,-103.79"/>
<polygon fill="black" stroke="black" points="408.5,-103.79 412,-113.79 415.5,-103.79 408.5,-103.79"/>
</g>
</g>
</svg>
