<?xml version="1.0" encoding="UTF-8" standalone="no"?>
<!DOCTYPE svg PUBLIC "-//W3C//DTD SVG 1.1//EN"
 "http://www.w3.org/Graphics/SVG/1.1/DTD/svg11.dtd">
<!-- Generated by graphviz version 2.47.3 (20210619.1520)
 -->
<!-- Title: dependencies Pages: 1 -->
<svg width="1587pt" height="247pt"
 viewBox="0.00 0.00 1587.00 246.80" xmlns="http://www.w3.org/2000/svg" xmlns:xlink="http://www.w3.org/1999/xlink">
<g id="graph0" class="graph" transform="scale(1 1) rotate(0) translate(4 242.8)">
<title>dependencies</title>
<polygon fill="white" stroke="transparent" points="-4,4 -4,-242.8 1583,-242.8 1583,4 -4,4"/>
<text text-anchor="middle" x="789.5" y="-8.2" font-family="sans-serif" font-size="14.00">dependencies</text>
<g id="clust1" class="cluster">
<title>cluster_StimFeaturePlayerDomainModule</title>
<polygon fill="none" stroke="black" stroke-dasharray="1,5" points="8,-32.8 8,-230.8 1571,-230.8 1571,-32.8 8,-32.8"/>
</g>
<g id="clust3" class="cluster">
<title>cluster_StimFeaturePlayerDomainModule_imports</title>
<polygon fill="none" stroke="black" points="1325,-40.8 1325,-92.8 1563,-92.8 1563,-40.8 1325,-40.8"/>
</g>
<g id="clust4" class="cluster">
<title>cluster_StimFeaturePlayerDomainModule_exports</title>
<polygon fill="none" stroke="black" points="578,-170.8 578,-222.8 923,-222.8 923,-170.8 578,-170.8"/>
</g>
<g id="clust6" class="cluster">
<title>cluster_StimFeaturePlayerDomainModule_providers</title>
<polygon fill="none" stroke="black" points="16,-40.8 16,-92.8 1317,-92.8 1317,-40.8 16,-40.8"/>
</g>
<!-- StimFeatureSeedApplicationModule -->
<g id="node1" class="node">
<title>StimFeatureSeedApplicationModule</title>
<polygon fill="#8dd3c7" stroke="black" points="1554.79,-84.8 1551.79,-88.8 1530.79,-88.8 1527.79,-84.8 1333.21,-84.8 1333.21,-48.8 1554.79,-48.8 1554.79,-84.8"/>
<text text-anchor="middle" x="1444" y="-62.6" font-family="Times,serif" font-size="14.00">StimFeatureSeedApplicationModule</text>
</g>
<!-- StimFeaturePlayerDomainModule -->
<g id="node2" class="node">
<title>StimFeaturePlayerDomainModule</title>
<polygon fill="#8dd3c7" stroke="black" points="881.35,-149.8 878.35,-153.8 857.35,-153.8 854.35,-149.8 672.65,-149.8 672.65,-113.8 881.35,-113.8 881.35,-149.8"/>
<text text-anchor="middle" x="777" y="-127.6" font-family="Times,serif" font-size="14.00">StimFeaturePlayerDomainModule</text>
</g>
<!-- StimFeatureSeedApplicationModule&#45;&gt;StimFeaturePlayerDomainModule -->
<g id="edge1" class="edge">
<title>StimFeatureSeedApplicationModule&#45;&gt;StimFeaturePlayerDomainModule</title>
<path fill="none" stroke="black" d="M1444,-85.09C1444,-107.01 1444,-140.8 1444,-140.8 1444,-140.8 891.59,-140.8 891.59,-140.8"/>
<polygon fill="black" stroke="black" points="891.59,-137.3 881.59,-140.8 891.59,-144.3 891.59,-137.3"/>
</g>
<!-- AclRepository  -->
<g id="node3" class="node">
<title>AclRepository </title>
<polygon fill="#fb8072" stroke="black" points="914.65,-214.8 813.35,-214.8 813.35,-178.8 914.65,-178.8 914.65,-214.8"/>
<text text-anchor="middle" x="864" y="-192.6" font-family="Times,serif" font-size="14.00">AclRepository </text>
</g>
<!-- StimFeaturePlayerDomainModule&#45;&gt;AclRepository  -->
<g id="edge2" class="edge">
<title>StimFeaturePlayerDomainModule&#45;&gt;AclRepository </title>
<path fill="none" stroke="black" stroke-dasharray="5,2" d="M847.42,-149.91C847.42,-149.91 847.42,-168.79 847.42,-168.79"/>
<polygon fill="black" stroke="black" points="843.92,-168.79 847.42,-178.79 850.92,-168.79 843.92,-168.79"/>
</g>
<!-- ExperimentStopConditionFactory  -->
<g id="node4" class="node">
<title>ExperimentStopConditionFactory </title>
<polygon fill="#fb8072" stroke="black" points="795.76,-214.8 586.24,-214.8 586.24,-178.8 795.76,-178.8 795.76,-214.8"/>
<text text-anchor="middle" x="691" y="-192.6" font-family="Times,serif" font-size="14.00">ExperimentStopConditionFactory </text>
</g>
<!-- StimFeaturePlayerDomainModule&#45;&gt;ExperimentStopConditionFactory  -->
<g id="edge3" class="edge">
<title>StimFeaturePlayerDomainModule&#45;&gt;ExperimentStopConditionFactory </title>
<path fill="none" stroke="black" stroke-dasharray="5,2" d="M734.1,-149.91C734.1,-149.91 734.1,-168.79 734.1,-168.79"/>
<polygon fill="black" stroke="black" points="730.6,-168.79 734.1,-178.79 737.6,-168.79 730.6,-168.79"/>
</g>
<!-- AclActionSeeder -->
<g id="node5" class="node">
<title>AclActionSeeder</title>
<ellipse fill="#fdb462" stroke="black" cx="1231" cy="-66.8" rx="77.56" ry="18"/>
<text text-anchor="middle" x="1231" y="-62.6" font-family="Times,serif" font-size="14.00">AclActionSeeder</text>
</g>
<!-- AclActionSeeder&#45;&gt;StimFeaturePlayerDomainModule -->
<g id="edge4" class="edge">
<title>AclActionSeeder&#45;&gt;StimFeaturePlayerDomainModule</title>
<path fill="none" stroke="black" d="M1231,-84.91C1231,-104.14 1231,-131.8 1231,-131.8 1231,-131.8 891.44,-131.8 891.44,-131.8"/>
<polygon fill="black" stroke="black" points="891.44,-128.3 881.44,-131.8 891.44,-135.3 891.44,-128.3"/>
</g>
<!-- AclPossessionSeeder -->
<g id="node6" class="node">
<title>AclPossessionSeeder</title>
<ellipse fill="#fdb462" stroke="black" cx="1042" cy="-66.8" rx="93.19" ry="18"/>
<text text-anchor="middle" x="1042" y="-62.6" font-family="Times,serif" font-size="14.00">AclPossessionSeeder</text>
</g>
<!-- AclPossessionSeeder&#45;&gt;StimFeaturePlayerDomainModule -->
<g id="edge5" class="edge">
<title>AclPossessionSeeder&#45;&gt;StimFeaturePlayerDomainModule</title>
<path fill="none" stroke="black" d="M1042,-84.83C1042,-101.2 1042,-122.8 1042,-122.8 1042,-122.8 891.35,-122.8 891.35,-122.8"/>
<polygon fill="black" stroke="black" points="891.35,-119.3 881.35,-122.8 891.35,-126.3 891.35,-119.3"/>
</g>
<!-- AclRepository -->
<g id="node7" class="node">
<title>AclRepository</title>
<ellipse fill="#fdb462" stroke="black" cx="864" cy="-66.8" rx="67.21" ry="18"/>
<text text-anchor="middle" x="864" y="-62.6" font-family="Times,serif" font-size="14.00">AclRepository</text>
</g>
<!-- AclRepository&#45;&gt;StimFeaturePlayerDomainModule -->
<g id="edge6" class="edge">
<title>AclRepository&#45;&gt;StimFeaturePlayerDomainModule</title>
<path fill="none" stroke="black" d="M839.03,-83.54C839.03,-83.54 839.03,-103.52 839.03,-103.52"/>
<polygon fill="black" stroke="black" points="835.53,-103.52 839.03,-113.52 842.53,-103.52 835.53,-103.52"/>
</g>
<!-- AclResourceSeeder -->
<g id="node8" class="node">
<title>AclResourceSeeder</title>
<ellipse fill="#fdb462" stroke="black" cx="691" cy="-66.8" rx="87.36" ry="18"/>
<text text-anchor="middle" x="691" y="-62.6" font-family="Times,serif" font-size="14.00">AclResourceSeeder</text>
</g>
<!-- AclResourceSeeder&#45;&gt;StimFeaturePlayerDomainModule -->
<g id="edge7" class="edge">
<title>AclResourceSeeder&#45;&gt;StimFeaturePlayerDomainModule</title>
<path fill="none" stroke="black" d="M725.38,-83.54C725.38,-83.54 725.38,-103.52 725.38,-103.52"/>
<polygon fill="black" stroke="black" points="721.88,-103.52 725.38,-113.52 728.88,-103.52 721.88,-103.52"/>
</g>
<!-- AclRoleSeeder -->
<g id="node9" class="node">
<title>AclRoleSeeder</title>
<ellipse fill="#fdb462" stroke="black" cx="516" cy="-66.8" rx="69.48" ry="18"/>
<text text-anchor="middle" x="516" y="-62.6" font-family="Times,serif" font-size="14.00">AclRoleSeeder</text>
</g>
<!-- AclRoleSeeder&#45;&gt;StimFeaturePlayerDomainModule -->
<g id="edge8" class="edge">
<title>AclRoleSeeder&#45;&gt;StimFeaturePlayerDomainModule</title>
<path fill="none" stroke="black" d="M516,-84.83C516,-101.2 516,-122.8 516,-122.8 516,-122.8 662.35,-122.8 662.35,-122.8"/>
<polygon fill="black" stroke="black" points="662.35,-126.3 672.35,-122.8 662.35,-119.3 662.35,-126.3"/>
</g>
<!-- AclSeeder -->
<g id="node10" class="node">
<title>AclSeeder</title>
<ellipse fill="#fdb462" stroke="black" cx="377" cy="-66.8" rx="51.5" ry="18"/>
<text text-anchor="middle" x="377" y="-62.6" font-family="Times,serif" font-size="14.00">AclSeeder</text>
</g>
<!-- AclSeeder&#45;&gt;StimFeaturePlayerDomainModule -->
<g id="edge9" class="edge">
<title>AclSeeder&#45;&gt;StimFeaturePlayerDomainModule</title>
<path fill="none" stroke="black" d="M377,-84.91C377,-104.14 377,-131.8 377,-131.8 377,-131.8 662.43,-131.8 662.43,-131.8"/>
<polygon fill="black" stroke="black" points="662.43,-135.3 672.43,-131.8 662.43,-128.3 662.43,-135.3"/>
</g>
<!-- ExperimentStopConditionFactory -->
<g id="node11" class="node">
<title>ExperimentStopConditionFactory</title>
<ellipse fill="#fdb462" stroke="black" cx="166" cy="-66.8" rx="141.86" ry="18"/>
<text text-anchor="middle" x="166" y="-62.6" font-family="Times,serif" font-size="14.00">ExperimentStopConditionFactory</text>
</g>
<!-- ExperimentStopConditionFactory&#45;&gt;StimFeaturePlayerDomainModule -->
<g id="edge10" class="edge">
<title>ExperimentStopConditionFactory&#45;&gt;StimFeaturePlayerDomainModule</title>
<path fill="none" stroke="black" d="M166,-85.09C166,-107.01 166,-140.8 166,-140.8 166,-140.8 662.31,-140.8 662.31,-140.8"/>
<polygon fill="black" stroke="black" points="662.31,-144.3 672.31,-140.8 662.31,-137.3 662.31,-144.3"/>
</g>
</g>
</svg>
