<?xml version="1.0" encoding="UTF-8" standalone="no"?>
<!DOCTYPE svg PUBLIC "-//W3C//DTD SVG 1.1//EN"
 "http://www.w3.org/Graphics/SVG/1.1/DTD/svg11.dtd">
<!-- Generated by graphviz version 2.47.3 (20210619.1520)
 -->
<!-- Title: dependencies Pages: 1 -->
<svg width="1022pt" height="247pt"
 viewBox="0.00 0.00 1022.00 246.80" xmlns="http://www.w3.org/2000/svg" xmlns:xlink="http://www.w3.org/1999/xlink">
<g id="graph0" class="graph" transform="scale(1 1) rotate(0) translate(4 242.8)">
<title>dependencies</title>
<polygon fill="white" stroke="transparent" points="-4,4 -4,-242.8 1018,-242.8 1018,4 -4,4"/>
<text text-anchor="middle" x="507" y="-8.2" font-family="sans-serif" font-size="14.00">dependencies</text>
<g id="clust1" class="cluster">
<title>cluster_StimFeaturePlayerDomainModule</title>
<polygon fill="none" stroke="black" stroke-dasharray="1,5" points="8,-32.8 8,-230.8 1006,-230.8 1006,-32.8 8,-32.8"/>
</g>
<g id="clust6" class="cluster">
<title>cluster_StimFeaturePlayerDomainModule_providers</title>
<polygon fill="none" stroke="black" points="262,-40.8 262,-92.8 998,-92.8 998,-40.8 262,-40.8"/>
</g>
<g id="clust3" class="cluster">
<title>cluster_StimFeaturePlayerDomainModule_imports</title>
<polygon fill="none" stroke="black" points="16,-40.8 16,-92.8 254,-92.8 254,-40.8 16,-40.8"/>
</g>
<g id="clust4" class="cluster">
<title>cluster_StimFeaturePlayerDomainModule_exports</title>
<polygon fill="none" stroke="black" points="281,-170.8 281,-222.8 685,-222.8 685,-170.8 281,-170.8"/>
</g>
<!-- StimFeatureSeedApplicationModule -->
<g id="node1" class="node">
<title>StimFeatureSeedApplicationModule</title>
<polygon fill="#8dd3c7" stroke="black" points="245.79,-84.8 242.79,-88.8 221.79,-88.8 218.79,-84.8 24.21,-84.8 24.21,-48.8 245.79,-48.8 245.79,-84.8"/>
<text text-anchor="middle" x="135" y="-62.6" font-family="Times,serif" font-size="14.00">StimFeatureSeedApplicationModule</text>
</g>
<!-- StimFeaturePlayerDomainModule -->
<g id="node2" class="node">
<title>StimFeaturePlayerDomainModule</title>
<polygon fill="#8dd3c7" stroke="black" points="575.35,-149.8 572.35,-153.8 551.35,-153.8 548.35,-149.8 366.65,-149.8 366.65,-113.8 575.35,-113.8 575.35,-149.8"/>
<text text-anchor="middle" x="471" y="-127.6" font-family="Times,serif" font-size="14.00">StimFeaturePlayerDomainModule</text>
</g>
<!-- StimFeatureSeedApplicationModule&#45;&gt;StimFeaturePlayerDomainModule -->
<g id="edge1" class="edge">
<title>StimFeatureSeedApplicationModule&#45;&gt;StimFeaturePlayerDomainModule</title>
<path fill="none" stroke="black" d="M135,-84.91C135,-104.14 135,-131.8 135,-131.8 135,-131.8 356.53,-131.8 356.53,-131.8"/>
<polygon fill="black" stroke="black" points="356.53,-135.3 366.53,-131.8 356.53,-128.3 356.53,-135.3"/>
</g>
<!-- ExperimentStopConditionFactory  -->
<g id="node3" class="node">
<title>ExperimentStopConditionFactory </title>
<polygon fill="#fb8072" stroke="black" points="676.76,-214.8 467.24,-214.8 467.24,-178.8 676.76,-178.8 676.76,-214.8"/>
<text text-anchor="middle" x="572" y="-192.6" font-family="Times,serif" font-size="14.00">ExperimentStopConditionFactory </text>
</g>
<!-- StimFeaturePlayerDomainModule&#45;&gt;ExperimentStopConditionFactory  -->
<g id="edge2" class="edge">
<title>StimFeaturePlayerDomainModule&#45;&gt;ExperimentStopConditionFactory </title>
<path fill="none" stroke="black" stroke-dasharray="5,2" d="M521.4,-149.91C521.4,-149.91 521.4,-168.79 521.4,-168.79"/>
<polygon fill="black" stroke="black" points="517.9,-168.79 521.4,-178.79 524.9,-168.79 517.9,-168.79"/>
</g>
<!-- RefreshTokenRepository  -->
<g id="node4" class="node">
<title>RefreshTokenRepository </title>
<polygon fill="#fb8072" stroke="black" points="449.24,-214.8 288.76,-214.8 288.76,-178.8 449.24,-178.8 449.24,-214.8"/>
<text text-anchor="middle" x="369" y="-192.6" font-family="Times,serif" font-size="14.00">RefreshTokenRepository </text>
</g>
<!-- StimFeaturePlayerDomainModule&#45;&gt;RefreshTokenRepository  -->
<g id="edge3" class="edge">
<title>StimFeaturePlayerDomainModule&#45;&gt;RefreshTokenRepository </title>
<path fill="none" stroke="black" stroke-dasharray="5,2" d="M407.85,-149.91C407.85,-149.91 407.85,-168.79 407.85,-168.79"/>
<polygon fill="black" stroke="black" points="404.35,-168.79 407.85,-178.79 411.35,-168.79 404.35,-168.79"/>
</g>
<!-- ExperimentStopConditionFactory -->
<g id="node5" class="node">
<title>ExperimentStopConditionFactory</title>
<ellipse fill="#fdb462" stroke="black" cx="848" cy="-66.8" rx="141.86" ry="18"/>
<text text-anchor="middle" x="848" y="-62.6" font-family="Times,serif" font-size="14.00">ExperimentStopConditionFactory</text>
</g>
<!-- ExperimentStopConditionFactory&#45;&gt;StimFeaturePlayerDomainModule -->
<g id="edge4" class="edge">
<title>ExperimentStopConditionFactory&#45;&gt;StimFeaturePlayerDomainModule</title>
<path fill="none" stroke="black" d="M848,-84.91C848,-104.14 848,-131.8 848,-131.8 848,-131.8 585.51,-131.8 585.51,-131.8"/>
<polygon fill="black" stroke="black" points="585.51,-128.3 575.51,-131.8 585.51,-135.3 585.51,-128.3"/>
</g>
<!-- RefreshTokenRepository -->
<g id="node6" class="node">
<title>RefreshTokenRepository</title>
<ellipse fill="#fdb462" stroke="black" cx="580" cy="-66.8" rx="108.23" ry="18"/>
<text text-anchor="middle" x="580" y="-62.6" font-family="Times,serif" font-size="14.00">RefreshTokenRepository</text>
</g>
<!-- RefreshTokenRepository&#45;&gt;StimFeaturePlayerDomainModule -->
<g id="edge5" class="edge">
<title>RefreshTokenRepository&#45;&gt;StimFeaturePlayerDomainModule</title>
<path fill="none" stroke="black" d="M523.65,-82.2C523.65,-82.2 523.65,-103.74 523.65,-103.74"/>
<polygon fill="black" stroke="black" points="520.15,-103.74 523.65,-113.74 527.15,-103.74 520.15,-103.74"/>
</g>
<!-- RefreshTokenSeeder -->
<g id="node7" class="node">
<title>RefreshTokenSeeder</title>
<ellipse fill="#fdb462" stroke="black" cx="362" cy="-66.8" rx="92.01" ry="18"/>
<text text-anchor="middle" x="362" y="-62.6" font-family="Times,serif" font-size="14.00">RefreshTokenSeeder</text>
</g>
<!-- RefreshTokenSeeder&#45;&gt;StimFeaturePlayerDomainModule -->
<g id="edge6" class="edge">
<title>RefreshTokenSeeder&#45;&gt;StimFeaturePlayerDomainModule</title>
<path fill="none" stroke="black" d="M410.29,-82.2C410.29,-82.2 410.29,-103.74 410.29,-103.74"/>
<polygon fill="black" stroke="black" points="406.79,-103.74 410.29,-113.74 413.79,-103.74 406.79,-103.74"/>
</g>
</g>
</svg>
