<?xml version="1.0" encoding="UTF-8" standalone="no"?>
<!DOCTYPE svg PUBLIC "-//W3C//DTD SVG 1.1//EN"
 "http://www.w3.org/Graphics/SVG/1.1/DTD/svg11.dtd">
<!-- Generated by graphviz version 2.47.3 (20210619.1520)
 -->
<!-- Title: dependencies Pages: 1 -->
<svg width="1587pt" height="247pt"
 viewBox="0.00 0.00 1587.00 246.80" xmlns="http://www.w3.org/2000/svg" xmlns:xlink="http://www.w3.org/1999/xlink">
<g id="graph0" class="graph" transform="scale(1 1) rotate(0) translate(4 242.8)">
<title>dependencies</title>
<polygon fill="white" stroke="transparent" points="-4,4 -4,-242.8 1583,-242.8 1583,4 -4,4"/>
<text text-anchor="middle" x="789.5" y="-8.2" font-family="sans-serif" font-size="14.00">dependencies</text>
<g id="clust1" class="cluster">
<title>cluster_StimFeaturePlayerDomainModule</title>
<polygon fill="none" stroke="black" stroke-dasharray="1,5" points="8,-32.8 8,-230.8 1571,-230.8 1571,-32.8 8,-32.8"/>
</g>
<g id="clust6" class="cluster">
<title>cluster_StimFeaturePlayerDomainModule_providers</title>
<polygon fill="none" stroke="black" points="262,-40.8 262,-92.8 1563,-92.8 1563,-40.8 262,-40.8"/>
</g>
<g id="clust3" class="cluster">
<title>cluster_StimFeaturePlayerDomainModule_imports</title>
<polygon fill="none" stroke="black" points="16,-40.8 16,-92.8 254,-92.8 254,-40.8 16,-40.8"/>
</g>
<g id="clust4" class="cluster">
<title>cluster_StimFeaturePlayerDomainModule_exports</title>
<polygon fill="none" stroke="black" points="650,-170.8 650,-222.8 995,-222.8 995,-170.8 650,-170.8"/>
</g>
<!-- StimFeatureSeedApplicationModule -->
<g id="node1" class="node">
<title>StimFeatureSeedApplicationModule</title>
<polygon fill="#8dd3c7" stroke="black" points="245.79,-84.8 242.79,-88.8 221.79,-88.8 218.79,-84.8 24.21,-84.8 24.21,-48.8 245.79,-48.8 245.79,-84.8"/>
<text text-anchor="middle" x="135" y="-62.6" font-family="Times,serif" font-size="14.00">StimFeatureSeedApplicationModule</text>
</g>
<!-- StimFeaturePlayerDomainModule -->
<g id="node2" class="node">
<title>StimFeaturePlayerDomainModule</title>
<polygon fill="#8dd3c7" stroke="black" points="953.35,-149.8 950.35,-153.8 929.35,-153.8 926.35,-149.8 744.65,-149.8 744.65,-113.8 953.35,-113.8 953.35,-149.8"/>
<text text-anchor="middle" x="849" y="-127.6" font-family="Times,serif" font-size="14.00">StimFeaturePlayerDomainModule</text>
</g>
<!-- StimFeatureSeedApplicationModule&#45;&gt;StimFeaturePlayerDomainModule -->
<g id="edge1" class="edge">
<title>StimFeatureSeedApplicationModule&#45;&gt;StimFeaturePlayerDomainModule</title>
<path fill="none" stroke="black" d="M135,-85.09C135,-107.01 135,-140.8 135,-140.8 135,-140.8 734.41,-140.8 734.41,-140.8"/>
<polygon fill="black" stroke="black" points="734.41,-144.3 744.41,-140.8 734.41,-137.3 734.41,-144.3"/>
</g>
<!-- AclRepository  -->
<g id="node3" class="node">
<title>AclRepository </title>
<polygon fill="#fb8072" stroke="black" points="986.65,-214.8 885.35,-214.8 885.35,-178.8 986.65,-178.8 986.65,-214.8"/>
<text text-anchor="middle" x="936" y="-192.6" font-family="Times,serif" font-size="14.00">AclRepository </text>
</g>
<!-- StimFeaturePlayerDomainModule&#45;&gt;AclRepository  -->
<g id="edge2" class="edge">
<title>StimFeaturePlayerDomainModule&#45;&gt;AclRepository </title>
<path fill="none" stroke="black" stroke-dasharray="5,2" d="M919.42,-149.91C919.42,-149.91 919.42,-168.79 919.42,-168.79"/>
<polygon fill="black" stroke="black" points="915.92,-168.79 919.42,-178.79 922.92,-168.79 915.92,-168.79"/>
</g>
<!-- ExperimentStopConditionFactory  -->
<g id="node4" class="node">
<title>ExperimentStopConditionFactory </title>
<polygon fill="#fb8072" stroke="black" points="867.76,-214.8 658.24,-214.8 658.24,-178.8 867.76,-178.8 867.76,-214.8"/>
<text text-anchor="middle" x="763" y="-192.6" font-family="Times,serif" font-size="14.00">ExperimentStopConditionFactory </text>
</g>
<!-- StimFeaturePlayerDomainModule&#45;&gt;ExperimentStopConditionFactory  -->
<g id="edge3" class="edge">
<title>StimFeaturePlayerDomainModule&#45;&gt;ExperimentStopConditionFactory </title>
<path fill="none" stroke="black" stroke-dasharray="5,2" d="M806.1,-149.91C806.1,-149.91 806.1,-168.79 806.1,-168.79"/>
<polygon fill="black" stroke="black" points="802.6,-168.79 806.1,-178.79 809.6,-168.79 802.6,-168.79"/>
</g>
<!-- AclActionSeeder -->
<g id="node5" class="node">
<title>AclActionSeeder</title>
<ellipse fill="#fdb462" stroke="black" cx="1477" cy="-66.8" rx="77.56" ry="18"/>
<text text-anchor="middle" x="1477" y="-62.6" font-family="Times,serif" font-size="14.00">AclActionSeeder</text>
</g>
<!-- AclActionSeeder&#45;&gt;StimFeaturePlayerDomainModule -->
<g id="edge4" class="edge">
<title>AclActionSeeder&#45;&gt;StimFeaturePlayerDomainModule</title>
<path fill="none" stroke="black" d="M1477,-85.09C1477,-107.01 1477,-140.8 1477,-140.8 1477,-140.8 963.41,-140.8 963.41,-140.8"/>
<polygon fill="black" stroke="black" points="963.41,-137.3 953.41,-140.8 963.41,-144.3 963.41,-137.3"/>
</g>
<!-- AclPossessionSeeder -->
<g id="node6" class="node">
<title>AclPossessionSeeder</title>
<ellipse fill="#fdb462" stroke="black" cx="1288" cy="-66.8" rx="93.19" ry="18"/>
<text text-anchor="middle" x="1288" y="-62.6" font-family="Times,serif" font-size="14.00">AclPossessionSeeder</text>
</g>
<!-- AclPossessionSeeder&#45;&gt;StimFeaturePlayerDomainModule -->
<g id="edge5" class="edge">
<title>AclPossessionSeeder&#45;&gt;StimFeaturePlayerDomainModule</title>
<path fill="none" stroke="black" d="M1288,-84.91C1288,-104.14 1288,-131.8 1288,-131.8 1288,-131.8 963.59,-131.8 963.59,-131.8"/>
<polygon fill="black" stroke="black" points="963.59,-128.3 953.59,-131.8 963.59,-135.3 963.59,-128.3"/>
</g>
<!-- AclRepository -->
<g id="node7" class="node">
<title>AclRepository</title>
<ellipse fill="#fdb462" stroke="black" cx="1110" cy="-66.8" rx="67.21" ry="18"/>
<text text-anchor="middle" x="1110" y="-62.6" font-family="Times,serif" font-size="14.00">AclRepository</text>
</g>
<!-- AclRepository&#45;&gt;StimFeaturePlayerDomainModule -->
<g id="edge6" class="edge">
<title>AclRepository&#45;&gt;StimFeaturePlayerDomainModule</title>
<path fill="none" stroke="black" d="M1110,-84.83C1110,-101.2 1110,-122.8 1110,-122.8 1110,-122.8 963.65,-122.8 963.65,-122.8"/>
<polygon fill="black" stroke="black" points="963.65,-119.3 953.65,-122.8 963.65,-126.3 963.65,-119.3"/>
</g>
<!-- AclResourceSeeder -->
<g id="node8" class="node">
<title>AclResourceSeeder</title>
<ellipse fill="#fdb462" stroke="black" cx="937" cy="-66.8" rx="87.36" ry="18"/>
<text text-anchor="middle" x="937" y="-62.6" font-family="Times,serif" font-size="14.00">AclResourceSeeder</text>
</g>
<!-- AclResourceSeeder&#45;&gt;StimFeaturePlayerDomainModule -->
<g id="edge7" class="edge">
<title>AclResourceSeeder&#45;&gt;StimFeaturePlayerDomainModule</title>
<path fill="none" stroke="black" d="M901.62,-83.54C901.62,-83.54 901.62,-103.52 901.62,-103.52"/>
<polygon fill="black" stroke="black" points="898.12,-103.52 901.62,-113.52 905.12,-103.52 898.12,-103.52"/>
</g>
<!-- AclRoleSeeder -->
<g id="node9" class="node">
<title>AclRoleSeeder</title>
<ellipse fill="#fdb462" stroke="black" cx="762" cy="-66.8" rx="69.48" ry="18"/>
<text text-anchor="middle" x="762" y="-62.6" font-family="Times,serif" font-size="14.00">AclRoleSeeder</text>
</g>
<!-- AclRoleSeeder&#45;&gt;StimFeaturePlayerDomainModule -->
<g id="edge8" class="edge">
<title>AclRoleSeeder&#45;&gt;StimFeaturePlayerDomainModule</title>
<path fill="none" stroke="black" d="M788.03,-83.54C788.03,-83.54 788.03,-103.52 788.03,-103.52"/>
<polygon fill="black" stroke="black" points="784.53,-103.52 788.03,-113.52 791.53,-103.52 784.53,-103.52"/>
</g>
<!-- AclSeeder -->
<g id="node10" class="node">
<title>AclSeeder</title>
<ellipse fill="#fdb462" stroke="black" cx="623" cy="-66.8" rx="51.5" ry="18"/>
<text text-anchor="middle" x="623" y="-62.6" font-family="Times,serif" font-size="14.00">AclSeeder</text>
</g>
<!-- AclSeeder&#45;&gt;StimFeaturePlayerDomainModule -->
<g id="edge9" class="edge">
<title>AclSeeder&#45;&gt;StimFeaturePlayerDomainModule</title>
<path fill="none" stroke="black" d="M666.31,-76.55C666.31,-92.6 666.31,-122.8 666.31,-122.8 666.31,-122.8 734.58,-122.8 734.58,-122.8"/>
<polygon fill="black" stroke="black" points="734.58,-126.3 744.58,-122.8 734.58,-119.3 734.58,-126.3"/>
</g>
<!-- ExperimentStopConditionFactory -->
<g id="node11" class="node">
<title>ExperimentStopConditionFactory</title>
<ellipse fill="#fdb462" stroke="black" cx="412" cy="-66.8" rx="141.86" ry="18"/>
<text text-anchor="middle" x="412" y="-62.6" font-family="Times,serif" font-size="14.00">ExperimentStopConditionFactory</text>
</g>
<!-- ExperimentStopConditionFactory&#45;&gt;StimFeaturePlayerDomainModule -->
<g id="edge10" class="edge">
<title>ExperimentStopConditionFactory&#45;&gt;StimFeaturePlayerDomainModule</title>
<path fill="none" stroke="black" d="M412,-84.91C412,-104.14 412,-131.8 412,-131.8 412,-131.8 734.61,-131.8 734.61,-131.8"/>
<polygon fill="black" stroke="black" points="734.61,-135.3 744.61,-131.8 734.61,-128.3 734.61,-135.3"/>
</g>
</g>
</svg>
