<?xml version="1.0" encoding="UTF-8" standalone="no"?>
<!DOCTYPE svg PUBLIC "-//W3C//DTD SVG 1.1//EN"
 "http://www.w3.org/Graphics/SVG/1.1/DTD/svg11.dtd">
<!-- Generated by graphviz version 2.47.3 (20210619.1520)
 -->
<!-- Title: dependencies Pages: 1 -->
<svg width="492pt" height="247pt"
 viewBox="0.00 0.00 492.00 246.80" xmlns="http://www.w3.org/2000/svg" xmlns:xlink="http://www.w3.org/1999/xlink">
<g id="graph0" class="graph" transform="scale(1 1) rotate(0) translate(4 242.8)">
<title>dependencies</title>
<polygon fill="white" stroke="transparent" points="-4,4 -4,-242.8 488,-242.8 488,4 -4,4"/>
<text text-anchor="middle" x="242" y="-8.2" font-family="sans-serif" font-size="14.00">dependencies</text>
<g id="clust1" class="cluster">
<title>cluster_StimFeatureSequencesInfrastructureModule</title>
<polygon fill="none" stroke="black" stroke-dasharray="1,5" points="8,-32.8 8,-230.8 476,-230.8 476,-32.8 8,-32.8"/>
</g>
<g id="clust6" class="cluster">
<title>cluster_StimFeatureSequencesInfrastructureModule_providers</title>
<polygon fill="none" stroke="black" points="294,-40.8 294,-92.8 468,-92.8 468,-40.8 294,-40.8"/>
</g>
<g id="clust3" class="cluster">
<title>cluster_StimFeatureSequencesInfrastructureModule_imports</title>
<polygon fill="none" stroke="black" points="16,-40.8 16,-92.8 286,-92.8 286,-40.8 16,-40.8"/>
</g>
<g id="clust4" class="cluster">
<title>cluster_StimFeatureSequencesInfrastructureModule_exports</title>
<polygon fill="none" stroke="black" points="176,-170.8 176,-222.8 310,-222.8 310,-170.8 176,-170.8"/>
</g>
<!-- StimFeatureSequencesApplicationModule -->
<g id="node1" class="node">
<title>StimFeatureSequencesApplicationModule</title>
<polygon fill="#8dd3c7" stroke="black" points="277.67,-84.8 274.67,-88.8 253.67,-88.8 250.67,-84.8 24.33,-84.8 24.33,-48.8 277.67,-48.8 277.67,-84.8"/>
<text text-anchor="middle" x="151" y="-62.6" font-family="Times,serif" font-size="14.00">StimFeatureSequencesApplicationModule</text>
</g>
<!-- StimFeatureSequencesInfrastructureModule -->
<g id="node2" class="node">
<title>StimFeatureSequencesInfrastructureModule</title>
<polygon fill="#8dd3c7" stroke="black" points="374.74,-149.8 371.74,-153.8 350.74,-153.8 347.74,-149.8 111.26,-149.8 111.26,-113.8 374.74,-113.8 374.74,-149.8"/>
<text text-anchor="middle" x="243" y="-127.6" font-family="Times,serif" font-size="14.00">StimFeatureSequencesInfrastructureModule</text>
</g>
<!-- StimFeatureSequencesApplicationModule&#45;&gt;StimFeatureSequencesInfrastructureModule -->
<g id="edge1" class="edge">
<title>StimFeatureSequencesApplicationModule&#45;&gt;StimFeatureSequencesInfrastructureModule</title>
<path fill="none" stroke="black" d="M194.48,-84.91C194.48,-84.91 194.48,-103.79 194.48,-103.79"/>
<polygon fill="black" stroke="black" points="190.98,-103.79 194.48,-113.79 197.98,-103.79 190.98,-103.79"/>
</g>
<!-- SequencesFacade  -->
<g id="node3" class="node">
<title>SequencesFacade </title>
<polygon fill="#fb8072" stroke="black" points="302.23,-214.8 183.77,-214.8 183.77,-178.8 302.23,-178.8 302.23,-214.8"/>
<text text-anchor="middle" x="243" y="-192.6" font-family="Times,serif" font-size="14.00">SequencesFacade </text>
</g>
<!-- StimFeatureSequencesInfrastructureModule&#45;&gt;SequencesFacade  -->
<g id="edge2" class="edge">
<title>StimFeatureSequencesInfrastructureModule&#45;&gt;SequencesFacade </title>
<path fill="none" stroke="black" stroke-dasharray="5,2" d="M243,-149.91C243,-149.91 243,-168.79 243,-168.79"/>
<polygon fill="black" stroke="black" points="239.5,-168.79 243,-178.79 246.5,-168.79 239.5,-168.79"/>
</g>
<!-- SequencesFacade -->
<g id="node4" class="node">
<title>SequencesFacade</title>
<ellipse fill="#fdb462" stroke="black" cx="381" cy="-66.8" rx="79.27" ry="18"/>
<text text-anchor="middle" x="381" y="-62.6" font-family="Times,serif" font-size="14.00">SequencesFacade</text>
</g>
<!-- SequencesFacade&#45;&gt;StimFeatureSequencesInfrastructureModule -->
<g id="edge3" class="edge">
<title>SequencesFacade&#45;&gt;StimFeatureSequencesInfrastructureModule</title>
<path fill="none" stroke="black" d="M338.24,-82.2C338.24,-82.2 338.24,-103.74 338.24,-103.74"/>
<polygon fill="black" stroke="black" points="334.74,-103.74 338.24,-113.74 341.74,-103.74 334.74,-103.74"/>
</g>
</g>
</svg>
