<?xml version="1.0" encoding="UTF-8" standalone="no"?>
<!DOCTYPE svg PUBLIC "-//W3C//DTD SVG 1.1//EN"
 "http://www.w3.org/Graphics/SVG/1.1/DTD/svg11.dtd">
<!-- Generated by graphviz version 2.47.3 (20210619.1520)
 -->
<!-- Title: dependencies Pages: 1 -->
<svg width="492pt" height="247pt"
 viewBox="0.00 0.00 492.00 246.80" xmlns="http://www.w3.org/2000/svg" xmlns:xlink="http://www.w3.org/1999/xlink">
<g id="graph0" class="graph" transform="scale(1 1) rotate(0) translate(4 242.8)">
<title>dependencies</title>
<polygon fill="white" stroke="transparent" points="-4,4 -4,-242.8 488,-242.8 488,4 -4,4"/>
<text text-anchor="middle" x="242" y="-8.2" font-family="sans-serif" font-size="14.00">dependencies</text>
<g id="clust1" class="cluster">
<title>cluster_StimFeatureSequencesInfrastructureModule</title>
<polygon fill="none" stroke="black" stroke-dasharray="1,5" points="8,-32.8 8,-230.8 476,-230.8 476,-32.8 8,-32.8"/>
</g>
<g id="clust3" class="cluster">
<title>cluster_StimFeatureSequencesInfrastructureModule_imports</title>
<polygon fill="none" stroke="black" points="198,-40.8 198,-92.8 468,-92.8 468,-40.8 198,-40.8"/>
</g>
<g id="clust4" class="cluster">
<title>cluster_StimFeatureSequencesInfrastructureModule_exports</title>
<polygon fill="none" stroke="black" points="173,-170.8 173,-222.8 307,-222.8 307,-170.8 173,-170.8"/>
</g>
<g id="clust6" class="cluster">
<title>cluster_StimFeatureSequencesInfrastructureModule_providers</title>
<polygon fill="none" stroke="black" points="16,-40.8 16,-92.8 190,-92.8 190,-40.8 16,-40.8"/>
</g>
<!-- StimFeatureSequencesApplicationModule -->
<g id="node1" class="node">
<title>StimFeatureSequencesApplicationModule</title>
<polygon fill="#8dd3c7" stroke="black" points="459.67,-84.8 456.67,-88.8 435.67,-88.8 432.67,-84.8 206.33,-84.8 206.33,-48.8 459.67,-48.8 459.67,-84.8"/>
<text text-anchor="middle" x="333" y="-62.6" font-family="Times,serif" font-size="14.00">StimFeatureSequencesApplicationModule</text>
</g>
<!-- StimFeatureSequencesInfrastructureModule -->
<g id="node2" class="node">
<title>StimFeatureSequencesInfrastructureModule</title>
<polygon fill="#8dd3c7" stroke="black" points="371.74,-149.8 368.74,-153.8 347.74,-153.8 344.74,-149.8 108.26,-149.8 108.26,-113.8 371.74,-113.8 371.74,-149.8"/>
<text text-anchor="middle" x="240" y="-127.6" font-family="Times,serif" font-size="14.00">StimFeatureSequencesInfrastructureModule</text>
</g>
<!-- StimFeatureSequencesApplicationModule&#45;&gt;StimFeatureSequencesInfrastructureModule -->
<g id="edge1" class="edge">
<title>StimFeatureSequencesApplicationModule&#45;&gt;StimFeatureSequencesInfrastructureModule</title>
<path fill="none" stroke="black" d="M289.02,-84.91C289.02,-84.91 289.02,-103.79 289.02,-103.79"/>
<polygon fill="black" stroke="black" points="285.52,-103.79 289.02,-113.79 292.52,-103.79 285.52,-103.79"/>
</g>
<!-- SequencesFacade  -->
<g id="node3" class="node">
<title>SequencesFacade </title>
<polygon fill="#fb8072" stroke="black" points="299.23,-214.8 180.77,-214.8 180.77,-178.8 299.23,-178.8 299.23,-214.8"/>
<text text-anchor="middle" x="240" y="-192.6" font-family="Times,serif" font-size="14.00">SequencesFacade </text>
</g>
<!-- StimFeatureSequencesInfrastructureModule&#45;&gt;SequencesFacade  -->
<g id="edge2" class="edge">
<title>StimFeatureSequencesInfrastructureModule&#45;&gt;SequencesFacade </title>
<path fill="none" stroke="black" stroke-dasharray="5,2" d="M240,-149.91C240,-149.91 240,-168.79 240,-168.79"/>
<polygon fill="black" stroke="black" points="236.5,-168.79 240,-178.79 243.5,-168.79 236.5,-168.79"/>
</g>
<!-- SequencesFacade -->
<g id="node4" class="node">
<title>SequencesFacade</title>
<ellipse fill="#fdb462" stroke="black" cx="103" cy="-66.8" rx="79.27" ry="18"/>
<text text-anchor="middle" x="103" y="-62.6" font-family="Times,serif" font-size="14.00">SequencesFacade</text>
</g>
<!-- SequencesFacade&#45;&gt;StimFeatureSequencesInfrastructureModule -->
<g id="edge3" class="edge">
<title>SequencesFacade&#45;&gt;StimFeatureSequencesInfrastructureModule</title>
<path fill="none" stroke="black" d="M145.26,-82.2C145.26,-82.2 145.26,-103.74 145.26,-103.74"/>
<polygon fill="black" stroke="black" points="141.76,-103.74 145.26,-113.74 148.76,-103.74 141.76,-103.74"/>
</g>
</g>
</svg>
