<?xml version="1.0" encoding="UTF-8" standalone="no"?>
<!DOCTYPE svg PUBLIC "-//W3C//DTD SVG 1.1//EN"
 "http://www.w3.org/Graphics/SVG/1.1/DTD/svg11.dtd">
<!-- Generated by graphviz version 2.47.3 (20210619.1520)
 -->
<!-- Title: dependencies Pages: 1 -->
<svg width="436pt" height="174pt"
 viewBox="0.00 0.00 436.00 173.80" xmlns="http://www.w3.org/2000/svg" xmlns:xlink="http://www.w3.org/1999/xlink">
<g id="graph0" class="graph" transform="scale(1 1) rotate(0) translate(4 169.8)">
<title>dependencies</title>
<polygon fill="white" stroke="transparent" points="-4,4 -4,-169.8 432,-169.8 432,4 -4,4"/>
<text text-anchor="middle" x="214" y="-8.2" font-family="sans-serif" font-size="14.00">dependencies</text>
<g id="clust1" class="cluster">
<title>cluster_StimFeaturePlayerInfrastructureModule</title>
<polygon fill="none" stroke="black" stroke-dasharray="1,5" points="8,-32.8 8,-157.8 420,-157.8 420,-32.8 8,-32.8"/>
</g>
<g id="clust6" class="cluster">
<title>cluster_StimFeaturePlayerInfrastructureModule_providers</title>
<polygon fill="none" stroke="black" points="270,-40.8 270,-92.8 412,-92.8 412,-40.8 270,-40.8"/>
</g>
<g id="clust3" class="cluster">
<title>cluster_StimFeaturePlayerInfrastructureModule_imports</title>
<polygon fill="none" stroke="black" points="16,-40.8 16,-92.8 262,-92.8 262,-40.8 16,-40.8"/>
</g>
<!-- StimFeaturePlayerApplicationModule -->
<g id="node1" class="node">
<title>StimFeaturePlayerApplicationModule</title>
<polygon fill="#8dd3c7" stroke="black" points="253.84,-84.8 250.84,-88.8 229.84,-88.8 226.84,-84.8 24.16,-84.8 24.16,-48.8 253.84,-48.8 253.84,-84.8"/>
<text text-anchor="middle" x="139" y="-62.6" font-family="Times,serif" font-size="14.00">StimFeaturePlayerApplicationModule</text>
</g>
<!-- StimFeaturePlayerInfrastructureModule -->
<g id="node2" class="node">
<title>StimFeaturePlayerInfrastructureModule</title>
<polygon fill="#8dd3c7" stroke="black" points="334.92,-149.8 331.92,-153.8 310.92,-153.8 307.92,-149.8 95.08,-149.8 95.08,-113.8 334.92,-113.8 334.92,-149.8"/>
<text text-anchor="middle" x="215" y="-127.6" font-family="Times,serif" font-size="14.00">StimFeaturePlayerInfrastructureModule</text>
</g>
<!-- StimFeaturePlayerApplicationModule&#45;&gt;StimFeaturePlayerInfrastructureModule -->
<g id="edge1" class="edge">
<title>StimFeaturePlayerApplicationModule&#45;&gt;StimFeaturePlayerInfrastructureModule</title>
<path fill="none" stroke="black" d="M174.48,-84.91C174.48,-84.91 174.48,-103.79 174.48,-103.79"/>
<polygon fill="black" stroke="black" points="170.98,-103.79 174.48,-113.79 177.98,-103.79 170.98,-103.79"/>
</g>
<!-- PlayerFacade -->
<g id="node3" class="node">
<title>PlayerFacade</title>
<ellipse fill="#fdb462" stroke="black" cx="341" cy="-66.8" rx="63.1" ry="18"/>
<text text-anchor="middle" x="341" y="-62.6" font-family="Times,serif" font-size="14.00">PlayerFacade</text>
</g>
<!-- PlayerFacade&#45;&gt;StimFeaturePlayerInfrastructureModule -->
<g id="edge2" class="edge">
<title>PlayerFacade&#45;&gt;StimFeaturePlayerInfrastructureModule</title>
<path fill="none" stroke="black" d="M306.45,-81.88C306.45,-81.88 306.45,-103.56 306.45,-103.56"/>
<polygon fill="black" stroke="black" points="302.96,-103.56 306.45,-113.56 309.96,-103.56 302.96,-103.56"/>
</g>
</g>
</svg>
