<?xml version="1.0" encoding="UTF-8" standalone="no"?>
<!DOCTYPE svg PUBLIC "-//W3C//DTD SVG 1.1//EN"
 "http://www.w3.org/Graphics/SVG/1.1/DTD/svg11.dtd">
<!-- Generated by graphviz version 2.47.3 (20210619.1520)
 -->
<!-- Title: dependencies Pages: 1 -->
<svg width="474pt" height="247pt"
 viewBox="0.00 0.00 474.00 246.80" xmlns="http://www.w3.org/2000/svg" xmlns:xlink="http://www.w3.org/1999/xlink">
<g id="graph0" class="graph" transform="scale(1 1) rotate(0) translate(4 242.8)">
<title>dependencies</title>
<polygon fill="white" stroke="transparent" points="-4,4 -4,-242.8 470,-242.8 470,4 -4,4"/>
<text text-anchor="middle" x="233" y="-8.2" font-family="sans-serif" font-size="14.00">dependencies</text>
<g id="clust1" class="cluster">
<title>cluster_StimFeatureSequencesDomainModule</title>
<polygon fill="none" stroke="black" stroke-dasharray="1,5" points="8,-32.8 8,-230.8 458,-230.8 458,-32.8 8,-32.8"/>
</g>
<g id="clust4" class="cluster">
<title>cluster_StimFeatureSequencesDomainModule_exports</title>
<polygon fill="none" stroke="black" points="50,-170.8 50,-222.8 416,-222.8 416,-170.8 50,-170.8"/>
</g>
<g id="clust6" class="cluster">
<title>cluster_StimFeatureSequencesDomainModule_providers</title>
<polygon fill="none" stroke="black" points="16,-40.8 16,-92.8 450,-92.8 450,-40.8 16,-40.8"/>
</g>
<!-- RefreshTokenRepository  -->
<g id="node1" class="node">
<title>RefreshTokenRepository </title>
<polygon fill="#fb8072" stroke="black" points="408.24,-214.8 247.76,-214.8 247.76,-178.8 408.24,-178.8 408.24,-214.8"/>
<text text-anchor="middle" x="328" y="-192.6" font-family="Times,serif" font-size="14.00">RefreshTokenRepository </text>
</g>
<!-- SequenceGeneratorFactory  -->
<g id="node2" class="node">
<title>SequenceGeneratorFactory </title>
<polygon fill="#fb8072" stroke="black" points="229.87,-214.8 58.13,-214.8 58.13,-178.8 229.87,-178.8 229.87,-214.8"/>
<text text-anchor="middle" x="144" y="-192.6" font-family="Times,serif" font-size="14.00">SequenceGeneratorFactory </text>
</g>
<!-- StimFeatureSequencesDomainModule -->
<g id="node3" class="node">
<title>StimFeatureSequencesDomainModule</title>
<polygon fill="#8dd3c7" stroke="black" points="329.17,-149.8 326.17,-153.8 305.17,-153.8 302.17,-149.8 96.83,-149.8 96.83,-113.8 329.17,-113.8 329.17,-149.8"/>
<text text-anchor="middle" x="213" y="-127.6" font-family="Times,serif" font-size="14.00">StimFeatureSequencesDomainModule</text>
</g>
<!-- StimFeatureSequencesDomainModule&#45;&gt;RefreshTokenRepository  -->
<g id="edge1" class="edge">
<title>StimFeatureSequencesDomainModule&#45;&gt;RefreshTokenRepository </title>
<path fill="none" stroke="black" stroke-dasharray="5,2" d="M288.48,-149.91C288.48,-149.91 288.48,-168.79 288.48,-168.79"/>
<polygon fill="black" stroke="black" points="284.98,-168.79 288.48,-178.79 291.98,-168.79 284.98,-168.79"/>
</g>
<!-- StimFeatureSequencesDomainModule&#45;&gt;SequenceGeneratorFactory  -->
<g id="edge2" class="edge">
<title>StimFeatureSequencesDomainModule&#45;&gt;SequenceGeneratorFactory </title>
<path fill="none" stroke="black" stroke-dasharray="5,2" d="M163.42,-149.91C163.42,-149.91 163.42,-168.79 163.42,-168.79"/>
<polygon fill="black" stroke="black" points="159.92,-168.79 163.42,-178.79 166.92,-168.79 159.92,-168.79"/>
</g>
<!-- RefreshTokenRepository -->
<g id="node4" class="node">
<title>RefreshTokenRepository</title>
<ellipse fill="#fdb462" stroke="black" cx="334" cy="-66.8" rx="108.23" ry="18"/>
<text text-anchor="middle" x="334" y="-62.6" font-family="Times,serif" font-size="14.00">RefreshTokenRepository</text>
</g>
<!-- RefreshTokenRepository&#45;&gt;StimFeatureSequencesDomainModule -->
<g id="edge3" class="edge">
<title>RefreshTokenRepository&#45;&gt;StimFeatureSequencesDomainModule</title>
<path fill="none" stroke="black" d="M277.49,-82.2C277.49,-82.2 277.49,-103.74 277.49,-103.74"/>
<polygon fill="black" stroke="black" points="273.99,-103.74 277.49,-113.74 280.99,-103.74 273.99,-103.74"/>
</g>
<!-- RefreshTokenSeeder -->
<g id="node5" class="node">
<title>RefreshTokenSeeder</title>
<ellipse fill="#fdb462" stroke="black" cx="116" cy="-66.8" rx="92.01" ry="18"/>
<text text-anchor="middle" x="116" y="-62.6" font-family="Times,serif" font-size="14.00">RefreshTokenSeeder</text>
</g>
<!-- RefreshTokenSeeder&#45;&gt;StimFeatureSequencesDomainModule -->
<g id="edge4" class="edge">
<title>RefreshTokenSeeder&#45;&gt;StimFeatureSequencesDomainModule</title>
<path fill="none" stroke="black" d="M152.46,-83.54C152.46,-83.54 152.46,-103.52 152.46,-103.52"/>
<polygon fill="black" stroke="black" points="148.96,-103.52 152.46,-113.52 155.96,-103.52 148.96,-103.52"/>
</g>
</g>
</svg>
