<?xml version="1.0" encoding="UTF-8" standalone="no"?>
<!DOCTYPE svg PUBLIC "-//W3C//DTD SVG 1.1//EN"
 "http://www.w3.org/Graphics/SVG/1.1/DTD/svg11.dtd">
<!-- Generated by graphviz version 2.47.3 (20210619.1520)
 -->
<!-- Title: dependencies Pages: 1 -->
<svg width="1039pt" height="247pt"
 viewBox="0.00 0.00 1039.00 246.80" xmlns="http://www.w3.org/2000/svg" xmlns:xlink="http://www.w3.org/1999/xlink">
<g id="graph0" class="graph" transform="scale(1 1) rotate(0) translate(4 242.8)">
<title>dependencies</title>
<polygon fill="white" stroke="transparent" points="-4,4 -4,-242.8 1035,-242.8 1035,4 -4,4"/>
<text text-anchor="middle" x="515.5" y="-8.2" font-family="sans-serif" font-size="14.00">dependencies</text>
<g id="clust1" class="cluster">
<title>cluster_StimFeatureSequencesDomainModule</title>
<polygon fill="none" stroke="black" stroke-dasharray="1,5" points="8,-32.8 8,-230.8 1023,-230.8 1023,-32.8 8,-32.8"/>
</g>
<g id="clust4" class="cluster">
<title>cluster_StimFeatureSequencesDomainModule_exports</title>
<polygon fill="none" stroke="black" points="303,-170.8 303,-222.8 611,-222.8 611,-170.8 303,-170.8"/>
</g>
<g id="clust6" class="cluster">
<title>cluster_StimFeatureSequencesDomainModule_providers</title>
<polygon fill="none" stroke="black" points="16,-40.8 16,-92.8 1015,-92.8 1015,-40.8 16,-40.8"/>
</g>
<!-- AclRepository  -->
<g id="node1" class="node">
<title>AclRepository </title>
<polygon fill="#fb8072" stroke="black" points="602.65,-214.8 501.35,-214.8 501.35,-178.8 602.65,-178.8 602.65,-214.8"/>
<text text-anchor="middle" x="552" y="-192.6" font-family="Times,serif" font-size="14.00">AclRepository </text>
</g>
<!-- SequenceGeneratorFactory  -->
<g id="node2" class="node">
<title>SequenceGeneratorFactory </title>
<polygon fill="#fb8072" stroke="black" points="482.87,-214.8 311.13,-214.8 311.13,-178.8 482.87,-178.8 482.87,-214.8"/>
<text text-anchor="middle" x="397" y="-192.6" font-family="Times,serif" font-size="14.00">SequenceGeneratorFactory </text>
</g>
<!-- StimFeatureSequencesDomainModule -->
<g id="node3" class="node">
<title>StimFeatureSequencesDomainModule</title>
<polygon fill="#8dd3c7" stroke="black" points="591.17,-149.8 588.17,-153.8 567.17,-153.8 564.17,-149.8 358.83,-149.8 358.83,-113.8 591.17,-113.8 591.17,-149.8"/>
<text text-anchor="middle" x="475" y="-127.6" font-family="Times,serif" font-size="14.00">StimFeatureSequencesDomainModule</text>
</g>
<!-- StimFeatureSequencesDomainModule&#45;&gt;AclRepository  -->
<g id="edge1" class="edge">
<title>StimFeatureSequencesDomainModule&#45;&gt;AclRepository </title>
<path fill="none" stroke="black" stroke-dasharray="5,2" d="M546.26,-149.91C546.26,-149.91 546.26,-168.79 546.26,-168.79"/>
<polygon fill="black" stroke="black" points="542.76,-168.79 546.26,-178.79 549.76,-168.79 542.76,-168.79"/>
</g>
<!-- StimFeatureSequencesDomainModule&#45;&gt;SequenceGeneratorFactory  -->
<g id="edge2" class="edge">
<title>StimFeatureSequencesDomainModule&#45;&gt;SequenceGeneratorFactory </title>
<path fill="none" stroke="black" stroke-dasharray="5,2" d="M420.92,-149.91C420.92,-149.91 420.92,-168.79 420.92,-168.79"/>
<polygon fill="black" stroke="black" points="417.42,-168.79 420.92,-178.79 424.42,-168.79 417.42,-168.79"/>
</g>
<!-- AclActionSeeder -->
<g id="node4" class="node">
<title>AclActionSeeder</title>
<ellipse fill="#fdb462" stroke="black" cx="929" cy="-66.8" rx="77.56" ry="18"/>
<text text-anchor="middle" x="929" y="-62.6" font-family="Times,serif" font-size="14.00">AclActionSeeder</text>
</g>
<!-- AclActionSeeder&#45;&gt;StimFeatureSequencesDomainModule -->
<g id="edge3" class="edge">
<title>AclActionSeeder&#45;&gt;StimFeatureSequencesDomainModule</title>
<path fill="none" stroke="black" d="M929,-85.08C929,-106.12 929,-137.8 929,-137.8 929,-137.8 601.33,-137.8 601.33,-137.8"/>
<polygon fill="black" stroke="black" points="601.33,-134.3 591.33,-137.8 601.33,-141.3 601.33,-134.3"/>
</g>
<!-- AclPossessionSeeder -->
<g id="node5" class="node">
<title>AclPossessionSeeder</title>
<ellipse fill="#fdb462" stroke="black" cx="740" cy="-66.8" rx="93.19" ry="18"/>
<text text-anchor="middle" x="740" y="-62.6" font-family="Times,serif" font-size="14.00">AclPossessionSeeder</text>
</g>
<!-- AclPossessionSeeder&#45;&gt;StimFeatureSequencesDomainModule -->
<g id="edge4" class="edge">
<title>AclPossessionSeeder&#45;&gt;StimFeatureSequencesDomainModule</title>
<path fill="none" stroke="black" d="M740,-84.82C740,-102.17 740,-125.8 740,-125.8 740,-125.8 601.23,-125.8 601.23,-125.8"/>
<polygon fill="black" stroke="black" points="601.23,-122.3 591.23,-125.8 601.23,-129.3 601.23,-122.3"/>
</g>
<!-- AclRepository -->
<g id="node6" class="node">
<title>AclRepository</title>
<ellipse fill="#fdb462" stroke="black" cx="562" cy="-66.8" rx="67.21" ry="18"/>
<text text-anchor="middle" x="562" y="-62.6" font-family="Times,serif" font-size="14.00">AclRepository</text>
</g>
<!-- AclRepository&#45;&gt;StimFeatureSequencesDomainModule -->
<g id="edge5" class="edge">
<title>AclRepository&#45;&gt;StimFeatureSequencesDomainModule</title>
<path fill="none" stroke="black" d="M542.86,-84.22C542.86,-84.22 542.86,-103.42 542.86,-103.42"/>
<polygon fill="black" stroke="black" points="539.36,-103.42 542.86,-113.42 546.36,-103.42 539.36,-103.42"/>
</g>
<!-- AclResourceSeeder -->
<g id="node7" class="node">
<title>AclResourceSeeder</title>
<ellipse fill="#fdb462" stroke="black" cx="389" cy="-66.8" rx="87.36" ry="18"/>
<text text-anchor="middle" x="389" y="-62.6" font-family="Times,serif" font-size="14.00">AclResourceSeeder</text>
</g>
<!-- AclResourceSeeder&#45;&gt;StimFeatureSequencesDomainModule -->
<g id="edge6" class="edge">
<title>AclResourceSeeder&#45;&gt;StimFeatureSequencesDomainModule</title>
<path fill="none" stroke="black" d="M417.55,-83.88C417.55,-83.88 417.55,-103.7 417.55,-103.7"/>
<polygon fill="black" stroke="black" points="414.05,-103.7 417.55,-113.7 421.05,-103.7 414.05,-103.7"/>
</g>
<!-- AclRoleSeeder -->
<g id="node8" class="node">
<title>AclRoleSeeder</title>
<ellipse fill="#fdb462" stroke="black" cx="214" cy="-66.8" rx="69.48" ry="18"/>
<text text-anchor="middle" x="214" y="-62.6" font-family="Times,serif" font-size="14.00">AclRoleSeeder</text>
</g>
<!-- AclRoleSeeder&#45;&gt;StimFeatureSequencesDomainModule -->
<g id="edge7" class="edge">
<title>AclRoleSeeder&#45;&gt;StimFeatureSequencesDomainModule</title>
<path fill="none" stroke="black" d="M214,-84.82C214,-102.17 214,-125.8 214,-125.8 214,-125.8 348.62,-125.8 348.62,-125.8"/>
<polygon fill="black" stroke="black" points="348.62,-129.3 358.62,-125.8 348.62,-122.3 348.62,-129.3"/>
</g>
<!-- AclSeeder -->
<g id="node9" class="node">
<title>AclSeeder</title>
<ellipse fill="#fdb462" stroke="black" cx="75" cy="-66.8" rx="51.5" ry="18"/>
<text text-anchor="middle" x="75" y="-62.6" font-family="Times,serif" font-size="14.00">AclSeeder</text>
</g>
<!-- AclSeeder&#45;&gt;StimFeatureSequencesDomainModule -->
<g id="edge8" class="edge">
<title>AclSeeder&#45;&gt;StimFeatureSequencesDomainModule</title>
<path fill="none" stroke="black" d="M75,-85.08C75,-106.12 75,-137.8 75,-137.8 75,-137.8 348.77,-137.8 348.77,-137.8"/>
<polygon fill="black" stroke="black" points="348.77,-141.3 358.77,-137.8 348.77,-134.3 348.77,-141.3"/>
</g>
</g>
</svg>
