<?xml version="1.0" encoding="UTF-8" standalone="no"?>
<!DOCTYPE svg PUBLIC "-//W3C//DTD SVG 1.1//EN"
 "http://www.w3.org/Graphics/SVG/1.1/DTD/svg11.dtd">
<!-- Generated by graphviz version 2.47.3 (20210619.1520)
 -->
<!-- Title: dependencies Pages: 1 -->
<svg width="434pt" height="247pt"
 viewBox="0.00 0.00 434.00 246.80" xmlns="http://www.w3.org/2000/svg" xmlns:xlink="http://www.w3.org/1999/xlink">
<g id="graph0" class="graph" transform="scale(1 1) rotate(0) translate(4 242.8)">
<title>dependencies</title>
<polygon fill="white" stroke="transparent" points="-4,4 -4,-242.8 430,-242.8 430,4 -4,4"/>
<text text-anchor="middle" x="213" y="-8.2" font-family="sans-serif" font-size="14.00">dependencies</text>
<g id="clust1" class="cluster">
<title>cluster_StimFeatureSequencesDomainModule</title>
<polygon fill="none" stroke="black" stroke-dasharray="1,5" points="8,-32.8 8,-230.8 418,-230.8 418,-32.8 8,-32.8"/>
</g>
<g id="clust4" class="cluster">
<title>cluster_StimFeatureSequencesDomainModule_exports</title>
<polygon fill="none" stroke="black" points="16,-170.8 16,-222.8 410,-222.8 410,-170.8 16,-170.8"/>
</g>
<g id="clust6" class="cluster">
<title>cluster_StimFeatureSequencesDomainModule_providers</title>
<polygon fill="none" stroke="black" points="98,-40.8 98,-92.8 328,-92.8 328,-40.8 98,-40.8"/>
</g>
<!-- ExperimentResultsRepository  -->
<g id="node1" class="node">
<title>ExperimentResultsRepository </title>
<polygon fill="#fb8072" stroke="black" points="401.97,-214.8 214.03,-214.8 214.03,-178.8 401.97,-178.8 401.97,-214.8"/>
<text text-anchor="middle" x="308" y="-192.6" font-family="Times,serif" font-size="14.00">ExperimentResultsRepository </text>
</g>
<!-- SequenceGeneratorFactory  -->
<g id="node2" class="node">
<title>SequenceGeneratorFactory </title>
<polygon fill="#fb8072" stroke="black" points="195.87,-214.8 24.13,-214.8 24.13,-178.8 195.87,-178.8 195.87,-214.8"/>
<text text-anchor="middle" x="110" y="-192.6" font-family="Times,serif" font-size="14.00">SequenceGeneratorFactory </text>
</g>
<!-- StimFeatureSequencesDomainModule -->
<g id="node3" class="node">
<title>StimFeatureSequencesDomainModule</title>
<polygon fill="#8dd3c7" stroke="black" points="329.17,-149.8 326.17,-153.8 305.17,-153.8 302.17,-149.8 96.83,-149.8 96.83,-113.8 329.17,-113.8 329.17,-149.8"/>
<text text-anchor="middle" x="213" y="-127.6" font-family="Times,serif" font-size="14.00">StimFeatureSequencesDomainModule</text>
</g>
<!-- StimFeatureSequencesDomainModule&#45;&gt;ExperimentResultsRepository  -->
<g id="edge1" class="edge">
<title>StimFeatureSequencesDomainModule&#45;&gt;ExperimentResultsRepository </title>
<path fill="none" stroke="black" stroke-dasharray="5,2" d="M271.67,-149.91C271.67,-149.91 271.67,-168.79 271.67,-168.79"/>
<polygon fill="black" stroke="black" points="268.17,-168.79 271.67,-178.79 275.17,-168.79 268.17,-168.79"/>
</g>
<!-- StimFeatureSequencesDomainModule&#45;&gt;SequenceGeneratorFactory  -->
<g id="edge2" class="edge">
<title>StimFeatureSequencesDomainModule&#45;&gt;SequenceGeneratorFactory </title>
<path fill="none" stroke="black" stroke-dasharray="5,2" d="M146.42,-149.91C146.42,-149.91 146.42,-168.79 146.42,-168.79"/>
<polygon fill="black" stroke="black" points="142.92,-168.79 146.42,-178.79 149.92,-168.79 142.92,-168.79"/>
</g>
<!-- ExperimentResultSeeder -->
<g id="node4" class="node">
<title>ExperimentResultSeeder</title>
<ellipse fill="#fdb462" stroke="black" cx="213" cy="-66.8" rx="107.08" ry="18"/>
<text text-anchor="middle" x="213" y="-62.6" font-family="Times,serif" font-size="14.00">ExperimentResultSeeder</text>
</g>
<!-- ExperimentResultSeeder&#45;&gt;StimFeatureSequencesDomainModule -->
<g id="edge3" class="edge">
<title>ExperimentResultSeeder&#45;&gt;StimFeatureSequencesDomainModule</title>
<path fill="none" stroke="black" d="M213,-84.91C213,-84.91 213,-103.79 213,-103.79"/>
<polygon fill="black" stroke="black" points="209.5,-103.79 213,-113.79 216.5,-103.79 209.5,-103.79"/>
</g>
</g>
</svg>
