<?xml version="1.0" encoding="UTF-8" standalone="no"?>
<!DOCTYPE svg PUBLIC "-//W3C//DTD SVG 1.1//EN"
 "http://www.w3.org/Graphics/SVG/1.1/DTD/svg11.dtd">
<!-- Generated by graphviz version 2.47.3 (20210619.1520)
 -->
<!-- Title: dependencies Pages: 1 -->
<svg width="518pt" height="247pt"
 viewBox="0.00 0.00 518.00 246.80" xmlns="http://www.w3.org/2000/svg" xmlns:xlink="http://www.w3.org/1999/xlink">
<g id="graph0" class="graph" transform="scale(1 1) rotate(0) translate(4 242.8)">
<title>dependencies</title>
<polygon fill="white" stroke="transparent" points="-4,4 -4,-242.8 514,-242.8 514,4 -4,4"/>
<text text-anchor="middle" x="255" y="-8.2" font-family="sans-serif" font-size="14.00">dependencies</text>
<g id="clust1" class="cluster">
<title>cluster_StimFeatureExperimentsInfrastructureModule</title>
<polygon fill="none" stroke="black" stroke-dasharray="1,5" points="8,-32.8 8,-230.8 502,-230.8 502,-32.8 8,-32.8"/>
</g>
<g id="clust6" class="cluster">
<title>cluster_StimFeatureExperimentsInfrastructureModule_providers</title>
<polygon fill="none" stroke="black" points="304,-40.8 304,-92.8 494,-92.8 494,-40.8 304,-40.8"/>
</g>
<g id="clust4" class="cluster">
<title>cluster_StimFeatureExperimentsInfrastructureModule_exports</title>
<polygon fill="none" stroke="black" points="183,-170.8 183,-222.8 329,-222.8 329,-170.8 183,-170.8"/>
</g>
<g id="clust3" class="cluster">
<title>cluster_StimFeatureExperimentsInfrastructureModule_imports</title>
<polygon fill="none" stroke="black" points="16,-40.8 16,-92.8 296,-92.8 296,-40.8 16,-40.8"/>
</g>
<!-- StimFeatureExperimentsApplicationModule -->
<g id="node1" class="node">
<title>StimFeatureExperimentsApplicationModule</title>
<polygon fill="#8dd3c7" stroke="black" points="288.34,-84.8 285.34,-88.8 264.34,-88.8 261.34,-84.8 23.66,-84.8 23.66,-48.8 288.34,-48.8 288.34,-84.8"/>
<text text-anchor="middle" x="156" y="-62.6" font-family="Times,serif" font-size="14.00">StimFeatureExperimentsApplicationModule</text>
</g>
<!-- StimFeatureExperimentsInfrastructureModule -->
<g id="node2" class="node">
<title>StimFeatureExperimentsInfrastructureModule</title>
<polygon fill="#8dd3c7" stroke="black" points="393.41,-149.8 390.41,-153.8 369.41,-153.8 366.41,-149.8 118.59,-149.8 118.59,-113.8 393.41,-113.8 393.41,-149.8"/>
<text text-anchor="middle" x="256" y="-127.6" font-family="Times,serif" font-size="14.00">StimFeatureExperimentsInfrastructureModule</text>
</g>
<!-- StimFeatureExperimentsApplicationModule&#45;&gt;StimFeatureExperimentsInfrastructureModule -->
<g id="edge1" class="edge">
<title>StimFeatureExperimentsApplicationModule&#45;&gt;StimFeatureExperimentsInfrastructureModule</title>
<path fill="none" stroke="black" d="M203.48,-84.91C203.48,-84.91 203.48,-103.79 203.48,-103.79"/>
<polygon fill="black" stroke="black" points="199.98,-103.79 203.48,-113.79 206.98,-103.79 199.98,-103.79"/>
</g>
<!-- ExperimentsFacade  -->
<g id="node3" class="node">
<title>ExperimentsFacade </title>
<polygon fill="#fb8072" stroke="black" points="320.9,-214.8 191.1,-214.8 191.1,-178.8 320.9,-178.8 320.9,-214.8"/>
<text text-anchor="middle" x="256" y="-192.6" font-family="Times,serif" font-size="14.00">ExperimentsFacade </text>
</g>
<!-- StimFeatureExperimentsInfrastructureModule&#45;&gt;ExperimentsFacade  -->
<g id="edge2" class="edge">
<title>StimFeatureExperimentsInfrastructureModule&#45;&gt;ExperimentsFacade </title>
<path fill="none" stroke="black" stroke-dasharray="5,2" d="M256,-149.91C256,-149.91 256,-168.79 256,-168.79"/>
<polygon fill="black" stroke="black" points="252.5,-168.79 256,-178.79 259.5,-168.79 252.5,-168.79"/>
</g>
<!-- ExperimentsFacade -->
<g id="node4" class="node">
<title>ExperimentsFacade</title>
<ellipse fill="#fdb462" stroke="black" cx="399" cy="-66.8" rx="87.38" ry="18"/>
<text text-anchor="middle" x="399" y="-62.6" font-family="Times,serif" font-size="14.00">ExperimentsFacade</text>
</g>
<!-- ExperimentsFacade&#45;&gt;StimFeatureExperimentsInfrastructureModule -->
<g id="edge3" class="edge">
<title>ExperimentsFacade&#45;&gt;StimFeatureExperimentsInfrastructureModule</title>
<path fill="none" stroke="black" d="M352.63,-82.2C352.63,-82.2 352.63,-103.74 352.63,-103.74"/>
<polygon fill="black" stroke="black" points="349.13,-103.74 352.63,-113.74 356.13,-103.74 349.13,-103.74"/>
</g>
</g>
</svg>
