<?xml version="1.0" encoding="UTF-8" standalone="no"?>
<!DOCTYPE svg PUBLIC "-//W3C//DTD SVG 1.1//EN"
 "http://www.w3.org/Graphics/SVG/1.1/DTD/svg11.dtd">
<!-- Generated by graphviz version 2.47.3 (20210619.1520)
 -->
<!-- Title: dependencies Pages: 1 -->
<svg width="518pt" height="247pt"
 viewBox="0.00 0.00 518.00 246.80" xmlns="http://www.w3.org/2000/svg" xmlns:xlink="http://www.w3.org/1999/xlink">
<g id="graph0" class="graph" transform="scale(1 1) rotate(0) translate(4 242.8)">
<title>dependencies</title>
<polygon fill="white" stroke="transparent" points="-4,4 -4,-242.8 514,-242.8 514,4 -4,4"/>
<text text-anchor="middle" x="255" y="-8.2" font-family="sans-serif" font-size="14.00">dependencies</text>
<g id="clust1" class="cluster">
<title>cluster_StimFeatureExperimentsInfrastructureModule</title>
<polygon fill="none" stroke="black" stroke-dasharray="1,5" points="8,-32.8 8,-230.8 502,-230.8 502,-32.8 8,-32.8"/>
</g>
<g id="clust4" class="cluster">
<title>cluster_StimFeatureExperimentsInfrastructureModule_exports</title>
<polygon fill="none" stroke="black" points="180,-170.8 180,-222.8 326,-222.8 326,-170.8 180,-170.8"/>
</g>
<g id="clust3" class="cluster">
<title>cluster_StimFeatureExperimentsInfrastructureModule_imports</title>
<polygon fill="none" stroke="black" points="214,-40.8 214,-92.8 494,-92.8 494,-40.8 214,-40.8"/>
</g>
<g id="clust6" class="cluster">
<title>cluster_StimFeatureExperimentsInfrastructureModule_providers</title>
<polygon fill="none" stroke="black" points="16,-40.8 16,-92.8 206,-92.8 206,-40.8 16,-40.8"/>
</g>
<!-- StimFeatureExperimentsApplicationModule -->
<g id="node1" class="node">
<title>StimFeatureExperimentsApplicationModule</title>
<polygon fill="#8dd3c7" stroke="black" points="486.34,-84.8 483.34,-88.8 462.34,-88.8 459.34,-84.8 221.66,-84.8 221.66,-48.8 486.34,-48.8 486.34,-84.8"/>
<text text-anchor="middle" x="354" y="-62.6" font-family="Times,serif" font-size="14.00">StimFeatureExperimentsApplicationModule</text>
</g>
<!-- StimFeatureExperimentsInfrastructureModule -->
<g id="node2" class="node">
<title>StimFeatureExperimentsInfrastructureModule</title>
<polygon fill="#8dd3c7" stroke="black" points="390.41,-149.8 387.41,-153.8 366.41,-153.8 363.41,-149.8 115.59,-149.8 115.59,-113.8 390.41,-113.8 390.41,-149.8"/>
<text text-anchor="middle" x="253" y="-127.6" font-family="Times,serif" font-size="14.00">StimFeatureExperimentsInfrastructureModule</text>
</g>
<!-- StimFeatureExperimentsApplicationModule&#45;&gt;StimFeatureExperimentsInfrastructureModule -->
<g id="edge1" class="edge">
<title>StimFeatureExperimentsApplicationModule&#45;&gt;StimFeatureExperimentsInfrastructureModule</title>
<path fill="none" stroke="black" d="M306.02,-84.91C306.02,-84.91 306.02,-103.79 306.02,-103.79"/>
<polygon fill="black" stroke="black" points="302.52,-103.79 306.02,-113.79 309.52,-103.79 302.52,-103.79"/>
</g>
<!-- ExperimentsFacade  -->
<g id="node3" class="node">
<title>ExperimentsFacade </title>
<polygon fill="#fb8072" stroke="black" points="317.9,-214.8 188.1,-214.8 188.1,-178.8 317.9,-178.8 317.9,-214.8"/>
<text text-anchor="middle" x="253" y="-192.6" font-family="Times,serif" font-size="14.00">ExperimentsFacade </text>
</g>
<!-- StimFeatureExperimentsInfrastructureModule&#45;&gt;ExperimentsFacade  -->
<g id="edge2" class="edge">
<title>StimFeatureExperimentsInfrastructureModule&#45;&gt;ExperimentsFacade </title>
<path fill="none" stroke="black" stroke-dasharray="5,2" d="M253,-149.91C253,-149.91 253,-168.79 253,-168.79"/>
<polygon fill="black" stroke="black" points="249.5,-168.79 253,-178.79 256.5,-168.79 249.5,-168.79"/>
</g>
<!-- ExperimentsFacade -->
<g id="node4" class="node">
<title>ExperimentsFacade</title>
<ellipse fill="#fdb462" stroke="black" cx="111" cy="-66.8" rx="87.38" ry="18"/>
<text text-anchor="middle" x="111" y="-62.6" font-family="Times,serif" font-size="14.00">ExperimentsFacade</text>
</g>
<!-- ExperimentsFacade&#45;&gt;StimFeatureExperimentsInfrastructureModule -->
<g id="edge3" class="edge">
<title>ExperimentsFacade&#45;&gt;StimFeatureExperimentsInfrastructureModule</title>
<path fill="none" stroke="black" d="M156.87,-82.2C156.87,-82.2 156.87,-103.74 156.87,-103.74"/>
<polygon fill="black" stroke="black" points="153.37,-103.74 156.87,-113.74 160.37,-103.74 153.37,-103.74"/>
</g>
</g>
</svg>
