<?xml version="1.0" encoding="UTF-8" standalone="no"?>
<!DOCTYPE svg PUBLIC "-//W3C//DTD SVG 1.1//EN"
 "http://www.w3.org/Graphics/SVG/1.1/DTD/svg11.dtd">
<!-- Generated by graphviz version 2.47.3 (20210619.1520)
 -->
<!-- Title: dependencies Pages: 1 -->
<svg width="270pt" height="247pt"
 viewBox="0.00 0.00 270.00 246.80" xmlns="http://www.w3.org/2000/svg" xmlns:xlink="http://www.w3.org/1999/xlink">
<g id="graph0" class="graph" transform="scale(1 1) rotate(0) translate(4 242.8)">
<title>dependencies</title>
<polygon fill="white" stroke="transparent" points="-4,4 -4,-242.8 266,-242.8 266,4 -4,4"/>
<text text-anchor="middle" x="131" y="-8.2" font-family="sans-serif" font-size="14.00">dependencies</text>
<g id="clust1" class="cluster">
<title>cluster_StimFeatureUsersDomainModule</title>
<polygon fill="none" stroke="black" stroke-dasharray="1,5" points="8,-32.8 8,-230.8 254,-230.8 254,-32.8 8,-32.8"/>
</g>
<g id="clust4" class="cluster">
<title>cluster_StimFeatureUsersDomainModule_exports</title>
<polygon fill="none" stroke="black" points="29,-170.8 29,-222.8 233,-222.8 233,-170.8 29,-170.8"/>
</g>
<g id="clust6" class="cluster">
<title>cluster_StimFeatureUsersDomainModule_providers</title>
<polygon fill="none" stroke="black" points="16,-40.8 16,-92.8 246,-92.8 246,-40.8 16,-40.8"/>
</g>
<!-- ExperimentResultsRepository  -->
<g id="node1" class="node">
<title>ExperimentResultsRepository </title>
<polygon fill="#fb8072" stroke="black" points="224.97,-214.8 37.03,-214.8 37.03,-178.8 224.97,-178.8 224.97,-214.8"/>
<text text-anchor="middle" x="131" y="-192.6" font-family="Times,serif" font-size="14.00">ExperimentResultsRepository </text>
</g>
<!-- StimFeatureUsersDomainModule -->
<g id="node2" class="node">
<title>StimFeatureUsersDomainModule</title>
<polygon fill="#8dd3c7" stroke="black" points="233.46,-149.8 230.46,-153.8 209.46,-153.8 206.46,-149.8 28.54,-149.8 28.54,-113.8 233.46,-113.8 233.46,-149.8"/>
<text text-anchor="middle" x="131" y="-127.6" font-family="Times,serif" font-size="14.00">StimFeatureUsersDomainModule</text>
</g>
<!-- StimFeatureUsersDomainModule&#45;&gt;ExperimentResultsRepository  -->
<g id="edge1" class="edge">
<title>StimFeatureUsersDomainModule&#45;&gt;ExperimentResultsRepository </title>
<path fill="none" stroke="black" stroke-dasharray="5,2" d="M131,-149.91C131,-149.91 131,-168.79 131,-168.79"/>
<polygon fill="black" stroke="black" points="127.5,-168.79 131,-178.79 134.5,-168.79 127.5,-168.79"/>
</g>
<!-- ExperimentResultSeeder -->
<g id="node3" class="node">
<title>ExperimentResultSeeder</title>
<ellipse fill="#fdb462" stroke="black" cx="131" cy="-66.8" rx="107.08" ry="18"/>
<text text-anchor="middle" x="131" y="-62.6" font-family="Times,serif" font-size="14.00">ExperimentResultSeeder</text>
</g>
<!-- ExperimentResultSeeder&#45;&gt;StimFeatureUsersDomainModule -->
<g id="edge2" class="edge">
<title>ExperimentResultSeeder&#45;&gt;StimFeatureUsersDomainModule</title>
<path fill="none" stroke="black" d="M131,-84.91C131,-84.91 131,-103.79 131,-103.79"/>
<polygon fill="black" stroke="black" points="127.5,-103.79 131,-113.79 134.5,-103.79 127.5,-103.79"/>
</g>
</g>
</svg>
