<?xml version="1.0" encoding="UTF-8" standalone="no"?>
<!DOCTYPE svg PUBLIC "-//W3C//DTD SVG 1.1//EN"
 "http://www.w3.org/Graphics/SVG/1.1/DTD/svg11.dtd">
<!-- Generated by graphviz version 2.47.3 (20210619.1520)
 -->
<!-- Title: dependencies Pages: 1 -->
<svg width="1039pt" height="247pt"
 viewBox="0.00 0.00 1039.00 246.80" xmlns="http://www.w3.org/2000/svg" xmlns:xlink="http://www.w3.org/1999/xlink">
<g id="graph0" class="graph" transform="scale(1 1) rotate(0) translate(4 242.8)">
<title>dependencies</title>
<polygon fill="white" stroke="transparent" points="-4,4 -4,-242.8 1035,-242.8 1035,4 -4,4"/>
<text text-anchor="middle" x="515.5" y="-8.2" font-family="sans-serif" font-size="14.00">dependencies</text>
<g id="clust1" class="cluster">
<title>cluster_StimFeatureUsersDomainModule</title>
<polygon fill="none" stroke="black" stroke-dasharray="1,5" points="8,-32.8 8,-230.8 1023,-230.8 1023,-32.8 8,-32.8"/>
</g>
<g id="clust4" class="cluster">
<title>cluster_StimFeatureUsersDomainModule_exports</title>
<polygon fill="none" stroke="black" points="416,-170.8 416,-222.8 534,-222.8 534,-170.8 416,-170.8"/>
</g>
<g id="clust6" class="cluster">
<title>cluster_StimFeatureUsersDomainModule_providers</title>
<polygon fill="none" stroke="black" points="16,-40.8 16,-92.8 1015,-92.8 1015,-40.8 16,-40.8"/>
</g>
<!-- AclRepository  -->
<g id="node1" class="node">
<title>AclRepository </title>
<polygon fill="#fb8072" stroke="black" points="525.65,-214.8 424.35,-214.8 424.35,-178.8 525.65,-178.8 525.65,-214.8"/>
<text text-anchor="middle" x="475" y="-192.6" font-family="Times,serif" font-size="14.00">AclRepository </text>
</g>
<!-- StimFeatureUsersDomainModule -->
<g id="node2" class="node">
<title>StimFeatureUsersDomainModule</title>
<polygon fill="#8dd3c7" stroke="black" points="577.46,-149.8 574.46,-153.8 553.46,-153.8 550.46,-149.8 372.54,-149.8 372.54,-113.8 577.46,-113.8 577.46,-149.8"/>
<text text-anchor="middle" x="475" y="-127.6" font-family="Times,serif" font-size="14.00">StimFeatureUsersDomainModule</text>
</g>
<!-- StimFeatureUsersDomainModule&#45;&gt;AclRepository  -->
<g id="edge1" class="edge">
<title>StimFeatureUsersDomainModule&#45;&gt;AclRepository </title>
<path fill="none" stroke="black" stroke-dasharray="5,2" d="M475,-149.91C475,-149.91 475,-168.79 475,-168.79"/>
<polygon fill="black" stroke="black" points="471.5,-168.79 475,-178.79 478.5,-168.79 471.5,-168.79"/>
</g>
<!-- AclActionSeeder -->
<g id="node3" class="node">
<title>AclActionSeeder</title>
<ellipse fill="#fdb462" stroke="black" cx="929" cy="-66.8" rx="77.56" ry="18"/>
<text text-anchor="middle" x="929" y="-62.6" font-family="Times,serif" font-size="14.00">AclActionSeeder</text>
</g>
<!-- AclActionSeeder&#45;&gt;StimFeatureUsersDomainModule -->
<g id="edge2" class="edge">
<title>AclActionSeeder&#45;&gt;StimFeatureUsersDomainModule</title>
<path fill="none" stroke="black" d="M929,-85.08C929,-106.12 929,-137.8 929,-137.8 929,-137.8 587.74,-137.8 587.74,-137.8"/>
<polygon fill="black" stroke="black" points="587.74,-134.3 577.74,-137.8 587.74,-141.3 587.74,-134.3"/>
</g>
<!-- AclPossessionSeeder -->
<g id="node4" class="node">
<title>AclPossessionSeeder</title>
<ellipse fill="#fdb462" stroke="black" cx="740" cy="-66.8" rx="93.19" ry="18"/>
<text text-anchor="middle" x="740" y="-62.6" font-family="Times,serif" font-size="14.00">AclPossessionSeeder</text>
</g>
<!-- AclPossessionSeeder&#45;&gt;StimFeatureUsersDomainModule -->
<g id="edge3" class="edge">
<title>AclPossessionSeeder&#45;&gt;StimFeatureUsersDomainModule</title>
<path fill="none" stroke="black" d="M740,-84.82C740,-102.17 740,-125.8 740,-125.8 740,-125.8 587.46,-125.8 587.46,-125.8"/>
<polygon fill="black" stroke="black" points="587.46,-122.3 577.46,-125.8 587.46,-129.3 587.46,-122.3"/>
</g>
<!-- AclRepository -->
<g id="node5" class="node">
<title>AclRepository</title>
<ellipse fill="#fdb462" stroke="black" cx="562" cy="-66.8" rx="67.21" ry="18"/>
<text text-anchor="middle" x="562" y="-62.6" font-family="Times,serif" font-size="14.00">AclRepository</text>
</g>
<!-- AclRepository&#45;&gt;StimFeatureUsersDomainModule -->
<g id="edge4" class="edge">
<title>AclRepository&#45;&gt;StimFeatureUsersDomainModule</title>
<path fill="none" stroke="black" d="M536.06,-83.54C536.06,-83.54 536.06,-103.52 536.06,-103.52"/>
<polygon fill="black" stroke="black" points="532.56,-103.52 536.06,-113.52 539.56,-103.52 532.56,-103.52"/>
</g>
<!-- AclResourceSeeder -->
<g id="node6" class="node">
<title>AclResourceSeeder</title>
<ellipse fill="#fdb462" stroke="black" cx="389" cy="-66.8" rx="87.36" ry="18"/>
<text text-anchor="middle" x="389" y="-62.6" font-family="Times,serif" font-size="14.00">AclResourceSeeder</text>
</g>
<!-- AclResourceSeeder&#45;&gt;StimFeatureUsersDomainModule -->
<g id="edge5" class="edge">
<title>AclResourceSeeder&#45;&gt;StimFeatureUsersDomainModule</title>
<path fill="none" stroke="black" d="M424.35,-83.54C424.35,-83.54 424.35,-103.52 424.35,-103.52"/>
<polygon fill="black" stroke="black" points="420.85,-103.52 424.35,-113.52 427.85,-103.52 420.85,-103.52"/>
</g>
<!-- AclRoleSeeder -->
<g id="node7" class="node">
<title>AclRoleSeeder</title>
<ellipse fill="#fdb462" stroke="black" cx="214" cy="-66.8" rx="69.48" ry="18"/>
<text text-anchor="middle" x="214" y="-62.6" font-family="Times,serif" font-size="14.00">AclRoleSeeder</text>
</g>
<!-- AclRoleSeeder&#45;&gt;StimFeatureUsersDomainModule -->
<g id="edge6" class="edge">
<title>AclRoleSeeder&#45;&gt;StimFeatureUsersDomainModule</title>
<path fill="none" stroke="black" d="M214,-84.82C214,-102.17 214,-125.8 214,-125.8 214,-125.8 362.22,-125.8 362.22,-125.8"/>
<polygon fill="black" stroke="black" points="362.22,-129.3 372.22,-125.8 362.22,-122.3 362.22,-129.3"/>
</g>
<!-- AclSeeder -->
<g id="node8" class="node">
<title>AclSeeder</title>
<ellipse fill="#fdb462" stroke="black" cx="75" cy="-66.8" rx="51.5" ry="18"/>
<text text-anchor="middle" x="75" y="-62.6" font-family="Times,serif" font-size="14.00">AclSeeder</text>
</g>
<!-- AclSeeder&#45;&gt;StimFeatureUsersDomainModule -->
<g id="edge7" class="edge">
<title>AclSeeder&#45;&gt;StimFeatureUsersDomainModule</title>
<path fill="none" stroke="black" d="M75,-85.08C75,-106.12 75,-137.8 75,-137.8 75,-137.8 362.51,-137.8 362.51,-137.8"/>
<polygon fill="black" stroke="black" points="362.51,-141.3 372.51,-137.8 362.51,-134.3 362.51,-141.3"/>
</g>
</g>
</svg>
