<?xml version="1.0" encoding="UTF-8" standalone="no"?>
<!DOCTYPE svg PUBLIC "-//W3C//DTD SVG 1.1//EN"
 "http://www.w3.org/Graphics/SVG/1.1/DTD/svg11.dtd">
<!-- Generated by graphviz version 2.47.3 (20210619.1520)
 -->
<!-- Title: dependencies Pages: 1 -->
<svg width="1252pt" height="174pt"
 viewBox="0.00 0.00 1252.00 173.80" xmlns="http://www.w3.org/2000/svg" xmlns:xlink="http://www.w3.org/1999/xlink">
<g id="graph0" class="graph" transform="scale(1 1) rotate(0) translate(4 169.8)">
<title>dependencies</title>
<polygon fill="white" stroke="transparent" points="-4,4 -4,-169.8 1248,-169.8 1248,4 -4,4"/>
<text text-anchor="middle" x="622" y="-8.2" font-family="sans-serif" font-size="14.00">dependencies</text>
<g id="clust1" class="cluster">
<title>cluster_StimFeaturePlayerApplicationModule</title>
<polygon fill="none" stroke="black" stroke-dasharray="1,5" points="8,-32.8 8,-157.8 1236,-157.8 1236,-32.8 8,-32.8"/>
</g>
<g id="clust6" class="cluster">
<title>cluster_StimFeaturePlayerApplicationModule_providers</title>
<polygon fill="none" stroke="black" points="640,-40.8 640,-92.8 1228,-92.8 1228,-40.8 640,-40.8"/>
</g>
<g id="clust3" class="cluster">
<title>cluster_StimFeaturePlayerApplicationModule_imports</title>
<polygon fill="none" stroke="black" points="16,-40.8 16,-92.8 632,-92.8 632,-40.8 16,-40.8"/>
</g>
<!-- StimFeatureIpcApplicationModule -->
<g id="node1" class="node">
<title>StimFeatureIpcApplicationModule</title>
<polygon fill="#8dd3c7" stroke="black" points="623.96,-84.8 620.96,-88.8 599.96,-88.8 596.96,-84.8 412.04,-84.8 412.04,-48.8 623.96,-48.8 623.96,-84.8"/>
<text text-anchor="middle" x="518" y="-62.6" font-family="Times,serif" font-size="14.00">StimFeatureIpcApplicationModule</text>
</g>
<!-- StimFeaturePlayerApplicationModule -->
<g id="node4" class="node">
<title>StimFeaturePlayerApplicationModule</title>
<polygon fill="#8dd3c7" stroke="black" points="747.84,-149.8 744.84,-153.8 723.84,-153.8 720.84,-149.8 518.16,-149.8 518.16,-113.8 747.84,-113.8 747.84,-149.8"/>
<text text-anchor="middle" x="633" y="-127.6" font-family="Times,serif" font-size="14.00">StimFeaturePlayerApplicationModule</text>
</g>
<!-- StimFeatureIpcApplicationModule&#45;&gt;StimFeaturePlayerApplicationModule -->
<g id="edge1" class="edge">
<title>StimFeatureIpcApplicationModule&#45;&gt;StimFeaturePlayerApplicationModule</title>
<path fill="none" stroke="black" d="M571.03,-84.91C571.03,-84.91 571.03,-103.79 571.03,-103.79"/>
<polygon fill="black" stroke="black" points="567.53,-103.79 571.03,-113.79 574.53,-103.79 567.53,-103.79"/>
</g>
<!-- StimFeaturePlayerDomainModule -->
<g id="node2" class="node">
<title>StimFeaturePlayerDomainModule</title>
<polygon fill="#8dd3c7" stroke="black" points="394.35,-84.8 391.35,-88.8 370.35,-88.8 367.35,-84.8 185.65,-84.8 185.65,-48.8 394.35,-48.8 394.35,-84.8"/>
<text text-anchor="middle" x="290" y="-62.6" font-family="Times,serif" font-size="14.00">StimFeaturePlayerDomainModule</text>
</g>
<!-- StimFeaturePlayerDomainModule&#45;&gt;StimFeaturePlayerApplicationModule -->
<g id="edge2" class="edge">
<title>StimFeaturePlayerDomainModule&#45;&gt;StimFeaturePlayerApplicationModule</title>
<path fill="none" stroke="black" d="M290,-84.82C290,-102.17 290,-125.8 290,-125.8 290,-125.8 507.83,-125.8 507.83,-125.8"/>
<polygon fill="black" stroke="black" points="507.83,-129.3 517.83,-125.8 507.83,-122.3 507.83,-129.3"/>
</g>
<!-- StimLibSocketModule -->
<g id="node3" class="node">
<title>StimLibSocketModule</title>
<polygon fill="#8dd3c7" stroke="black" points="167.55,-84.8 164.55,-88.8 143.55,-88.8 140.55,-84.8 24.45,-84.8 24.45,-48.8 167.55,-48.8 167.55,-84.8"/>
<text text-anchor="middle" x="96" y="-62.6" font-family="Times,serif" font-size="14.00">StimLibSocketModule</text>
</g>
<!-- StimLibSocketModule&#45;&gt;StimFeaturePlayerApplicationModule -->
<g id="edge3" class="edge">
<title>StimLibSocketModule&#45;&gt;StimFeaturePlayerApplicationModule</title>
<path fill="none" stroke="black" d="M96,-85.08C96,-106.12 96,-137.8 96,-137.8 96,-137.8 508.13,-137.8 508.13,-137.8"/>
<polygon fill="black" stroke="black" points="508.13,-141.3 518.13,-137.8 508.13,-134.3 508.13,-141.3"/>
</g>
<!-- ExperimentResultsSaga -->
<g id="node5" class="node">
<title>ExperimentResultsSaga</title>
<ellipse fill="#fdb462" stroke="black" cx="1117" cy="-66.8" rx="103.09" ry="18"/>
<text text-anchor="middle" x="1117" y="-62.6" font-family="Times,serif" font-size="14.00">ExperimentResultsSaga</text>
</g>
<!-- ExperimentResultsSaga&#45;&gt;StimFeaturePlayerApplicationModule -->
<g id="edge4" class="edge">
<title>ExperimentResultsSaga&#45;&gt;StimFeaturePlayerApplicationModule</title>
<path fill="none" stroke="black" d="M1117,-85.08C1117,-106.12 1117,-137.8 1117,-137.8 1117,-137.8 758.01,-137.8 758.01,-137.8"/>
<polygon fill="black" stroke="black" points="758.01,-134.3 748.01,-137.8 758.01,-141.3 758.01,-134.3"/>
</g>
<!-- PlayerService -->
<g id="node6" class="node">
<title>PlayerService</title>
<ellipse fill="#fdb462" stroke="black" cx="931" cy="-66.8" rx="64.82" ry="18"/>
<text text-anchor="middle" x="931" y="-62.6" font-family="Times,serif" font-size="14.00">PlayerService</text>
</g>
<!-- PlayerService&#45;&gt;StimFeaturePlayerApplicationModule -->
<g id="edge5" class="edge">
<title>PlayerService&#45;&gt;StimFeaturePlayerApplicationModule</title>
<path fill="none" stroke="black" d="M931,-84.82C931,-102.17 931,-125.8 931,-125.8 931,-125.8 758.21,-125.8 758.21,-125.8"/>
<polygon fill="black" stroke="black" points="758.21,-122.3 748.21,-125.8 758.21,-129.3 758.21,-122.3"/>
</g>
<!-- StopConditionsService -->
<g id="node7" class="node">
<title>StopConditionsService</title>
<ellipse fill="#fdb462" stroke="black" cx="748" cy="-66.8" rx="100.18" ry="18"/>
<text text-anchor="middle" x="748" y="-62.6" font-family="Times,serif" font-size="14.00">StopConditionsService</text>
</g>
<!-- StopConditionsService&#45;&gt;StimFeaturePlayerApplicationModule -->
<g id="edge6" class="edge">
<title>StopConditionsService&#45;&gt;StimFeaturePlayerApplicationModule</title>
<path fill="none" stroke="black" d="M697.92,-82.53C697.92,-82.53 697.92,-103.45 697.92,-103.45"/>
<polygon fill="black" stroke="black" points="694.42,-103.45 697.92,-113.45 701.42,-103.45 694.42,-103.45"/>
</g>
</g>
</svg>
