<?xml version="1.0" encoding="UTF-8" standalone="no"?>
<!DOCTYPE svg PUBLIC "-//W3C//DTD SVG 1.1//EN"
 "http://www.w3.org/Graphics/SVG/1.1/DTD/svg11.dtd">
<!-- Generated by graphviz version 2.47.3 (20210619.1520)
 -->
<!-- Title: dependencies Pages: 1 -->
<svg width="1252pt" height="174pt"
 viewBox="0.00 0.00 1252.00 173.80" xmlns="http://www.w3.org/2000/svg" xmlns:xlink="http://www.w3.org/1999/xlink">
<g id="graph0" class="graph" transform="scale(1 1) rotate(0) translate(4 169.8)">
<title>dependencies</title>
<polygon fill="white" stroke="transparent" points="-4,4 -4,-169.8 1248,-169.8 1248,4 -4,4"/>
<text text-anchor="middle" x="622" y="-8.2" font-family="sans-serif" font-size="14.00">dependencies</text>
<g id="clust1" class="cluster">
<title>cluster_StimFeaturePlayerApplicationModule</title>
<polygon fill="none" stroke="black" stroke-dasharray="1,5" points="8,-32.8 8,-157.8 1236,-157.8 1236,-32.8 8,-32.8"/>
</g>
<g id="clust3" class="cluster">
<title>cluster_StimFeaturePlayerApplicationModule_imports</title>
<polygon fill="none" stroke="black" points="612,-40.8 612,-92.8 1228,-92.8 1228,-40.8 612,-40.8"/>
</g>
<g id="clust6" class="cluster">
<title>cluster_StimFeaturePlayerApplicationModule_providers</title>
<polygon fill="none" stroke="black" points="16,-40.8 16,-92.8 604,-92.8 604,-40.8 16,-40.8"/>
</g>
<!-- StimFeatureIpcApplicationModule -->
<g id="node1" class="node">
<title>StimFeatureIpcApplicationModule</title>
<polygon fill="#8dd3c7" stroke="black" points="1219.96,-84.8 1216.96,-88.8 1195.96,-88.8 1192.96,-84.8 1008.04,-84.8 1008.04,-48.8 1219.96,-48.8 1219.96,-84.8"/>
<text text-anchor="middle" x="1114" y="-62.6" font-family="Times,serif" font-size="14.00">StimFeatureIpcApplicationModule</text>
</g>
<!-- StimFeaturePlayerApplicationModule -->
<g id="node4" class="node">
<title>StimFeaturePlayerApplicationModule</title>
<polygon fill="#8dd3c7" stroke="black" points="706.84,-149.8 703.84,-153.8 682.84,-153.8 679.84,-149.8 477.16,-149.8 477.16,-113.8 706.84,-113.8 706.84,-149.8"/>
<text text-anchor="middle" x="592" y="-127.6" font-family="Times,serif" font-size="14.00">StimFeaturePlayerApplicationModule</text>
</g>
<!-- StimFeatureIpcApplicationModule&#45;&gt;StimFeaturePlayerApplicationModule -->
<g id="edge1" class="edge">
<title>StimFeatureIpcApplicationModule&#45;&gt;StimFeaturePlayerApplicationModule</title>
<path fill="none" stroke="black" d="M1114,-85.08C1114,-106.12 1114,-137.8 1114,-137.8 1114,-137.8 716.88,-137.8 716.88,-137.8"/>
<polygon fill="black" stroke="black" points="716.88,-134.3 706.88,-137.8 716.88,-141.3 716.88,-134.3"/>
</g>
<!-- StimFeaturePlayerDomainModule -->
<g id="node2" class="node">
<title>StimFeaturePlayerDomainModule</title>
<polygon fill="#8dd3c7" stroke="black" points="990.35,-84.8 987.35,-88.8 966.35,-88.8 963.35,-84.8 781.65,-84.8 781.65,-48.8 990.35,-48.8 990.35,-84.8"/>
<text text-anchor="middle" x="886" y="-62.6" font-family="Times,serif" font-size="14.00">StimFeaturePlayerDomainModule</text>
</g>
<!-- StimFeaturePlayerDomainModule&#45;&gt;StimFeaturePlayerApplicationModule -->
<g id="edge2" class="edge">
<title>StimFeaturePlayerDomainModule&#45;&gt;StimFeaturePlayerApplicationModule</title>
<path fill="none" stroke="black" d="M886,-84.82C886,-102.17 886,-125.8 886,-125.8 886,-125.8 716.93,-125.8 716.93,-125.8"/>
<polygon fill="black" stroke="black" points="716.93,-122.3 706.93,-125.8 716.93,-129.3 716.93,-122.3"/>
</g>
<!-- StimLibSocketModule -->
<g id="node3" class="node">
<title>StimLibSocketModule</title>
<polygon fill="#8dd3c7" stroke="black" points="763.55,-84.8 760.55,-88.8 739.55,-88.8 736.55,-84.8 620.45,-84.8 620.45,-48.8 763.55,-48.8 763.55,-84.8"/>
<text text-anchor="middle" x="692" y="-62.6" font-family="Times,serif" font-size="14.00">StimLibSocketModule</text>
</g>
<!-- StimLibSocketModule&#45;&gt;StimFeaturePlayerApplicationModule -->
<g id="edge3" class="edge">
<title>StimLibSocketModule&#45;&gt;StimFeaturePlayerApplicationModule</title>
<path fill="none" stroke="black" d="M663.57,-84.91C663.57,-84.91 663.57,-103.79 663.57,-103.79"/>
<polygon fill="black" stroke="black" points="660.07,-103.79 663.57,-113.79 667.07,-103.79 660.07,-103.79"/>
</g>
<!-- ExperimentResultsSaga -->
<g id="node5" class="node">
<title>ExperimentResultsSaga</title>
<ellipse fill="#fdb462" stroke="black" cx="493" cy="-66.8" rx="103.09" ry="18"/>
<text text-anchor="middle" x="493" y="-62.6" font-family="Times,serif" font-size="14.00">ExperimentResultsSaga</text>
</g>
<!-- ExperimentResultsSaga&#45;&gt;StimFeaturePlayerApplicationModule -->
<g id="edge4" class="edge">
<title>ExperimentResultsSaga&#45;&gt;StimFeaturePlayerApplicationModule</title>
<path fill="none" stroke="black" d="M536.69,-83.2C536.69,-83.2 536.69,-103.34 536.69,-103.34"/>
<polygon fill="black" stroke="black" points="533.19,-103.34 536.69,-113.34 540.19,-103.34 533.19,-103.34"/>
</g>
<!-- PlayerService -->
<g id="node6" class="node">
<title>PlayerService</title>
<ellipse fill="#fdb462" stroke="black" cx="307" cy="-66.8" rx="64.82" ry="18"/>
<text text-anchor="middle" x="307" y="-62.6" font-family="Times,serif" font-size="14.00">PlayerService</text>
</g>
<!-- PlayerService&#45;&gt;StimFeaturePlayerApplicationModule -->
<g id="edge5" class="edge">
<title>PlayerService&#45;&gt;StimFeaturePlayerApplicationModule</title>
<path fill="none" stroke="black" d="M307,-84.82C307,-102.17 307,-125.8 307,-125.8 307,-125.8 466.9,-125.8 466.9,-125.8"/>
<polygon fill="black" stroke="black" points="466.9,-129.3 476.9,-125.8 466.9,-122.3 466.9,-129.3"/>
</g>
<!-- StopConditionsService -->
<g id="node7" class="node">
<title>StopConditionsService</title>
<ellipse fill="#fdb462" stroke="black" cx="124" cy="-66.8" rx="100.18" ry="18"/>
<text text-anchor="middle" x="124" y="-62.6" font-family="Times,serif" font-size="14.00">StopConditionsService</text>
</g>
<!-- StopConditionsService&#45;&gt;StimFeaturePlayerApplicationModule -->
<g id="edge6" class="edge">
<title>StopConditionsService&#45;&gt;StimFeaturePlayerApplicationModule</title>
<path fill="none" stroke="black" d="M124,-85.08C124,-106.12 124,-137.8 124,-137.8 124,-137.8 466.91,-137.8 466.91,-137.8"/>
<polygon fill="black" stroke="black" points="466.91,-141.3 476.91,-137.8 466.91,-134.3 466.91,-141.3"/>
</g>
</g>
</svg>
