<?xml version="1.0" encoding="UTF-8" standalone="no"?>
<!DOCTYPE svg PUBLIC "-//W3C//DTD SVG 1.1//EN"
 "http://www.w3.org/Graphics/SVG/1.1/DTD/svg11.dtd">
<!-- Generated by graphviz version 2.47.3 (20210619.1520)
 -->
<!-- Title: dependencies Pages: 1 -->
<svg width="1028pt" height="174pt"
 viewBox="0.00 0.00 1028.00 173.80" xmlns="http://www.w3.org/2000/svg" xmlns:xlink="http://www.w3.org/1999/xlink">
<g id="graph0" class="graph" transform="scale(1 1) rotate(0) translate(4 169.8)">
<title>dependencies</title>
<polygon fill="white" stroke="transparent" points="-4,4 -4,-169.8 1024,-169.8 1024,4 -4,4"/>
<text text-anchor="middle" x="510" y="-8.2" font-family="sans-serif" font-size="14.00">dependencies</text>
<g id="clust1" class="cluster">
<title>cluster_StimFeaturePlayerApplicationModule</title>
<polygon fill="none" stroke="black" stroke-dasharray="1,5" points="8,-32.8 8,-157.8 1012,-157.8 1012,-32.8 8,-32.8"/>
</g>
<g id="clust6" class="cluster">
<title>cluster_StimFeaturePlayerApplicationModule_providers</title>
<polygon fill="none" stroke="black" points="640,-40.8 640,-92.8 1004,-92.8 1004,-40.8 640,-40.8"/>
</g>
<g id="clust3" class="cluster">
<title>cluster_StimFeaturePlayerApplicationModule_imports</title>
<polygon fill="none" stroke="black" points="16,-40.8 16,-92.8 632,-92.8 632,-40.8 16,-40.8"/>
</g>
<!-- StimFeatureIpcApplicationModule -->
<g id="node1" class="node">
<title>StimFeatureIpcApplicationModule</title>
<polygon fill="#8dd3c7" stroke="black" points="623.96,-84.8 620.96,-88.8 599.96,-88.8 596.96,-84.8 412.04,-84.8 412.04,-48.8 623.96,-48.8 623.96,-84.8"/>
<text text-anchor="middle" x="518" y="-62.6" font-family="Times,serif" font-size="14.00">StimFeatureIpcApplicationModule</text>
</g>
<!-- StimFeaturePlayerApplicationModule -->
<g id="node4" class="node">
<title>StimFeaturePlayerApplicationModule</title>
<polygon fill="#8dd3c7" stroke="black" points="632.84,-149.8 629.84,-153.8 608.84,-153.8 605.84,-149.8 403.16,-149.8 403.16,-113.8 632.84,-113.8 632.84,-149.8"/>
<text text-anchor="middle" x="518" y="-127.6" font-family="Times,serif" font-size="14.00">StimFeaturePlayerApplicationModule</text>
</g>
<!-- StimFeatureIpcApplicationModule&#45;&gt;StimFeaturePlayerApplicationModule -->
<g id="edge1" class="edge">
<title>StimFeatureIpcApplicationModule&#45;&gt;StimFeaturePlayerApplicationModule</title>
<path fill="none" stroke="black" d="M518,-84.91C518,-84.91 518,-103.79 518,-103.79"/>
<polygon fill="black" stroke="black" points="514.5,-103.79 518,-113.79 521.5,-103.79 514.5,-103.79"/>
</g>
<!-- StimFeaturePlayerDomainModule -->
<g id="node2" class="node">
<title>StimFeaturePlayerDomainModule</title>
<polygon fill="#8dd3c7" stroke="black" points="394.35,-84.8 391.35,-88.8 370.35,-88.8 367.35,-84.8 185.65,-84.8 185.65,-48.8 394.35,-48.8 394.35,-84.8"/>
<text text-anchor="middle" x="290" y="-62.6" font-family="Times,serif" font-size="14.00">StimFeaturePlayerDomainModule</text>
</g>
<!-- StimFeaturePlayerDomainModule&#45;&gt;StimFeaturePlayerApplicationModule -->
<g id="edge2" class="edge">
<title>StimFeaturePlayerDomainModule&#45;&gt;StimFeaturePlayerApplicationModule</title>
<path fill="none" stroke="black" d="M394.52,-66.8C402.51,-66.8 407.55,-66.8 407.55,-66.8 407.55,-66.8 407.55,-103.69 407.55,-103.69"/>
<polygon fill="black" stroke="black" points="404.05,-103.69 407.55,-113.69 411.05,-103.69 404.05,-103.69"/>
</g>
<!-- StimLibSocketModule -->
<g id="node3" class="node">
<title>StimLibSocketModule</title>
<polygon fill="#8dd3c7" stroke="black" points="167.55,-84.8 164.55,-88.8 143.55,-88.8 140.55,-84.8 24.45,-84.8 24.45,-48.8 167.55,-48.8 167.55,-84.8"/>
<text text-anchor="middle" x="96" y="-62.6" font-family="Times,serif" font-size="14.00">StimLibSocketModule</text>
</g>
<!-- StimLibSocketModule&#45;&gt;StimFeaturePlayerApplicationModule -->
<g id="edge3" class="edge">
<title>StimLibSocketModule&#45;&gt;StimFeaturePlayerApplicationModule</title>
<path fill="none" stroke="black" d="M96,-84.91C96,-104.14 96,-131.8 96,-131.8 96,-131.8 392.97,-131.8 392.97,-131.8"/>
<polygon fill="black" stroke="black" points="392.97,-135.3 402.97,-131.8 392.97,-128.3 392.97,-135.3"/>
</g>
<!-- PlayerService -->
<g id="node5" class="node">
<title>PlayerService</title>
<ellipse fill="#fdb462" stroke="black" cx="931" cy="-66.8" rx="64.82" ry="18"/>
<text text-anchor="middle" x="931" y="-62.6" font-family="Times,serif" font-size="14.00">PlayerService</text>
</g>
<!-- PlayerService&#45;&gt;StimFeaturePlayerApplicationModule -->
<g id="edge4" class="edge">
<title>PlayerService&#45;&gt;StimFeaturePlayerApplicationModule</title>
<path fill="none" stroke="black" d="M931,-84.91C931,-104.14 931,-131.8 931,-131.8 931,-131.8 643.04,-131.8 643.04,-131.8"/>
<polygon fill="black" stroke="black" points="643.04,-128.3 633.04,-131.8 643.04,-135.3 643.04,-128.3"/>
</g>
<!-- StopConditionsService -->
<g id="node6" class="node">
<title>StopConditionsService</title>
<ellipse fill="#fdb462" stroke="black" cx="748" cy="-66.8" rx="100.18" ry="18"/>
<text text-anchor="middle" x="748" y="-62.6" font-family="Times,serif" font-size="14.00">StopConditionsService</text>
</g>
<!-- StopConditionsService&#45;&gt;StimFeaturePlayerApplicationModule -->
<g id="edge5" class="edge">
<title>StopConditionsService&#45;&gt;StimFeaturePlayerApplicationModule</title>
<path fill="none" stroke="black" d="M647.66,-66.8C636.16,-66.8 628.45,-66.8 628.45,-66.8 628.45,-66.8 628.45,-103.69 628.45,-103.69"/>
<polygon fill="black" stroke="black" points="624.95,-103.69 628.45,-113.69 631.95,-103.69 624.95,-103.69"/>
</g>
</g>
</svg>
