<?xml version="1.0" encoding="UTF-8" standalone="no"?>
<!DOCTYPE svg PUBLIC "-//W3C//DTD SVG 1.1//EN"
 "http://www.w3.org/Graphics/SVG/1.1/DTD/svg11.dtd">
<!-- Generated by graphviz version 2.47.3 (20210619.1520)
 -->
<!-- Title: dependencies Pages: 1 -->
<svg width="474pt" height="174pt"
 viewBox="0.00 0.00 474.00 173.80" xmlns="http://www.w3.org/2000/svg" xmlns:xlink="http://www.w3.org/1999/xlink">
<g id="graph0" class="graph" transform="scale(1 1) rotate(0) translate(4 169.8)">
<title>dependencies</title>
<polygon fill="white" stroke="transparent" points="-4,4 -4,-169.8 470,-169.8 470,4 -4,4"/>
<text text-anchor="middle" x="233" y="-8.2" font-family="sans-serif" font-size="14.00">dependencies</text>
<g id="clust1" class="cluster">
<title>cluster_StimFeatureExperimentResultsDomainModule</title>
<polygon fill="none" stroke="black" stroke-dasharray="1,5" points="8,-32.8 8,-157.8 458,-157.8 458,-32.8 8,-32.8"/>
</g>
<g id="clust6" class="cluster">
<title>cluster_StimFeatureExperimentResultsDomainModule_providers</title>
<polygon fill="none" stroke="black" points="16,-40.8 16,-92.8 450,-92.8 450,-40.8 16,-40.8"/>
</g>
<!-- RefreshTokenRepository -->
<g id="node1" class="node">
<title>RefreshTokenRepository</title>
<ellipse fill="#fdb462" stroke="black" cx="334" cy="-66.8" rx="108.23" ry="18"/>
<text text-anchor="middle" x="334" y="-62.6" font-family="Times,serif" font-size="14.00">RefreshTokenRepository</text>
</g>
<!-- StimFeatureExperimentResultsDomainModule -->
<g id="node3" class="node">
<title>StimFeatureExperimentResultsDomainModule</title>
<polygon fill="#8dd3c7" stroke="black" points="372.62,-149.8 369.62,-153.8 348.62,-153.8 345.62,-149.8 93.38,-149.8 93.38,-113.8 372.62,-113.8 372.62,-149.8"/>
<text text-anchor="middle" x="233" y="-127.6" font-family="Times,serif" font-size="14.00">StimFeatureExperimentResultsDomainModule</text>
</g>
<!-- RefreshTokenRepository&#45;&gt;StimFeatureExperimentResultsDomainModule -->
<g id="edge1" class="edge">
<title>RefreshTokenRepository&#45;&gt;StimFeatureExperimentResultsDomainModule</title>
<path fill="none" stroke="black" d="M299.35,-83.88C299.35,-83.88 299.35,-103.7 299.35,-103.7"/>
<polygon fill="black" stroke="black" points="295.85,-103.7 299.35,-113.7 302.85,-103.7 295.85,-103.7"/>
</g>
<!-- RefreshTokenSeeder -->
<g id="node2" class="node">
<title>RefreshTokenSeeder</title>
<ellipse fill="#fdb462" stroke="black" cx="116" cy="-66.8" rx="92.01" ry="18"/>
<text text-anchor="middle" x="116" y="-62.6" font-family="Times,serif" font-size="14.00">RefreshTokenSeeder</text>
</g>
<!-- RefreshTokenSeeder&#45;&gt;StimFeatureExperimentResultsDomainModule -->
<g id="edge2" class="edge">
<title>RefreshTokenSeeder&#45;&gt;StimFeatureExperimentResultsDomainModule</title>
<path fill="none" stroke="black" d="M150.6,-83.54C150.6,-83.54 150.6,-103.52 150.6,-103.52"/>
<polygon fill="black" stroke="black" points="147.1,-103.52 150.6,-113.52 154.1,-103.52 147.1,-103.52"/>
</g>
</g>
</svg>
