<?xml version="1.0" encoding="UTF-8" standalone="no"?>
<!DOCTYPE svg PUBLIC "-//W3C//DTD SVG 1.1//EN"
 "http://www.w3.org/Graphics/SVG/1.1/DTD/svg11.dtd">
<!-- Generated by graphviz version 2.47.3 (20210619.1520)
 -->
<!-- Title: dependencies Pages: 1 -->
<svg width="1039pt" height="174pt"
 viewBox="0.00 0.00 1039.00 173.80" xmlns="http://www.w3.org/2000/svg" xmlns:xlink="http://www.w3.org/1999/xlink">
<g id="graph0" class="graph" transform="scale(1 1) rotate(0) translate(4 169.8)">
<title>dependencies</title>
<polygon fill="white" stroke="transparent" points="-4,4 -4,-169.8 1035,-169.8 1035,4 -4,4"/>
<text text-anchor="middle" x="515.5" y="-8.2" font-family="sans-serif" font-size="14.00">dependencies</text>
<g id="clust1" class="cluster">
<title>cluster_StimFeatureExperimentResultsDomainModule</title>
<polygon fill="none" stroke="black" stroke-dasharray="1,5" points="8,-32.8 8,-157.8 1023,-157.8 1023,-32.8 8,-32.8"/>
</g>
<g id="clust6" class="cluster">
<title>cluster_StimFeatureExperimentResultsDomainModule_providers</title>
<polygon fill="none" stroke="black" points="16,-40.8 16,-92.8 1015,-92.8 1015,-40.8 16,-40.8"/>
</g>
<!-- AclActionSeeder -->
<g id="node1" class="node">
<title>AclActionSeeder</title>
<ellipse fill="#fdb462" stroke="black" cx="929" cy="-66.8" rx="77.56" ry="18"/>
<text text-anchor="middle" x="929" y="-62.6" font-family="Times,serif" font-size="14.00">AclActionSeeder</text>
</g>
<!-- StimFeatureExperimentResultsDomainModule -->
<g id="node7" class="node">
<title>StimFeatureExperimentResultsDomainModule</title>
<polygon fill="#8dd3c7" stroke="black" points="614.62,-149.8 611.62,-153.8 590.62,-153.8 587.62,-149.8 335.38,-149.8 335.38,-113.8 614.62,-113.8 614.62,-149.8"/>
<text text-anchor="middle" x="475" y="-127.6" font-family="Times,serif" font-size="14.00">StimFeatureExperimentResultsDomainModule</text>
</g>
<!-- AclActionSeeder&#45;&gt;StimFeatureExperimentResultsDomainModule -->
<g id="edge1" class="edge">
<title>AclActionSeeder&#45;&gt;StimFeatureExperimentResultsDomainModule</title>
<path fill="none" stroke="black" d="M929,-85.08C929,-106.12 929,-137.8 929,-137.8 929,-137.8 624.92,-137.8 624.92,-137.8"/>
<polygon fill="black" stroke="black" points="624.92,-134.3 614.92,-137.8 624.92,-141.3 624.92,-134.3"/>
</g>
<!-- AclPossessionSeeder -->
<g id="node2" class="node">
<title>AclPossessionSeeder</title>
<ellipse fill="#fdb462" stroke="black" cx="740" cy="-66.8" rx="93.19" ry="18"/>
<text text-anchor="middle" x="740" y="-62.6" font-family="Times,serif" font-size="14.00">AclPossessionSeeder</text>
</g>
<!-- AclPossessionSeeder&#45;&gt;StimFeatureExperimentResultsDomainModule -->
<g id="edge2" class="edge">
<title>AclPossessionSeeder&#45;&gt;StimFeatureExperimentResultsDomainModule</title>
<path fill="none" stroke="black" d="M740,-84.82C740,-102.17 740,-125.8 740,-125.8 740,-125.8 624.87,-125.8 624.87,-125.8"/>
<polygon fill="black" stroke="black" points="624.87,-122.3 614.87,-125.8 624.87,-129.3 624.87,-122.3"/>
</g>
<!-- AclRepository -->
<g id="node3" class="node">
<title>AclRepository</title>
<ellipse fill="#fdb462" stroke="black" cx="562" cy="-66.8" rx="67.21" ry="18"/>
<text text-anchor="middle" x="562" y="-62.6" font-family="Times,serif" font-size="14.00">AclRepository</text>
</g>
<!-- AclRepository&#45;&gt;StimFeatureExperimentResultsDomainModule -->
<g id="edge3" class="edge">
<title>AclRepository&#45;&gt;StimFeatureExperimentResultsDomainModule</title>
<path fill="none" stroke="black" d="M554.73,-84.91C554.73,-84.91 554.73,-103.79 554.73,-103.79"/>
<polygon fill="black" stroke="black" points="551.23,-103.79 554.73,-113.79 558.23,-103.79 551.23,-103.79"/>
</g>
<!-- AclResourceSeeder -->
<g id="node4" class="node">
<title>AclResourceSeeder</title>
<ellipse fill="#fdb462" stroke="black" cx="389" cy="-66.8" rx="87.36" ry="18"/>
<text text-anchor="middle" x="389" y="-62.6" font-family="Times,serif" font-size="14.00">AclResourceSeeder</text>
</g>
<!-- AclResourceSeeder&#45;&gt;StimFeatureExperimentResultsDomainModule -->
<g id="edge4" class="edge">
<title>AclResourceSeeder&#45;&gt;StimFeatureExperimentResultsDomainModule</title>
<path fill="none" stroke="black" d="M405.68,-84.56C405.68,-84.56 405.68,-103.61 405.68,-103.61"/>
<polygon fill="black" stroke="black" points="402.18,-103.61 405.68,-113.61 409.18,-103.61 402.18,-103.61"/>
</g>
<!-- AclRoleSeeder -->
<g id="node5" class="node">
<title>AclRoleSeeder</title>
<ellipse fill="#fdb462" stroke="black" cx="214" cy="-66.8" rx="69.48" ry="18"/>
<text text-anchor="middle" x="214" y="-62.6" font-family="Times,serif" font-size="14.00">AclRoleSeeder</text>
</g>
<!-- AclRoleSeeder&#45;&gt;StimFeatureExperimentResultsDomainModule -->
<g id="edge5" class="edge">
<title>AclRoleSeeder&#45;&gt;StimFeatureExperimentResultsDomainModule</title>
<path fill="none" stroke="black" d="M214,-84.82C214,-102.17 214,-125.8 214,-125.8 214,-125.8 325.33,-125.8 325.33,-125.8"/>
<polygon fill="black" stroke="black" points="325.33,-129.3 335.33,-125.8 325.33,-122.3 325.33,-129.3"/>
</g>
<!-- AclSeeder -->
<g id="node6" class="node">
<title>AclSeeder</title>
<ellipse fill="#fdb462" stroke="black" cx="75" cy="-66.8" rx="51.5" ry="18"/>
<text text-anchor="middle" x="75" y="-62.6" font-family="Times,serif" font-size="14.00">AclSeeder</text>
</g>
<!-- AclSeeder&#45;&gt;StimFeatureExperimentResultsDomainModule -->
<g id="edge6" class="edge">
<title>AclSeeder&#45;&gt;StimFeatureExperimentResultsDomainModule</title>
<path fill="none" stroke="black" d="M75,-85.08C75,-106.12 75,-137.8 75,-137.8 75,-137.8 325.1,-137.8 325.1,-137.8"/>
<polygon fill="black" stroke="black" points="325.1,-141.3 335.1,-137.8 325.1,-134.3 325.1,-141.3"/>
</g>
</g>
</svg>
