<?xml version="1.0" encoding="UTF-8" standalone="no"?>
<!DOCTYPE svg PUBLIC "-//W3C//DTD SVG 1.1//EN"
 "http://www.w3.org/Graphics/SVG/1.1/DTD/svg11.dtd">
<!-- Generated by graphviz version 2.47.3 (20210619.1520)
 -->
<!-- Title: dependencies Pages: 1 -->
<svg width="320pt" height="174pt"
 viewBox="0.00 0.00 320.00 173.80" xmlns="http://www.w3.org/2000/svg" xmlns:xlink="http://www.w3.org/1999/xlink">
<g id="graph0" class="graph" transform="scale(1 1) rotate(0) translate(4 169.8)">
<title>dependencies</title>
<polygon fill="white" stroke="transparent" points="-4,4 -4,-169.8 316,-169.8 316,4 -4,4"/>
<text text-anchor="middle" x="156" y="-8.2" font-family="sans-serif" font-size="14.00">dependencies</text>
<g id="clust1" class="cluster">
<title>cluster_StimFeatureExperimentResultsDomainModule</title>
<polygon fill="none" stroke="black" stroke-dasharray="1,5" points="8,-32.8 8,-157.8 304,-157.8 304,-32.8 8,-32.8"/>
</g>
<g id="clust6" class="cluster">
<title>cluster_StimFeatureExperimentResultsDomainModule_providers</title>
<polygon fill="none" stroke="black" points="41,-40.8 41,-92.8 271,-92.8 271,-40.8 41,-40.8"/>
</g>
<!-- ExperimentResultSeeder -->
<g id="node1" class="node">
<title>ExperimentResultSeeder</title>
<ellipse fill="#fdb462" stroke="black" cx="156" cy="-66.8" rx="107.08" ry="18"/>
<text text-anchor="middle" x="156" y="-62.6" font-family="Times,serif" font-size="14.00">ExperimentResultSeeder</text>
</g>
<!-- StimFeatureExperimentResultsDomainModule -->
<g id="node2" class="node">
<title>StimFeatureExperimentResultsDomainModule</title>
<polygon fill="#8dd3c7" stroke="black" points="295.62,-149.8 292.62,-153.8 271.62,-153.8 268.62,-149.8 16.38,-149.8 16.38,-113.8 295.62,-113.8 295.62,-149.8"/>
<text text-anchor="middle" x="156" y="-127.6" font-family="Times,serif" font-size="14.00">StimFeatureExperimentResultsDomainModule</text>
</g>
<!-- ExperimentResultSeeder&#45;&gt;StimFeatureExperimentResultsDomainModule -->
<g id="edge1" class="edge">
<title>ExperimentResultSeeder&#45;&gt;StimFeatureExperimentResultsDomainModule</title>
<path fill="none" stroke="black" d="M156,-84.91C156,-84.91 156,-103.79 156,-103.79"/>
<polygon fill="black" stroke="black" points="152.5,-103.79 156,-113.79 159.5,-103.79 152.5,-103.79"/>
</g>
</g>
</svg>
