<?xml version="1.0" encoding="UTF-8" standalone="no"?>
<!DOCTYPE svg PUBLIC "-//W3C//DTD SVG 1.1//EN"
 "http://www.w3.org/Graphics/SVG/1.1/DTD/svg11.dtd">
<!-- Generated by graphviz version 2.47.3 (20210619.1520)
 -->
<!-- Title: dependencies Pages: 1 -->
<svg width="410pt" height="247pt"
 viewBox="0.00 0.00 410.00 246.80" xmlns="http://www.w3.org/2000/svg" xmlns:xlink="http://www.w3.org/1999/xlink">
<g id="graph0" class="graph" transform="scale(1 1) rotate(0) translate(4 242.8)">
<title>dependencies</title>
<polygon fill="white" stroke="transparent" points="-4,4 -4,-242.8 406,-242.8 406,4 -4,4"/>
<text text-anchor="middle" x="201" y="-8.2" font-family="sans-serif" font-size="14.00">dependencies</text>
<g id="clust1" class="cluster">
<title>cluster_StimLibSocketModule</title>
<polygon fill="none" stroke="black" stroke-dasharray="1,5" points="8,-32.8 8,-230.8 394,-230.8 394,-32.8 8,-32.8"/>
</g>
<g id="clust6" class="cluster">
<title>cluster_StimLibSocketModule_providers</title>
<polygon fill="none" stroke="black" points="16,-40.8 16,-92.8 386,-92.8 386,-40.8 16,-40.8"/>
</g>
<g id="clust4" class="cluster">
<title>cluster_StimLibSocketModule_exports</title>
<polygon fill="none" stroke="black" points="125,-170.8 125,-222.8 239,-222.8 239,-170.8 125,-170.8"/>
</g>
<!-- SocketFacade  -->
<g id="node1" class="node">
<title>SocketFacade </title>
<polygon fill="#fb8072" stroke="black" points="230.74,-214.8 133.26,-214.8 133.26,-178.8 230.74,-178.8 230.74,-214.8"/>
<text text-anchor="middle" x="182" y="-192.6" font-family="Times,serif" font-size="14.00">SocketFacade </text>
</g>
<!-- StimLibSocketModule -->
<g id="node2" class="node">
<title>StimLibSocketModule</title>
<polygon fill="#8dd3c7" stroke="black" points="253.55,-149.8 250.55,-153.8 229.55,-153.8 226.55,-149.8 110.45,-149.8 110.45,-113.8 253.55,-113.8 253.55,-149.8"/>
<text text-anchor="middle" x="182" y="-127.6" font-family="Times,serif" font-size="14.00">StimLibSocketModule</text>
</g>
<!-- StimLibSocketModule&#45;&gt;SocketFacade  -->
<g id="edge1" class="edge">
<title>StimLibSocketModule&#45;&gt;SocketFacade </title>
<path fill="none" stroke="black" stroke-dasharray="5,2" d="M182,-149.91C182,-149.91 182,-168.79 182,-168.79"/>
<polygon fill="black" stroke="black" points="178.5,-168.79 182,-178.79 185.5,-168.79 178.5,-168.79"/>
</g>
<!-- ExperimentResultsSaga -->
<g id="node3" class="node">
<title>ExperimentResultsSaga</title>
<ellipse fill="#fdb462" stroke="black" cx="275" cy="-66.8" rx="103.09" ry="18"/>
<text text-anchor="middle" x="275" y="-62.6" font-family="Times,serif" font-size="14.00">ExperimentResultsSaga</text>
</g>
<!-- ExperimentResultsSaga&#45;&gt;StimLibSocketModule -->
<g id="edge2" class="edge">
<title>ExperimentResultsSaga&#45;&gt;StimLibSocketModule</title>
<path fill="none" stroke="black" d="M212.74,-81.23C212.74,-81.23 212.74,-103.69 212.74,-103.69"/>
<polygon fill="black" stroke="black" points="209.24,-103.69 212.74,-113.69 216.24,-103.69 209.24,-103.69"/>
</g>
<!-- SocketFacade -->
<g id="node4" class="node">
<title>SocketFacade</title>
<ellipse fill="#fdb462" stroke="black" cx="89" cy="-66.8" rx="64.83" ry="18"/>
<text text-anchor="middle" x="89" y="-62.6" font-family="Times,serif" font-size="14.00">SocketFacade</text>
</g>
<!-- SocketFacade&#45;&gt;StimLibSocketModule -->
<g id="edge3" class="edge">
<title>SocketFacade&#45;&gt;StimLibSocketModule</title>
<path fill="none" stroke="black" d="M131.94,-80.27C131.94,-80.27 131.94,-103.66 131.94,-103.66"/>
<polygon fill="black" stroke="black" points="128.44,-103.66 131.94,-113.66 135.44,-103.66 128.44,-103.66"/>
</g>
</g>
</svg>
