<?xml version="1.0" encoding="UTF-8" standalone="no"?>
<!DOCTYPE svg PUBLIC "-//W3C//DTD SVG 1.1//EN"
 "http://www.w3.org/Graphics/SVG/1.1/DTD/svg11.dtd">
<!-- Generated by graphviz version 2.47.3 (20210619.1520)
 -->
<!-- Title: dependencies Pages: 1 -->
<svg width="186pt" height="247pt"
 viewBox="0.00 0.00 186.00 246.80" xmlns="http://www.w3.org/2000/svg" xmlns:xlink="http://www.w3.org/1999/xlink">
<g id="graph0" class="graph" transform="scale(1 1) rotate(0) translate(4 242.8)">
<title>dependencies</title>
<polygon fill="white" stroke="transparent" points="-4,4 -4,-242.8 182,-242.8 182,4 -4,4"/>
<text text-anchor="middle" x="89" y="-8.2" font-family="sans-serif" font-size="14.00">dependencies</text>
<g id="clust1" class="cluster">
<title>cluster_StimLibSocketModule</title>
<polygon fill="none" stroke="black" stroke-dasharray="1,5" points="8,-32.8 8,-230.8 170,-230.8 170,-32.8 8,-32.8"/>
</g>
<g id="clust6" class="cluster">
<title>cluster_StimLibSocketModule_providers</title>
<polygon fill="none" stroke="black" points="16,-40.8 16,-92.8 162,-92.8 162,-40.8 16,-40.8"/>
</g>
<g id="clust4" class="cluster">
<title>cluster_StimLibSocketModule_exports</title>
<polygon fill="none" stroke="black" points="32,-170.8 32,-222.8 146,-222.8 146,-170.8 32,-170.8"/>
</g>
<!-- SocketFacade  -->
<g id="node1" class="node">
<title>SocketFacade </title>
<polygon fill="#fb8072" stroke="black" points="137.74,-214.8 40.26,-214.8 40.26,-178.8 137.74,-178.8 137.74,-214.8"/>
<text text-anchor="middle" x="89" y="-192.6" font-family="Times,serif" font-size="14.00">SocketFacade </text>
</g>
<!-- StimLibSocketModule -->
<g id="node2" class="node">
<title>StimLibSocketModule</title>
<polygon fill="#8dd3c7" stroke="black" points="160.55,-149.8 157.55,-153.8 136.55,-153.8 133.55,-149.8 17.45,-149.8 17.45,-113.8 160.55,-113.8 160.55,-149.8"/>
<text text-anchor="middle" x="89" y="-127.6" font-family="Times,serif" font-size="14.00">StimLibSocketModule</text>
</g>
<!-- StimLibSocketModule&#45;&gt;SocketFacade  -->
<g id="edge1" class="edge">
<title>StimLibSocketModule&#45;&gt;SocketFacade </title>
<path fill="none" stroke="black" stroke-dasharray="5,2" d="M89,-149.91C89,-149.91 89,-168.79 89,-168.79"/>
<polygon fill="black" stroke="black" points="85.5,-168.79 89,-178.79 92.5,-168.79 85.5,-168.79"/>
</g>
<!-- SocketFacade -->
<g id="node3" class="node">
<title>SocketFacade</title>
<ellipse fill="#fdb462" stroke="black" cx="89" cy="-66.8" rx="64.83" ry="18"/>
<text text-anchor="middle" x="89" y="-62.6" font-family="Times,serif" font-size="14.00">SocketFacade</text>
</g>
<!-- SocketFacade&#45;&gt;StimLibSocketModule -->
<g id="edge2" class="edge">
<title>SocketFacade&#45;&gt;StimLibSocketModule</title>
<path fill="none" stroke="black" d="M89,-84.91C89,-84.91 89,-103.79 89,-103.79"/>
<polygon fill="black" stroke="black" points="85.5,-103.79 89,-113.79 92.5,-103.79 85.5,-103.79"/>
</g>
</g>
</svg>
