<?xml version="1.0" encoding="UTF-8" standalone="no"?>
<!DOCTYPE svg PUBLIC "-//W3C//DTD SVG 1.1//EN"
 "http://www.w3.org/Graphics/SVG/1.1/DTD/svg11.dtd">
<!-- Generated by graphviz version 2.47.3 (20210619.1520)
 -->
<!-- Title: dependencies Pages: 1 -->
<svg width="426pt" height="174pt"
 viewBox="0.00 0.00 426.00 173.80" xmlns="http://www.w3.org/2000/svg" xmlns:xlink="http://www.w3.org/1999/xlink">
<g id="graph0" class="graph" transform="scale(1 1) rotate(0) translate(4 169.8)">
<title>dependencies</title>
<polygon fill="white" stroke="transparent" points="-4,4 -4,-169.8 422,-169.8 422,4 -4,4"/>
<text text-anchor="middle" x="209" y="-8.2" font-family="sans-serif" font-size="14.00">dependencies</text>
<g id="clust1" class="cluster">
<title>cluster_StimFeatureUsersInfrastructureModule</title>
<polygon fill="none" stroke="black" stroke-dasharray="1,5" points="8,-32.8 8,-157.8 410,-157.8 410,-32.8 8,-32.8"/>
</g>
<g id="clust6" class="cluster">
<title>cluster_StimFeatureUsersInfrastructureModule_providers</title>
<polygon fill="none" stroke="black" points="266,-40.8 266,-92.8 402,-92.8 402,-40.8 266,-40.8"/>
</g>
<g id="clust3" class="cluster">
<title>cluster_StimFeatureUsersInfrastructureModule_imports</title>
<polygon fill="none" stroke="black" points="16,-40.8 16,-92.8 258,-92.8 258,-40.8 16,-40.8"/>
</g>
<!-- StimFeatureUsersApplicationModule -->
<g id="node1" class="node">
<title>StimFeatureUsersApplicationModule</title>
<polygon fill="#8dd3c7" stroke="black" points="249.95,-84.8 246.95,-88.8 225.95,-88.8 222.95,-84.8 24.05,-84.8 24.05,-48.8 249.95,-48.8 249.95,-84.8"/>
<text text-anchor="middle" x="137" y="-62.6" font-family="Times,serif" font-size="14.00">StimFeatureUsersApplicationModule</text>
</g>
<!-- StimFeatureUsersInfrastructureModule -->
<g id="node2" class="node">
<title>StimFeatureUsersInfrastructureModule</title>
<polygon fill="#8dd3c7" stroke="black" points="328.03,-149.8 325.03,-153.8 304.03,-153.8 301.03,-149.8 91.97,-149.8 91.97,-113.8 328.03,-113.8 328.03,-149.8"/>
<text text-anchor="middle" x="210" y="-127.6" font-family="Times,serif" font-size="14.00">StimFeatureUsersInfrastructureModule</text>
</g>
<!-- StimFeatureUsersApplicationModule&#45;&gt;StimFeatureUsersInfrastructureModule -->
<g id="edge1" class="edge">
<title>StimFeatureUsersApplicationModule&#45;&gt;StimFeatureUsersInfrastructureModule</title>
<path fill="none" stroke="black" d="M170.98,-84.91C170.98,-84.91 170.98,-103.79 170.98,-103.79"/>
<polygon fill="black" stroke="black" points="167.48,-103.79 170.98,-113.79 174.48,-103.79 167.48,-103.79"/>
</g>
<!-- UsersFacade -->
<g id="node3" class="node">
<title>UsersFacade</title>
<ellipse fill="#fdb462" stroke="black" cx="334" cy="-66.8" rx="60.23" ry="18"/>
<text text-anchor="middle" x="334" y="-62.6" font-family="Times,serif" font-size="14.00">UsersFacade</text>
</g>
<!-- UsersFacade&#45;&gt;StimFeatureUsersInfrastructureModule -->
<g id="edge2" class="edge">
<title>UsersFacade&#45;&gt;StimFeatureUsersInfrastructureModule</title>
<path fill="none" stroke="black" d="M300.82,-81.88C300.82,-81.88 300.82,-103.56 300.82,-103.56"/>
<polygon fill="black" stroke="black" points="297.32,-103.56 300.82,-113.56 304.32,-103.56 297.32,-103.56"/>
</g>
</g>
</svg>
