<?xml version="1.0" encoding="UTF-8" standalone="no"?>
<!DOCTYPE svg PUBLIC "-//W3C//DTD SVG 1.1//EN"
 "http://www.w3.org/Graphics/SVG/1.1/DTD/svg11.dtd">
<!-- Generated by graphviz version 2.47.3 (20210619.1520)
 -->
<!-- Title: dependencies Pages: 1 -->
<svg width="426pt" height="174pt"
 viewBox="0.00 0.00 426.00 173.80" xmlns="http://www.w3.org/2000/svg" xmlns:xlink="http://www.w3.org/1999/xlink">
<g id="graph0" class="graph" transform="scale(1 1) rotate(0) translate(4 169.8)">
<title>dependencies</title>
<polygon fill="white" stroke="transparent" points="-4,4 -4,-169.8 422,-169.8 422,4 -4,4"/>
<text text-anchor="middle" x="209" y="-8.2" font-family="sans-serif" font-size="14.00">dependencies</text>
<g id="clust1" class="cluster">
<title>cluster_StimFeatureUsersInfrastructureModule</title>
<polygon fill="none" stroke="black" stroke-dasharray="1,5" points="8,-32.8 8,-157.8 410,-157.8 410,-32.8 8,-32.8"/>
</g>
<g id="clust3" class="cluster">
<title>cluster_StimFeatureUsersInfrastructureModule_imports</title>
<polygon fill="none" stroke="black" points="160,-40.8 160,-92.8 402,-92.8 402,-40.8 160,-40.8"/>
</g>
<g id="clust6" class="cluster">
<title>cluster_StimFeatureUsersInfrastructureModule_providers</title>
<polygon fill="none" stroke="black" points="16,-40.8 16,-92.8 152,-92.8 152,-40.8 16,-40.8"/>
</g>
<!-- StimFeatureUsersApplicationModule -->
<g id="node1" class="node">
<title>StimFeatureUsersApplicationModule</title>
<polygon fill="#8dd3c7" stroke="black" points="393.95,-84.8 390.95,-88.8 369.95,-88.8 366.95,-84.8 168.05,-84.8 168.05,-48.8 393.95,-48.8 393.95,-84.8"/>
<text text-anchor="middle" x="281" y="-62.6" font-family="Times,serif" font-size="14.00">StimFeatureUsersApplicationModule</text>
</g>
<!-- StimFeatureUsersInfrastructureModule -->
<g id="node2" class="node">
<title>StimFeatureUsersInfrastructureModule</title>
<polygon fill="#8dd3c7" stroke="black" points="325.03,-149.8 322.03,-153.8 301.03,-153.8 298.03,-149.8 88.97,-149.8 88.97,-113.8 325.03,-113.8 325.03,-149.8"/>
<text text-anchor="middle" x="207" y="-127.6" font-family="Times,serif" font-size="14.00">StimFeatureUsersInfrastructureModule</text>
</g>
<!-- StimFeatureUsersApplicationModule&#45;&gt;StimFeatureUsersInfrastructureModule -->
<g id="edge1" class="edge">
<title>StimFeatureUsersApplicationModule&#45;&gt;StimFeatureUsersInfrastructureModule</title>
<path fill="none" stroke="black" d="M246.52,-84.91C246.52,-84.91 246.52,-103.79 246.52,-103.79"/>
<polygon fill="black" stroke="black" points="243.02,-103.79 246.52,-113.79 250.02,-103.79 243.02,-103.79"/>
</g>
<!-- UsersFacade -->
<g id="node3" class="node">
<title>UsersFacade</title>
<ellipse fill="#fdb462" stroke="black" cx="84" cy="-66.8" rx="60.23" ry="18"/>
<text text-anchor="middle" x="84" y="-62.6" font-family="Times,serif" font-size="14.00">UsersFacade</text>
</g>
<!-- UsersFacade&#45;&gt;StimFeatureUsersInfrastructureModule -->
<g id="edge2" class="edge">
<title>UsersFacade&#45;&gt;StimFeatureUsersInfrastructureModule</title>
<path fill="none" stroke="black" d="M116.68,-82.2C116.68,-82.2 116.68,-103.74 116.68,-103.74"/>
<polygon fill="black" stroke="black" points="113.18,-103.74 116.68,-113.74 120.18,-103.74 113.18,-103.74"/>
</g>
</g>
</svg>
