<?xml version="1.0" encoding="UTF-8" standalone="no"?>
<!DOCTYPE svg PUBLIC "-//W3C//DTD SVG 1.1//EN"
 "http://www.w3.org/Graphics/SVG/1.1/DTD/svg11.dtd">
<!-- Generated by graphviz version 2.47.3 (20210619.1520)
 -->
<!-- Title: dependencies Pages: 1 -->
<svg width="3969pt" height="174pt"
 viewBox="0.00 0.00 3969.00 173.80" xmlns="http://www.w3.org/2000/svg" xmlns:xlink="http://www.w3.org/1999/xlink">
<g id="graph0" class="graph" transform="scale(1 1) rotate(0) translate(4 169.8)">
<title>dependencies</title>
<polygon fill="white" stroke="transparent" points="-4,4 -4,-169.8 3965,-169.8 3965,4 -4,4"/>
<text text-anchor="middle" x="1980.5" y="-8.2" font-family="sans-serif" font-size="14.00">dependencies</text>
<g id="clust1" class="cluster">
<title>cluster_AppModule</title>
<polygon fill="none" stroke="black" stroke-dasharray="1,5" points="8,-32.8 8,-157.8 3953,-157.8 3953,-32.8 8,-32.8"/>
</g>
<g id="clust3" class="cluster">
<title>cluster_AppModule_imports</title>
<polygon fill="none" stroke="black" points="16,-40.8 16,-92.8 3945,-92.8 3945,-40.8 16,-40.8"/>
</g>
<!-- StimFeatureAclInfrastructureModule -->
<g id="node1" class="node">
<title>StimFeatureAclInfrastructureModule</title>
<polygon fill="#8dd3c7" stroke="black" points="3937.37,-84.8 3934.37,-88.8 3913.37,-88.8 3910.37,-84.8 3712.63,-84.8 3712.63,-48.8 3937.37,-48.8 3937.37,-84.8"/>
<text text-anchor="middle" x="3825" y="-62.6" font-family="Times,serif" font-size="14.00">StimFeatureAclInfrastructureModule</text>
</g>
<!-- AppModule -->
<g id="node17" class="node">
<title>AppModule</title>
<polygon fill="#8dd3c7" stroke="black" points="1826.66,-149.8 1823.66,-153.8 1802.66,-153.8 1799.66,-149.8 1743.34,-149.8 1743.34,-113.8 1826.66,-113.8 1826.66,-149.8"/>
<text text-anchor="middle" x="1785" y="-127.6" font-family="Times,serif" font-size="14.00">AppModule</text>
</g>
<!-- StimFeatureAclInfrastructureModule&#45;&gt;AppModule -->
<g id="edge1" class="edge">
<title>StimFeatureAclInfrastructureModule&#45;&gt;AppModule</title>
<path fill="none" stroke="black" d="M3825,-85.12C3825,-108.46 3825,-145.8 3825,-145.8 3825,-145.8 1836.67,-145.8 1836.67,-145.8"/>
<polygon fill="black" stroke="black" points="1836.67,-142.3 1826.67,-145.8 1836.67,-149.3 1836.67,-142.3"/>
</g>
<!-- StimFeatureAuthInfrastructureModule -->
<g id="node2" class="node">
<title>StimFeatureAuthInfrastructureModule</title>
<polygon fill="#8dd3c7" stroke="black" points="3695.15,-84.8 3692.15,-88.8 3671.15,-88.8 3668.15,-84.8 3462.85,-84.8 3462.85,-48.8 3695.15,-48.8 3695.15,-84.8"/>
<text text-anchor="middle" x="3579" y="-62.6" font-family="Times,serif" font-size="14.00">StimFeatureAuthInfrastructureModule</text>
</g>
<!-- StimFeatureAuthInfrastructureModule&#45;&gt;AppModule -->
<g id="edge2" class="edge">
<title>StimFeatureAuthInfrastructureModule&#45;&gt;AppModule</title>
<path fill="none" stroke="black" d="M3579,-85.09C3579,-107.01 3579,-140.8 3579,-140.8 3579,-140.8 1836.7,-140.8 1836.7,-140.8"/>
<polygon fill="black" stroke="black" points="1836.7,-137.3 1826.7,-140.8 1836.7,-144.3 1836.7,-137.3"/>
</g>
<!-- StimFeatureExperimentResultsInfrastructureModule -->
<g id="node3" class="node">
<title>StimFeatureExperimentResultsInfrastructureModule</title>
<polygon fill="#8dd3c7" stroke="black" points="3445.19,-84.8 3442.19,-88.8 3421.19,-88.8 3418.19,-84.8 3134.81,-84.8 3134.81,-48.8 3445.19,-48.8 3445.19,-84.8"/>
<text text-anchor="middle" x="3290" y="-62.6" font-family="Times,serif" font-size="14.00">StimFeatureExperimentResultsInfrastructureModule</text>
</g>
<!-- StimFeatureExperimentResultsInfrastructureModule&#45;&gt;AppModule -->
<g id="edge3" class="edge">
<title>StimFeatureExperimentResultsInfrastructureModule&#45;&gt;AppModule</title>
<path fill="none" stroke="black" d="M3290,-84.83C3290,-105.57 3290,-136.8 3290,-136.8 3290,-136.8 1836.82,-136.8 1836.82,-136.8"/>
<polygon fill="black" stroke="black" points="1836.82,-133.3 1826.82,-136.8 1836.82,-140.3 1836.82,-133.3"/>
</g>
<!-- StimFeatureExperimentsInfrastructureModule -->
<g id="node4" class="node">
<title>StimFeatureExperimentsInfrastructureModule</title>
<polygon fill="#8dd3c7" stroke="black" points="3116.41,-84.8 3113.41,-88.8 3092.41,-88.8 3089.41,-84.8 2841.59,-84.8 2841.59,-48.8 3116.41,-48.8 3116.41,-84.8"/>
<text text-anchor="middle" x="2979" y="-62.6" font-family="Times,serif" font-size="14.00">StimFeatureExperimentsInfrastructureModule</text>
</g>
<!-- StimFeatureExperimentsInfrastructureModule&#45;&gt;AppModule -->
<g id="edge4" class="edge">
<title>StimFeatureExperimentsInfrastructureModule&#45;&gt;AppModule</title>
<path fill="none" stroke="black" d="M2979,-84.91C2979,-104.14 2979,-131.8 2979,-131.8 2979,-131.8 1836.79,-131.8 1836.79,-131.8"/>
<polygon fill="black" stroke="black" points="1836.8,-128.3 1826.79,-131.8 1836.79,-135.3 1836.8,-128.3"/>
</g>
<!-- StimFeatureFileBrowserInfrastructureModule -->
<g id="node5" class="node">
<title>StimFeatureFileBrowserInfrastructureModule</title>
<polygon fill="#8dd3c7" stroke="black" points="2823.86,-84.8 2820.86,-88.8 2799.86,-88.8 2796.86,-84.8 2550.14,-84.8 2550.14,-48.8 2823.86,-48.8 2823.86,-84.8"/>
<text text-anchor="middle" x="2687" y="-62.6" font-family="Times,serif" font-size="14.00">StimFeatureFileBrowserInfrastructureModule</text>
</g>
<!-- StimFeatureFileBrowserInfrastructureModule&#45;&gt;AppModule -->
<g id="edge5" class="edge">
<title>StimFeatureFileBrowserInfrastructureModule&#45;&gt;AppModule</title>
<path fill="none" stroke="black" d="M2687,-85.1C2687,-103.07 2687,-127.8 2687,-127.8 2687,-127.8 1836.7,-127.8 1836.7,-127.8"/>
<polygon fill="black" stroke="black" points="1836.7,-124.3 1826.7,-127.8 1836.7,-131.3 1836.7,-124.3"/>
</g>
<!-- StimFeatureIpcInfrastructureModule -->
<g id="node6" class="node">
<title>StimFeatureIpcInfrastructureModule</title>
<polygon fill="#8dd3c7" stroke="black" points="2532.03,-84.8 2529.03,-88.8 2508.03,-88.8 2505.03,-84.8 2309.97,-84.8 2309.97,-48.8 2532.03,-48.8 2532.03,-84.8"/>
<text text-anchor="middle" x="2421" y="-62.6" font-family="Times,serif" font-size="14.00">StimFeatureIpcInfrastructureModule</text>
</g>
<!-- StimFeatureIpcInfrastructureModule&#45;&gt;AppModule -->
<g id="edge6" class="edge">
<title>StimFeatureIpcInfrastructureModule&#45;&gt;AppModule</title>
<path fill="none" stroke="black" d="M2421,-84.83C2421,-101.2 2421,-122.8 2421,-122.8 2421,-122.8 1836.73,-122.8 1836.73,-122.8"/>
<polygon fill="black" stroke="black" points="1836.73,-119.3 1826.73,-122.8 1836.73,-126.3 1836.73,-119.3"/>
</g>
<!-- StimFeaturePlayerInfrastructureModule -->
<g id="node7" class="node">
<title>StimFeaturePlayerInfrastructureModule</title>
<polygon fill="#8dd3c7" stroke="black" points="2291.92,-84.8 2288.92,-88.8 2267.92,-88.8 2264.92,-84.8 2052.08,-84.8 2052.08,-48.8 2291.92,-48.8 2291.92,-84.8"/>
<text text-anchor="middle" x="2172" y="-62.6" font-family="Times,serif" font-size="14.00">StimFeaturePlayerInfrastructureModule</text>
</g>
<!-- StimFeaturePlayerInfrastructureModule&#45;&gt;AppModule -->
<g id="edge7" class="edge">
<title>StimFeaturePlayerInfrastructureModule&#45;&gt;AppModule</title>
<path fill="none" stroke="black" d="M2172,-84.99C2172,-99.98 2172,-118.8 2172,-118.8 2172,-118.8 1836.78,-118.8 1836.78,-118.8"/>
<polygon fill="black" stroke="black" points="1836.78,-115.3 1826.78,-118.8 1836.78,-122.3 1836.78,-115.3"/>
</g>
<!-- StimFeatureSeedInfrastructureModule -->
<g id="node8" class="node">
<title>StimFeatureSeedInfrastructureModule</title>
<polygon fill="#8dd3c7" stroke="black" points="2033.87,-84.8 2030.87,-88.8 2009.87,-88.8 2006.87,-84.8 1802.13,-84.8 1802.13,-48.8 2033.87,-48.8 2033.87,-84.8"/>
<text text-anchor="middle" x="1918" y="-62.6" font-family="Times,serif" font-size="14.00">StimFeatureSeedInfrastructureModule</text>
</g>
<!-- StimFeatureSeedInfrastructureModule&#45;&gt;AppModule -->
<g id="edge8" class="edge">
<title>StimFeatureSeedInfrastructureModule&#45;&gt;AppModule</title>
<path fill="none" stroke="black" d="M1814.57,-84.91C1814.57,-84.91 1814.57,-103.79 1814.57,-103.79"/>
<polygon fill="black" stroke="black" points="1811.07,-103.79 1814.57,-113.79 1818.07,-103.79 1811.07,-103.79"/>
</g>
<!-- StimFeatureSequencesInfrastructureModule -->
<g id="node9" class="node">
<title>StimFeatureSequencesInfrastructureModule</title>
<polygon fill="#8dd3c7" stroke="black" points="1784.74,-84.8 1781.74,-88.8 1760.74,-88.8 1757.74,-84.8 1521.26,-84.8 1521.26,-48.8 1784.74,-48.8 1784.74,-84.8"/>
<text text-anchor="middle" x="1653" y="-62.6" font-family="Times,serif" font-size="14.00">StimFeatureSequencesInfrastructureModule</text>
</g>
<!-- StimFeatureSequencesInfrastructureModule&#45;&gt;AppModule -->
<g id="edge9" class="edge">
<title>StimFeatureSequencesInfrastructureModule&#45;&gt;AppModule</title>
<path fill="none" stroke="black" d="M1763.9,-84.91C1763.9,-84.91 1763.9,-103.79 1763.9,-103.79"/>
<polygon fill="black" stroke="black" points="1760.4,-103.79 1763.9,-113.79 1767.4,-103.79 1760.4,-103.79"/>
</g>
<!-- StimFeatureSettingsModule -->
<g id="node10" class="node">
<title>StimFeatureSettingsModule</title>
<polygon fill="#8dd3c7" stroke="black" points="1503.6,-84.8 1500.6,-88.8 1479.6,-88.8 1476.6,-84.8 1330.4,-84.8 1330.4,-48.8 1503.6,-48.8 1503.6,-84.8"/>
<text text-anchor="middle" x="1417" y="-62.6" font-family="Times,serif" font-size="14.00">StimFeatureSettingsModule</text>
</g>
<!-- StimFeatureSettingsModule&#45;&gt;AppModule -->
<g id="edge10" class="edge">
<title>StimFeatureSettingsModule&#45;&gt;AppModule</title>
<path fill="none" stroke="black" d="M1417,-84.99C1417,-99.98 1417,-118.8 1417,-118.8 1417,-118.8 1733.14,-118.8 1733.14,-118.8"/>
<polygon fill="black" stroke="black" points="1733.14,-122.3 1743.14,-118.8 1733.14,-115.3 1733.14,-122.3"/>
</g>
<!-- StimFeatureStimulatorInfrastructureModule -->
<g id="node11" class="node">
<title>StimFeatureStimulatorInfrastructureModule</title>
<polygon fill="#8dd3c7" stroke="black" points="1312.77,-84.8 1309.77,-88.8 1288.77,-88.8 1285.77,-84.8 1049.23,-84.8 1049.23,-48.8 1312.77,-48.8 1312.77,-84.8"/>
<text text-anchor="middle" x="1181" y="-62.6" font-family="Times,serif" font-size="14.00">StimFeatureStimulatorInfrastructureModule</text>
</g>
<!-- StimFeatureStimulatorInfrastructureModule&#45;&gt;AppModule -->
<g id="edge11" class="edge">
<title>StimFeatureStimulatorInfrastructureModule&#45;&gt;AppModule</title>
<path fill="none" stroke="black" d="M1181,-84.83C1181,-101.2 1181,-122.8 1181,-122.8 1181,-122.8 1733.01,-122.8 1733.01,-122.8"/>
<polygon fill="black" stroke="black" points="1733.01,-126.3 1743.01,-122.8 1733.01,-119.3 1733.01,-126.3"/>
</g>
<!-- StimFeatureTriggersInfrastructureModule -->
<g id="node12" class="node">
<title>StimFeatureTriggersInfrastructureModule</title>
<polygon fill="#8dd3c7" stroke="black" points="1031.58,-84.8 1028.58,-88.8 1007.58,-88.8 1004.58,-84.8 780.42,-84.8 780.42,-48.8 1031.58,-48.8 1031.58,-84.8"/>
<text text-anchor="middle" x="906" y="-62.6" font-family="Times,serif" font-size="14.00">StimFeatureTriggersInfrastructureModule</text>
</g>
<!-- StimFeatureTriggersInfrastructureModule&#45;&gt;AppModule -->
<g id="edge12" class="edge">
<title>StimFeatureTriggersInfrastructureModule&#45;&gt;AppModule</title>
<path fill="none" stroke="black" d="M906,-85.1C906,-103.07 906,-127.8 906,-127.8 906,-127.8 1733.2,-127.8 1733.2,-127.8"/>
<polygon fill="black" stroke="black" points="1733.2,-131.3 1743.2,-127.8 1733.2,-124.3 1733.2,-131.3"/>
</g>
<!-- StimFeatureUsersInfrastructureModule -->
<g id="node13" class="node">
<title>StimFeatureUsersInfrastructureModule</title>
<polygon fill="#8dd3c7" stroke="black" points="762.03,-84.8 759.03,-88.8 738.03,-88.8 735.03,-84.8 525.97,-84.8 525.97,-48.8 762.03,-48.8 762.03,-84.8"/>
<text text-anchor="middle" x="644" y="-62.6" font-family="Times,serif" font-size="14.00">StimFeatureUsersInfrastructureModule</text>
</g>
<!-- StimFeatureUsersInfrastructureModule&#45;&gt;AppModule -->
<g id="edge13" class="edge">
<title>StimFeatureUsersInfrastructureModule&#45;&gt;AppModule</title>
<path fill="none" stroke="black" d="M644,-84.91C644,-104.14 644,-131.8 644,-131.8 644,-131.8 1733.04,-131.8 1733.04,-131.8"/>
<polygon fill="black" stroke="black" points="1733.04,-135.3 1743.04,-131.8 1733.04,-128.3 1733.04,-135.3"/>
</g>
<!-- StimLibConnectionInfrastructureModule -->
<g id="node14" class="node">
<title>StimLibConnectionInfrastructureModule</title>
<polygon fill="#8dd3c7" stroke="black" points="508.17,-84.8 505.17,-88.8 484.17,-88.8 481.17,-84.8 261.83,-84.8 261.83,-48.8 508.17,-48.8 508.17,-84.8"/>
<text text-anchor="middle" x="385" y="-62.6" font-family="Times,serif" font-size="14.00">StimLibConnectionInfrastructureModule</text>
</g>
<!-- StimLibConnectionInfrastructureModule&#45;&gt;AppModule -->
<g id="edge14" class="edge">
<title>StimLibConnectionInfrastructureModule&#45;&gt;AppModule</title>
<path fill="none" stroke="black" d="M385,-84.83C385,-105.57 385,-136.8 385,-136.8 385,-136.8 1733.1,-136.8 1733.1,-136.8"/>
<polygon fill="black" stroke="black" points="1733.1,-140.3 1743.1,-136.8 1733.1,-133.3 1733.1,-140.3"/>
</g>
<!-- StimLibSocketModule -->
<g id="node15" class="node">
<title>StimLibSocketModule</title>
<polygon fill="#8dd3c7" stroke="black" points="243.55,-84.8 240.55,-88.8 219.55,-88.8 216.55,-84.8 100.45,-84.8 100.45,-48.8 243.55,-48.8 243.55,-84.8"/>
<text text-anchor="middle" x="172" y="-62.6" font-family="Times,serif" font-size="14.00">StimLibSocketModule</text>
</g>
<!-- StimLibSocketModule&#45;&gt;AppModule -->
<g id="edge15" class="edge">
<title>StimLibSocketModule&#45;&gt;AppModule</title>
<path fill="none" stroke="black" d="M172,-85.09C172,-107.01 172,-140.8 172,-140.8 172,-140.8 1733.1,-140.8 1733.1,-140.8"/>
<polygon fill="black" stroke="black" points="1733.1,-144.3 1743.1,-140.8 1733.1,-137.3 1733.1,-144.3"/>
</g>
<!-- process -->
<g id="node16" class="node">
<title>process</title>
<polygon fill="#8dd3c7" stroke="black" points="81.98,-84.8 78.98,-88.8 57.98,-88.8 54.98,-84.8 24.02,-84.8 24.02,-48.8 81.98,-48.8 81.98,-84.8"/>
<text text-anchor="middle" x="53" y="-62.6" font-family="Times,serif" font-size="14.00">process</text>
</g>
<!-- process&#45;&gt;AppModule -->
<g id="edge16" class="edge">
<title>process&#45;&gt;AppModule</title>
<path fill="none" stroke="black" d="M53,-85.12C53,-108.46 53,-145.8 53,-145.8 53,-145.8 1733.04,-145.8 1733.04,-145.8"/>
<polygon fill="black" stroke="black" points="1733.04,-149.3 1743.04,-145.8 1733.04,-142.3 1733.04,-149.3"/>
</g>
</g>
</svg>
