<?xml version="1.0" encoding="UTF-8" standalone="no"?>
<!DOCTYPE svg PUBLIC "-//W3C//DTD SVG 1.1//EN"
 "http://www.w3.org/Graphics/SVG/1.1/DTD/svg11.dtd">
<!-- Generated by graphviz version 2.47.3 (20210619.1520)
 -->
<!-- Title: dependencies Pages: 1 -->
<svg width="408pt" height="174pt"
 viewBox="0.00 0.00 408.00 173.80" xmlns="http://www.w3.org/2000/svg" xmlns:xlink="http://www.w3.org/1999/xlink">
<g id="graph0" class="graph" transform="scale(1 1) rotate(0) translate(4 169.8)">
<title>dependencies</title>
<polygon fill="white" stroke="transparent" points="-4,4 -4,-169.8 404,-169.8 404,4 -4,4"/>
<text text-anchor="middle" x="200" y="-8.2" font-family="sans-serif" font-size="14.00">dependencies</text>
<g id="clust1" class="cluster">
<title>cluster_StimFeatureUsersApplicationModule</title>
<polygon fill="none" stroke="black" stroke-dasharray="1,5" points="8,-32.8 8,-157.8 392,-157.8 392,-32.8 8,-32.8"/>
</g>
<g id="clust6" class="cluster">
<title>cluster_StimFeatureUsersApplicationModule_providers</title>
<polygon fill="none" stroke="black" points="244,-40.8 244,-92.8 384,-92.8 384,-40.8 244,-40.8"/>
</g>
<g id="clust3" class="cluster">
<title>cluster_StimFeatureUsersApplicationModule_imports</title>
<polygon fill="none" stroke="black" points="16,-40.8 16,-92.8 236,-92.8 236,-40.8 16,-40.8"/>
</g>
<!-- StimFeatureUsersDomainModule -->
<g id="node1" class="node">
<title>StimFeatureUsersDomainModule</title>
<polygon fill="#8dd3c7" stroke="black" points="228.46,-84.8 225.46,-88.8 204.46,-88.8 201.46,-84.8 23.54,-84.8 23.54,-48.8 228.46,-48.8 228.46,-84.8"/>
<text text-anchor="middle" x="126" y="-62.6" font-family="Times,serif" font-size="14.00">StimFeatureUsersDomainModule</text>
</g>
<!-- StimFeatureUsersApplicationModule -->
<g id="node2" class="node">
<title>StimFeatureUsersApplicationModule</title>
<polygon fill="#8dd3c7" stroke="black" points="312.95,-149.8 309.95,-153.8 288.95,-153.8 285.95,-149.8 87.05,-149.8 87.05,-113.8 312.95,-113.8 312.95,-149.8"/>
<text text-anchor="middle" x="200" y="-127.6" font-family="Times,serif" font-size="14.00">StimFeatureUsersApplicationModule</text>
</g>
<!-- StimFeatureUsersDomainModule&#45;&gt;StimFeatureUsersApplicationModule -->
<g id="edge1" class="edge">
<title>StimFeatureUsersDomainModule&#45;&gt;StimFeatureUsersApplicationModule</title>
<path fill="none" stroke="black" d="M157.75,-84.91C157.75,-84.91 157.75,-103.79 157.75,-103.79"/>
<polygon fill="black" stroke="black" points="154.25,-103.79 157.75,-113.79 161.25,-103.79 154.25,-103.79"/>
</g>
<!-- UsersService -->
<g id="node3" class="node">
<title>UsersService</title>
<ellipse fill="#fdb462" stroke="black" cx="314" cy="-66.8" rx="61.95" ry="18"/>
<text text-anchor="middle" x="314" y="-62.6" font-family="Times,serif" font-size="14.00">UsersService</text>
</g>
<!-- UsersService&#45;&gt;StimFeatureUsersApplicationModule -->
<g id="edge2" class="edge">
<title>UsersService&#45;&gt;StimFeatureUsersApplicationModule</title>
<path fill="none" stroke="black" d="M282.5,-82.53C282.5,-82.53 282.5,-103.45 282.5,-103.45"/>
<polygon fill="black" stroke="black" points="279,-103.45 282.5,-113.45 286,-103.45 279,-103.45"/>
</g>
</g>
</svg>
