<?xml version="1.0" encoding="UTF-8" standalone="no"?>
<!DOCTYPE svg PUBLIC "-//W3C//DTD SVG 1.1//EN"
 "http://www.w3.org/Graphics/SVG/1.1/DTD/svg11.dtd">
<!-- Generated by graphviz version 2.47.3 (20210619.1520)
 -->
<!-- Title: dependencies Pages: 1 -->
<svg width="433pt" height="174pt"
 viewBox="0.00 0.00 433.00 173.80" xmlns="http://www.w3.org/2000/svg" xmlns:xlink="http://www.w3.org/1999/xlink">
<g id="graph0" class="graph" transform="scale(1 1) rotate(0) translate(4 169.8)">
<title>dependencies</title>
<polygon fill="white" stroke="transparent" points="-4,4 -4,-169.8 429,-169.8 429,4 -4,4"/>
<text text-anchor="middle" x="212.5" y="-8.2" font-family="sans-serif" font-size="14.00">dependencies</text>
<g id="clust1" class="cluster">
<title>cluster_StimLibConnectionApplicationModule</title>
<polygon fill="none" stroke="black" stroke-dasharray="1,5" points="8,-32.8 8,-157.8 417,-157.8 417,-32.8 8,-32.8"/>
</g>
<g id="clust3" class="cluster">
<title>cluster_StimLibConnectionApplicationModule_imports</title>
<polygon fill="none" stroke="black" points="16,-40.8 16,-92.8 409,-92.8 409,-40.8 16,-40.8"/>
</g>
<!-- StimLibConnectionDomainModule -->
<g id="node1" class="node">
<title>StimLibConnectionDomainModule</title>
<polygon fill="#8dd3c7" stroke="black" points="400.6,-84.8 397.6,-88.8 376.6,-88.8 373.6,-84.8 185.4,-84.8 185.4,-48.8 400.6,-48.8 400.6,-84.8"/>
<text text-anchor="middle" x="293" y="-62.6" font-family="Times,serif" font-size="14.00">StimLibConnectionDomainModule</text>
</g>
<!-- StimLibConnectionApplicationModule -->
<g id="node3" class="node">
<title>StimLibConnectionApplicationModule</title>
<polygon fill="#8dd3c7" stroke="black" points="330.09,-149.8 327.09,-153.8 306.09,-153.8 303.09,-149.8 93.91,-149.8 93.91,-113.8 330.09,-113.8 330.09,-149.8"/>
<text text-anchor="middle" x="212" y="-127.6" font-family="Times,serif" font-size="14.00">StimLibConnectionApplicationModule</text>
</g>
<!-- StimLibConnectionDomainModule&#45;&gt;StimLibConnectionApplicationModule -->
<g id="edge1" class="edge">
<title>StimLibConnectionDomainModule&#45;&gt;StimLibConnectionApplicationModule</title>
<path fill="none" stroke="black" d="M257.75,-84.91C257.75,-84.91 257.75,-103.79 257.75,-103.79"/>
<polygon fill="black" stroke="black" points="254.25,-103.79 257.75,-113.79 261.25,-103.79 254.25,-103.79"/>
</g>
<!-- StimLibSocketModule -->
<g id="node2" class="node">
<title>StimLibSocketModule</title>
<polygon fill="#8dd3c7" stroke="black" points="167.55,-84.8 164.55,-88.8 143.55,-88.8 140.55,-84.8 24.45,-84.8 24.45,-48.8 167.55,-48.8 167.55,-84.8"/>
<text text-anchor="middle" x="96" y="-62.6" font-family="Times,serif" font-size="14.00">StimLibSocketModule</text>
</g>
<!-- StimLibSocketModule&#45;&gt;StimLibConnectionApplicationModule -->
<g id="edge2" class="edge">
<title>StimLibSocketModule&#45;&gt;StimLibConnectionApplicationModule</title>
<path fill="none" stroke="black" d="M130.86,-84.91C130.86,-84.91 130.86,-103.79 130.86,-103.79"/>
<polygon fill="black" stroke="black" points="127.36,-103.79 130.86,-113.79 134.36,-103.79 127.36,-103.79"/>
</g>
</g>
</svg>
