<?xml version="1.0" encoding="UTF-8" standalone="no"?>
<!DOCTYPE svg PUBLIC "-//W3C//DTD SVG 1.1//EN"
 "http://www.w3.org/Graphics/SVG/1.1/DTD/svg11.dtd">
<!-- Generated by graphviz version 2.47.3 (20210619.1520)
 -->
<!-- Title: dependencies Pages: 1 -->
<svg width="474pt" height="174pt"
 viewBox="0.00 0.00 474.00 173.80" xmlns="http://www.w3.org/2000/svg" xmlns:xlink="http://www.w3.org/1999/xlink">
<g id="graph0" class="graph" transform="scale(1 1) rotate(0) translate(4 169.8)">
<title>dependencies</title>
<polygon fill="white" stroke="transparent" points="-4,4 -4,-169.8 470,-169.8 470,4 -4,4"/>
<text text-anchor="middle" x="233" y="-8.2" font-family="sans-serif" font-size="14.00">dependencies</text>
<g id="clust1" class="cluster">
<title>cluster_StimFeatureSequencesApplicationModule</title>
<polygon fill="none" stroke="black" stroke-dasharray="1,5" points="8,-32.8 8,-157.8 458,-157.8 458,-32.8 8,-32.8"/>
</g>
<g id="clust6" class="cluster">
<title>cluster_StimFeatureSequencesApplicationModule_providers</title>
<polygon fill="none" stroke="black" points="272,-40.8 272,-92.8 450,-92.8 450,-40.8 272,-40.8"/>
</g>
<g id="clust3" class="cluster">
<title>cluster_StimFeatureSequencesApplicationModule_imports</title>
<polygon fill="none" stroke="black" points="16,-40.8 16,-92.8 264,-92.8 264,-40.8 16,-40.8"/>
</g>
<!-- StimFeatureSequencesDomainModule -->
<g id="node1" class="node">
<title>StimFeatureSequencesDomainModule</title>
<polygon fill="#8dd3c7" stroke="black" points="256.17,-84.8 253.17,-88.8 232.17,-88.8 229.17,-84.8 23.83,-84.8 23.83,-48.8 256.17,-48.8 256.17,-84.8"/>
<text text-anchor="middle" x="140" y="-62.6" font-family="Times,serif" font-size="14.00">StimFeatureSequencesDomainModule</text>
</g>
<!-- StimFeatureSequencesApplicationModule -->
<g id="node2" class="node">
<title>StimFeatureSequencesApplicationModule</title>
<polygon fill="#8dd3c7" stroke="black" points="359.67,-149.8 356.67,-153.8 335.67,-153.8 332.67,-149.8 106.33,-149.8 106.33,-113.8 359.67,-113.8 359.67,-149.8"/>
<text text-anchor="middle" x="233" y="-127.6" font-family="Times,serif" font-size="14.00">StimFeatureSequencesApplicationModule</text>
</g>
<!-- StimFeatureSequencesDomainModule&#45;&gt;StimFeatureSequencesApplicationModule -->
<g id="edge1" class="edge">
<title>StimFeatureSequencesDomainModule&#45;&gt;StimFeatureSequencesApplicationModule</title>
<path fill="none" stroke="black" d="M181.25,-84.91C181.25,-84.91 181.25,-103.79 181.25,-103.79"/>
<polygon fill="black" stroke="black" points="177.75,-103.79 181.25,-113.79 184.75,-103.79 177.75,-103.79"/>
</g>
<!-- SequencesService -->
<g id="node3" class="node">
<title>SequencesService</title>
<ellipse fill="#fdb462" stroke="black" cx="361" cy="-66.8" rx="81" ry="18"/>
<text text-anchor="middle" x="361" y="-62.6" font-family="Times,serif" font-size="14.00">SequencesService</text>
</g>
<!-- SequencesService&#45;&gt;StimFeatureSequencesApplicationModule -->
<g id="edge2" class="edge">
<title>SequencesService&#45;&gt;StimFeatureSequencesApplicationModule</title>
<path fill="none" stroke="black" d="M319.92,-82.53C319.92,-82.53 319.92,-103.45 319.92,-103.45"/>
<polygon fill="black" stroke="black" points="316.42,-103.45 319.92,-113.45 323.42,-103.45 316.42,-103.45"/>
</g>
</g>
</svg>
