<?xml version="1.0" encoding="UTF-8" standalone="no"?>
<!DOCTYPE svg PUBLIC "-//W3C//DTD SVG 1.1//EN"
 "http://www.w3.org/Graphics/SVG/1.1/DTD/svg11.dtd">
<!-- Generated by graphviz version 2.47.3 (20210619.1520)
 -->
<!-- Title: dependencies Pages: 1 -->
<svg width="416pt" height="174pt"
 viewBox="0.00 0.00 416.00 173.80" xmlns="http://www.w3.org/2000/svg" xmlns:xlink="http://www.w3.org/1999/xlink">
<g id="graph0" class="graph" transform="scale(1 1) rotate(0) translate(4 169.8)">
<title>dependencies</title>
<polygon fill="white" stroke="transparent" points="-4,4 -4,-169.8 412,-169.8 412,4 -4,4"/>
<text text-anchor="middle" x="204" y="-8.2" font-family="sans-serif" font-size="14.00">dependencies</text>
<g id="clust1" class="cluster">
<title>cluster_StimFeatureSeedInfrastructureModule</title>
<polygon fill="none" stroke="black" stroke-dasharray="1,5" points="8,-32.8 8,-157.8 400,-157.8 400,-32.8 8,-32.8"/>
</g>
<g id="clust3" class="cluster">
<title>cluster_StimFeatureSeedInfrastructureModule_imports</title>
<polygon fill="none" stroke="black" points="154,-40.8 154,-92.8 392,-92.8 392,-40.8 154,-40.8"/>
</g>
<g id="clust6" class="cluster">
<title>cluster_StimFeatureSeedInfrastructureModule_providers</title>
<polygon fill="none" stroke="black" points="16,-40.8 16,-92.8 146,-92.8 146,-40.8 16,-40.8"/>
</g>
<!-- StimFeatureSeedApplicationModule -->
<g id="node1" class="node">
<title>StimFeatureSeedApplicationModule</title>
<polygon fill="#8dd3c7" stroke="black" points="383.79,-84.8 380.79,-88.8 359.79,-88.8 356.79,-84.8 162.21,-84.8 162.21,-48.8 383.79,-48.8 383.79,-84.8"/>
<text text-anchor="middle" x="273" y="-62.6" font-family="Times,serif" font-size="14.00">StimFeatureSeedApplicationModule</text>
</g>
<!-- StimFeatureSeedInfrastructureModule -->
<g id="node2" class="node">
<title>StimFeatureSeedInfrastructureModule</title>
<polygon fill="#8dd3c7" stroke="black" points="317.87,-149.8 314.87,-153.8 293.87,-153.8 290.87,-149.8 86.13,-149.8 86.13,-113.8 317.87,-113.8 317.87,-149.8"/>
<text text-anchor="middle" x="202" y="-127.6" font-family="Times,serif" font-size="14.00">StimFeatureSeedInfrastructureModule</text>
</g>
<!-- StimFeatureSeedApplicationModule&#45;&gt;StimFeatureSeedInfrastructureModule -->
<g id="edge1" class="edge">
<title>StimFeatureSeedApplicationModule&#45;&gt;StimFeatureSeedInfrastructureModule</title>
<path fill="none" stroke="black" d="M240.02,-84.91C240.02,-84.91 240.02,-103.79 240.02,-103.79"/>
<polygon fill="black" stroke="black" points="236.52,-103.79 240.02,-113.79 243.52,-103.79 236.52,-103.79"/>
</g>
<!-- SeedFacade -->
<g id="node3" class="node">
<title>SeedFacade</title>
<ellipse fill="#fdb462" stroke="black" cx="81" cy="-66.8" rx="57.3" ry="18"/>
<text text-anchor="middle" x="81" y="-62.6" font-family="Times,serif" font-size="14.00">SeedFacade</text>
</g>
<!-- SeedFacade&#45;&gt;StimFeatureSeedInfrastructureModule -->
<g id="edge2" class="edge">
<title>SeedFacade&#45;&gt;StimFeatureSeedInfrastructureModule</title>
<path fill="none" stroke="black" d="M112.23,-81.88C112.23,-81.88 112.23,-103.56 112.23,-103.56"/>
<polygon fill="black" stroke="black" points="108.73,-103.56 112.23,-113.56 115.73,-103.56 108.73,-103.56"/>
</g>
</g>
</svg>
