<?xml version="1.0" encoding="UTF-8" standalone="no"?>
<!DOCTYPE svg PUBLIC "-//W3C//DTD SVG 1.1//EN"
 "http://www.w3.org/Graphics/SVG/1.1/DTD/svg11.dtd">
<!-- Generated by graphviz version 2.47.3 (20210619.1520)
 -->
<!-- Title: dependencies Pages: 1 -->
<svg width="664pt" height="174pt"
 viewBox="0.00 0.00 664.00 173.80" xmlns="http://www.w3.org/2000/svg" xmlns:xlink="http://www.w3.org/1999/xlink">
<g id="graph0" class="graph" transform="scale(1 1) rotate(0) translate(4 169.8)">
<title>dependencies</title>
<polygon fill="white" stroke="transparent" points="-4,4 -4,-169.8 660,-169.8 660,4 -4,4"/>
<text text-anchor="middle" x="328" y="-8.2" font-family="sans-serif" font-size="14.00">dependencies</text>
<g id="clust1" class="cluster">
<title>cluster_StimFeatureExperimentsApplicationModule</title>
<polygon fill="none" stroke="black" stroke-dasharray="1,5" points="8,-32.8 8,-157.8 648,-157.8 648,-32.8 8,-32.8"/>
</g>
<g id="clust6" class="cluster">
<title>cluster_StimFeatureExperimentsApplicationModule_providers</title>
<polygon fill="none" stroke="black" points="446,-40.8 446,-92.8 640,-92.8 640,-40.8 446,-40.8"/>
</g>
<g id="clust3" class="cluster">
<title>cluster_StimFeatureExperimentsApplicationModule_imports</title>
<polygon fill="none" stroke="black" points="16,-40.8 16,-92.8 438,-92.8 438,-40.8 16,-40.8"/>
</g>
<!-- StimFeatureExperimentsDomainModule -->
<g id="node1" class="node">
<title>StimFeatureExperimentsDomainModule</title>
<polygon fill="#8dd3c7" stroke="black" points="429.84,-84.8 426.84,-88.8 405.84,-88.8 402.84,-84.8 186.16,-84.8 186.16,-48.8 429.84,-48.8 429.84,-84.8"/>
<text text-anchor="middle" x="308" y="-62.6" font-family="Times,serif" font-size="14.00">StimFeatureExperimentsDomainModule</text>
</g>
<!-- StimFeatureExperimentsApplicationModule -->
<g id="node3" class="node">
<title>StimFeatureExperimentsApplicationModule</title>
<polygon fill="#8dd3c7" stroke="black" points="440.34,-149.8 437.34,-153.8 416.34,-153.8 413.34,-149.8 175.66,-149.8 175.66,-113.8 440.34,-113.8 440.34,-149.8"/>
<text text-anchor="middle" x="308" y="-127.6" font-family="Times,serif" font-size="14.00">StimFeatureExperimentsApplicationModule</text>
</g>
<!-- StimFeatureExperimentsDomainModule&#45;&gt;StimFeatureExperimentsApplicationModule -->
<g id="edge1" class="edge">
<title>StimFeatureExperimentsDomainModule&#45;&gt;StimFeatureExperimentsApplicationModule</title>
<path fill="none" stroke="black" d="M308,-84.91C308,-84.91 308,-103.79 308,-103.79"/>
<polygon fill="black" stroke="black" points="304.5,-103.79 308,-113.79 311.5,-103.79 304.5,-103.79"/>
</g>
<!-- StimLibSocketModule -->
<g id="node2" class="node">
<title>StimLibSocketModule</title>
<polygon fill="#8dd3c7" stroke="black" points="167.55,-84.8 164.55,-88.8 143.55,-88.8 140.55,-84.8 24.45,-84.8 24.45,-48.8 167.55,-48.8 167.55,-84.8"/>
<text text-anchor="middle" x="96" y="-62.6" font-family="Times,serif" font-size="14.00">StimLibSocketModule</text>
</g>
<!-- StimLibSocketModule&#45;&gt;StimFeatureExperimentsApplicationModule -->
<g id="edge2" class="edge">
<title>StimLibSocketModule&#45;&gt;StimFeatureExperimentsApplicationModule</title>
<path fill="none" stroke="black" d="M167.57,-66.8C175.53,-66.8 180.83,-66.8 180.83,-66.8 180.83,-66.8 180.83,-103.69 180.83,-103.69"/>
<polygon fill="black" stroke="black" points="177.33,-103.69 180.83,-113.69 184.33,-103.69 177.33,-103.69"/>
</g>
<!-- ExperimentsService -->
<g id="node4" class="node">
<title>ExperimentsService</title>
<ellipse fill="#fdb462" stroke="black" cx="543" cy="-66.8" rx="88.6" ry="18"/>
<text text-anchor="middle" x="543" y="-62.6" font-family="Times,serif" font-size="14.00">ExperimentsService</text>
</g>
<!-- ExperimentsService&#45;&gt;StimFeatureExperimentsApplicationModule -->
<g id="edge3" class="edge">
<title>ExperimentsService&#45;&gt;StimFeatureExperimentsApplicationModule</title>
<path fill="none" stroke="black" d="M453.95,-66.8C442.78,-66.8 435.17,-66.8 435.17,-66.8 435.17,-66.8 435.17,-103.69 435.17,-103.69"/>
<polygon fill="black" stroke="black" points="431.67,-103.69 435.17,-113.69 438.67,-103.69 431.67,-103.69"/>
</g>
</g>
</svg>
