<?xml version="1.0" encoding="UTF-8" standalone="no"?>
<!DOCTYPE svg PUBLIC "-//W3C//DTD SVG 1.1//EN"
 "http://www.w3.org/Graphics/SVG/1.1/DTD/svg11.dtd">
<!-- Generated by graphviz version 2.47.3 (20210619.1520)
 -->
<!-- Title: dependencies Pages: 1 -->
<svg width="240pt" height="174pt"
 viewBox="0.00 0.00 240.00 173.80" xmlns="http://www.w3.org/2000/svg" xmlns:xlink="http://www.w3.org/1999/xlink">
<g id="graph0" class="graph" transform="scale(1 1) rotate(0) translate(4 169.8)">
<title>dependencies</title>
<polygon fill="white" stroke="transparent" points="-4,4 -4,-169.8 236,-169.8 236,4 -4,4"/>
<text text-anchor="middle" x="116" y="-8.2" font-family="sans-serif" font-size="14.00">dependencies</text>
<g id="clust1" class="cluster">
<title>cluster_StimFeatureSeedDomainModule</title>
<polygon fill="none" stroke="black" stroke-dasharray="1,5" points="8,-32.8 8,-157.8 224,-157.8 224,-32.8 8,-32.8"/>
</g>
<g id="clust4" class="cluster">
<title>cluster_StimFeatureSeedDomainModule_exports</title>
<polygon fill="none" stroke="black" points="29,-97.8 29,-149.8 203,-149.8 203,-97.8 29,-97.8"/>
</g>
<!-- EntityStatisticsSerializer  -->
<g id="node1" class="node">
<title>EntityStatisticsSerializer </title>
<polygon fill="#fb8072" stroke="black" points="194.91,-141.8 37.09,-141.8 37.09,-105.8 194.91,-105.8 194.91,-141.8"/>
<text text-anchor="middle" x="116" y="-119.6" font-family="Times,serif" font-size="14.00">EntityStatisticsSerializer </text>
</g>
<!-- StimFeatureSeedDomainModule -->
<g id="node2" class="node">
<title>StimFeatureSeedDomainModule</title>
<polygon fill="#8dd3c7" stroke="black" points="216.3,-76.8 213.3,-80.8 192.3,-80.8 189.3,-76.8 15.7,-76.8 15.7,-40.8 216.3,-40.8 216.3,-76.8"/>
<text text-anchor="middle" x="116" y="-54.6" font-family="Times,serif" font-size="14.00">StimFeatureSeedDomainModule</text>
</g>
<!-- StimFeatureSeedDomainModule&#45;&gt;EntityStatisticsSerializer  -->
<g id="edge1" class="edge">
<title>StimFeatureSeedDomainModule&#45;&gt;EntityStatisticsSerializer </title>
<path fill="none" stroke="black" stroke-dasharray="5,2" d="M116,-76.91C116,-76.91 116,-95.79 116,-95.79"/>
<polygon fill="black" stroke="black" points="112.5,-95.79 116,-105.79 119.5,-95.79 112.5,-95.79"/>
</g>
</g>
</svg>
