<?xml version="1.0" encoding="UTF-8" standalone="no"?>
<!DOCTYPE svg PUBLIC "-//W3C//DTD SVG 1.1//EN"
 "http://www.w3.org/Graphics/SVG/1.1/DTD/svg11.dtd">
<!-- Generated by graphviz version 2.47.3 (20210619.1520)
 -->
<!-- Title: dependencies Pages: 1 -->
<svg width="474pt" height="247pt"
 viewBox="0.00 0.00 474.00 246.80" xmlns="http://www.w3.org/2000/svg" xmlns:xlink="http://www.w3.org/1999/xlink">
<g id="graph0" class="graph" transform="scale(1 1) rotate(0) translate(4 242.8)">
<title>dependencies</title>
<polygon fill="white" stroke="transparent" points="-4,4 -4,-242.8 470,-242.8 470,4 -4,4"/>
<text text-anchor="middle" x="233" y="-8.2" font-family="sans-serif" font-size="14.00">dependencies</text>
<g id="clust1" class="cluster">
<title>cluster_StimFeatureExperimentsDomainModule</title>
<polygon fill="none" stroke="black" stroke-dasharray="1,5" points="8,-32.8 8,-230.8 458,-230.8 458,-32.8 8,-32.8"/>
</g>
<g id="clust6" class="cluster">
<title>cluster_StimFeatureExperimentsDomainModule_providers</title>
<polygon fill="none" stroke="black" points="16,-40.8 16,-92.8 450,-92.8 450,-40.8 16,-40.8"/>
</g>
<g id="clust4" class="cluster">
<title>cluster_StimFeatureExperimentsDomainModule_exports</title>
<polygon fill="none" stroke="black" points="145,-170.8 145,-222.8 321,-222.8 321,-170.8 145,-170.8"/>
</g>
<!-- RefreshTokenRepository  -->
<g id="node1" class="node">
<title>RefreshTokenRepository </title>
<polygon fill="#fb8072" stroke="black" points="313.24,-214.8 152.76,-214.8 152.76,-178.8 313.24,-178.8 313.24,-214.8"/>
<text text-anchor="middle" x="233" y="-192.6" font-family="Times,serif" font-size="14.00">RefreshTokenRepository </text>
</g>
<!-- StimFeatureExperimentsDomainModule -->
<g id="node2" class="node">
<title>StimFeatureExperimentsDomainModule</title>
<polygon fill="#8dd3c7" stroke="black" points="354.84,-149.8 351.84,-153.8 330.84,-153.8 327.84,-149.8 111.16,-149.8 111.16,-113.8 354.84,-113.8 354.84,-149.8"/>
<text text-anchor="middle" x="233" y="-127.6" font-family="Times,serif" font-size="14.00">StimFeatureExperimentsDomainModule</text>
</g>
<!-- StimFeatureExperimentsDomainModule&#45;&gt;RefreshTokenRepository  -->
<g id="edge1" class="edge">
<title>StimFeatureExperimentsDomainModule&#45;&gt;RefreshTokenRepository </title>
<path fill="none" stroke="black" stroke-dasharray="5,2" d="M233,-149.91C233,-149.91 233,-168.79 233,-168.79"/>
<polygon fill="black" stroke="black" points="229.5,-168.79 233,-178.79 236.5,-168.79 229.5,-168.79"/>
</g>
<!-- RefreshTokenRepository -->
<g id="node3" class="node">
<title>RefreshTokenRepository</title>
<ellipse fill="#fdb462" stroke="black" cx="334" cy="-66.8" rx="108.23" ry="18"/>
<text text-anchor="middle" x="334" y="-62.6" font-family="Times,serif" font-size="14.00">RefreshTokenRepository</text>
</g>
<!-- RefreshTokenRepository&#45;&gt;StimFeatureExperimentsDomainModule -->
<g id="edge2" class="edge">
<title>RefreshTokenRepository&#45;&gt;StimFeatureExperimentsDomainModule</title>
<path fill="none" stroke="black" d="M290.4,-83.54C290.4,-83.54 290.4,-103.52 290.4,-103.52"/>
<polygon fill="black" stroke="black" points="286.9,-103.52 290.4,-113.52 293.9,-103.52 286.9,-103.52"/>
</g>
<!-- RefreshTokenSeeder -->
<g id="node4" class="node">
<title>RefreshTokenSeeder</title>
<ellipse fill="#fdb462" stroke="black" cx="116" cy="-66.8" rx="92.01" ry="18"/>
<text text-anchor="middle" x="116" y="-62.6" font-family="Times,serif" font-size="14.00">RefreshTokenSeeder</text>
</g>
<!-- RefreshTokenSeeder&#45;&gt;StimFeatureExperimentsDomainModule -->
<g id="edge3" class="edge">
<title>RefreshTokenSeeder&#45;&gt;StimFeatureExperimentsDomainModule</title>
<path fill="none" stroke="black" d="M159.54,-82.87C159.54,-82.87 159.54,-103.62 159.54,-103.62"/>
<polygon fill="black" stroke="black" points="156.04,-103.62 159.54,-113.62 163.04,-103.62 156.04,-103.62"/>
</g>
</g>
</svg>
