<?xml version="1.0" encoding="UTF-8" standalone="no"?>
<!DOCTYPE svg PUBLIC "-//W3C//DTD SVG 1.1//EN"
 "http://www.w3.org/Graphics/SVG/1.1/DTD/svg11.dtd">
<!-- Generated by graphviz version 2.47.3 (20210619.1520)
 -->
<!-- Title: dependencies Pages: 1 -->
<svg width="284pt" height="247pt"
 viewBox="0.00 0.00 284.00 246.80" xmlns="http://www.w3.org/2000/svg" xmlns:xlink="http://www.w3.org/1999/xlink">
<g id="graph0" class="graph" transform="scale(1 1) rotate(0) translate(4 242.8)">
<title>dependencies</title>
<polygon fill="white" stroke="transparent" points="-4,4 -4,-242.8 280,-242.8 280,4 -4,4"/>
<text text-anchor="middle" x="138" y="-8.2" font-family="sans-serif" font-size="14.00">dependencies</text>
<g id="clust1" class="cluster">
<title>cluster_StimFeatureExperimentsDomainModule</title>
<polygon fill="none" stroke="black" stroke-dasharray="1,5" points="8,-32.8 8,-230.8 268,-230.8 268,-32.8 8,-32.8"/>
</g>
<g id="clust4" class="cluster">
<title>cluster_StimFeatureExperimentsDomainModule_exports</title>
<polygon fill="none" stroke="black" points="36,-170.8 36,-222.8 240,-222.8 240,-170.8 36,-170.8"/>
</g>
<g id="clust6" class="cluster">
<title>cluster_StimFeatureExperimentsDomainModule_providers</title>
<polygon fill="none" stroke="black" points="23,-40.8 23,-92.8 253,-92.8 253,-40.8 23,-40.8"/>
</g>
<!-- ExperimentResultsRepository  -->
<g id="node1" class="node">
<title>ExperimentResultsRepository </title>
<polygon fill="#fb8072" stroke="black" points="231.97,-214.8 44.03,-214.8 44.03,-178.8 231.97,-178.8 231.97,-214.8"/>
<text text-anchor="middle" x="138" y="-192.6" font-family="Times,serif" font-size="14.00">ExperimentResultsRepository </text>
</g>
<!-- StimFeatureExperimentsDomainModule -->
<g id="node2" class="node">
<title>StimFeatureExperimentsDomainModule</title>
<polygon fill="#8dd3c7" stroke="black" points="259.84,-149.8 256.84,-153.8 235.84,-153.8 232.84,-149.8 16.16,-149.8 16.16,-113.8 259.84,-113.8 259.84,-149.8"/>
<text text-anchor="middle" x="138" y="-127.6" font-family="Times,serif" font-size="14.00">StimFeatureExperimentsDomainModule</text>
</g>
<!-- StimFeatureExperimentsDomainModule&#45;&gt;ExperimentResultsRepository  -->
<g id="edge1" class="edge">
<title>StimFeatureExperimentsDomainModule&#45;&gt;ExperimentResultsRepository </title>
<path fill="none" stroke="black" stroke-dasharray="5,2" d="M138,-149.91C138,-149.91 138,-168.79 138,-168.79"/>
<polygon fill="black" stroke="black" points="134.5,-168.79 138,-178.79 141.5,-168.79 134.5,-168.79"/>
</g>
<!-- ExperimentResultSeeder -->
<g id="node3" class="node">
<title>ExperimentResultSeeder</title>
<ellipse fill="#fdb462" stroke="black" cx="138" cy="-66.8" rx="107.08" ry="18"/>
<text text-anchor="middle" x="138" y="-62.6" font-family="Times,serif" font-size="14.00">ExperimentResultSeeder</text>
</g>
<!-- ExperimentResultSeeder&#45;&gt;StimFeatureExperimentsDomainModule -->
<g id="edge2" class="edge">
<title>ExperimentResultSeeder&#45;&gt;StimFeatureExperimentsDomainModule</title>
<path fill="none" stroke="black" d="M138,-84.91C138,-84.91 138,-103.79 138,-103.79"/>
<polygon fill="black" stroke="black" points="134.5,-103.79 138,-113.79 141.5,-103.79 134.5,-103.79"/>
</g>
</g>
</svg>
