<?xml version="1.0" encoding="UTF-8" standalone="no"?>
<!DOCTYPE svg PUBLIC "-//W3C//DTD SVG 1.1//EN"
 "http://www.w3.org/Graphics/SVG/1.1/DTD/svg11.dtd">
<!-- Generated by graphviz version 2.47.3 (20210619.1520)
 -->
<!-- Title: dependencies Pages: 1 -->
<svg width="1209pt" height="247pt"
 viewBox="0.00 0.00 1209.00 246.80" xmlns="http://www.w3.org/2000/svg" xmlns:xlink="http://www.w3.org/1999/xlink">
<g id="graph0" class="graph" transform="scale(1 1) rotate(0) translate(4 242.8)">
<title>dependencies</title>
<polygon fill="white" stroke="transparent" points="-4,4 -4,-242.8 1205,-242.8 1205,4 -4,4"/>
<text text-anchor="middle" x="600.5" y="-8.2" font-family="sans-serif" font-size="14.00">dependencies</text>
<g id="clust1" class="cluster">
<title>cluster_StimFeatureSeedApplicationModule</title>
<polygon fill="none" stroke="black" stroke-dasharray="1,5" points="8,-32.8 8,-230.8 1193,-230.8 1193,-32.8 8,-32.8"/>
</g>
<g id="clust3" class="cluster">
<title>cluster_StimFeatureSeedApplicationModule_imports</title>
<polygon fill="none" stroke="black" points="969,-40.8 969,-92.8 1185,-92.8 1185,-40.8 969,-40.8"/>
</g>
<g id="clust6" class="cluster">
<title>cluster_StimFeatureSeedApplicationModule_providers</title>
<polygon fill="none" stroke="black" points="16,-40.8 16,-92.8 961,-92.8 961,-40.8 16,-40.8"/>
</g>
<g id="clust4" class="cluster">
<title>cluster_StimFeatureSeedApplicationModule_exports</title>
<polygon fill="none" stroke="black" points="508,-170.8 508,-222.8 672,-222.8 672,-170.8 508,-170.8"/>
</g>
<!-- StimFeatureSeedDomainModule -->
<g id="node1" class="node">
<title>StimFeatureSeedDomainModule</title>
<polygon fill="#8dd3c7" stroke="black" points="1177.3,-84.8 1174.3,-88.8 1153.3,-88.8 1150.3,-84.8 976.7,-84.8 976.7,-48.8 1177.3,-48.8 1177.3,-84.8"/>
<text text-anchor="middle" x="1077" y="-62.6" font-family="Times,serif" font-size="14.00">StimFeatureSeedDomainModule</text>
</g>
<!-- StimFeatureSeedApplicationModule -->
<g id="node2" class="node">
<title>StimFeatureSeedApplicationModule</title>
<polygon fill="#8dd3c7" stroke="black" points="700.79,-149.8 697.79,-153.8 676.79,-153.8 673.79,-149.8 479.21,-149.8 479.21,-113.8 700.79,-113.8 700.79,-149.8"/>
<text text-anchor="middle" x="590" y="-127.6" font-family="Times,serif" font-size="14.00">StimFeatureSeedApplicationModule</text>
</g>
<!-- StimFeatureSeedDomainModule&#45;&gt;StimFeatureSeedApplicationModule -->
<g id="edge1" class="edge">
<title>StimFeatureSeedDomainModule&#45;&gt;StimFeatureSeedApplicationModule</title>
<path fill="none" stroke="black" d="M1077,-85.08C1077,-106.12 1077,-137.8 1077,-137.8 1077,-137.8 710.81,-137.8 710.81,-137.8"/>
<polygon fill="black" stroke="black" points="710.81,-134.3 700.81,-137.8 710.81,-141.3 710.81,-134.3"/>
</g>
<!-- SeederServiceProvider  -->
<g id="node3" class="node">
<title>SeederServiceProvider </title>
<polygon fill="#fb8072" stroke="black" points="663.77,-214.8 516.23,-214.8 516.23,-178.8 663.77,-178.8 663.77,-214.8"/>
<text text-anchor="middle" x="590" y="-192.6" font-family="Times,serif" font-size="14.00">SeederServiceProvider </text>
</g>
<!-- StimFeatureSeedApplicationModule&#45;&gt;SeederServiceProvider  -->
<g id="edge2" class="edge">
<title>StimFeatureSeedApplicationModule&#45;&gt;SeederServiceProvider </title>
<path fill="none" stroke="black" stroke-dasharray="5,2" d="M590,-149.91C590,-149.91 590,-168.79 590,-168.79"/>
<polygon fill="black" stroke="black" points="586.5,-168.79 590,-178.79 593.5,-168.79 586.5,-168.79"/>
</g>
<!-- DatabaseDumpService -->
<g id="node4" class="node">
<title>DatabaseDumpService</title>
<ellipse fill="#fdb462" stroke="black" cx="853" cy="-66.8" rx="99.54" ry="18"/>
<text text-anchor="middle" x="853" y="-62.6" font-family="Times,serif" font-size="14.00">DatabaseDumpService</text>
</g>
<!-- DatabaseDumpService&#45;&gt;StimFeatureSeedApplicationModule -->
<g id="edge3" class="edge">
<title>DatabaseDumpService&#45;&gt;StimFeatureSeedApplicationModule</title>
<path fill="none" stroke="black" d="M853,-84.82C853,-102.17 853,-125.8 853,-125.8 853,-125.8 710.77,-125.8 710.77,-125.8"/>
<polygon fill="black" stroke="black" points="710.77,-122.3 700.77,-125.8 710.77,-129.3 710.77,-122.3"/>
</g>
<!-- EntityTransformerExplorerService -->
<g id="node5" class="node">
<title>EntityTransformerExplorerService</title>
<ellipse fill="#fdb462" stroke="black" cx="590" cy="-66.8" rx="145.78" ry="18"/>
<text text-anchor="middle" x="590" y="-62.6" font-family="Times,serif" font-size="14.00">EntityTransformerExplorerService</text>
</g>
<!-- EntityTransformerExplorerService&#45;&gt;StimFeatureSeedApplicationModule -->
<g id="edge4" class="edge">
<title>EntityTransformerExplorerService&#45;&gt;StimFeatureSeedApplicationModule</title>
<path fill="none" stroke="black" d="M590,-84.91C590,-84.91 590,-103.79 590,-103.79"/>
<polygon fill="black" stroke="black" points="586.5,-103.79 590,-113.79 593.5,-103.79 586.5,-103.79"/>
</g>
<!-- SeedExplorerService -->
<g id="node6" class="node">
<title>SeedExplorerService</title>
<ellipse fill="#fdb462" stroke="black" cx="334" cy="-66.8" rx="92.59" ry="18"/>
<text text-anchor="middle" x="334" y="-62.6" font-family="Times,serif" font-size="14.00">SeedExplorerService</text>
</g>
<!-- SeedExplorerService&#45;&gt;StimFeatureSeedApplicationModule -->
<g id="edge5" class="edge">
<title>SeedExplorerService&#45;&gt;StimFeatureSeedApplicationModule</title>
<path fill="none" stroke="black" d="M334,-84.82C334,-102.17 334,-125.8 334,-125.8 334,-125.8 469.2,-125.8 469.2,-125.8"/>
<polygon fill="black" stroke="black" points="469.2,-129.3 479.2,-125.8 469.2,-122.3 469.2,-129.3"/>
</g>
<!-- SeederServiceProvider -->
<g id="node7" class="node">
<title>SeederServiceProvider</title>
<ellipse fill="#fdb462" stroke="black" cx="124" cy="-66.8" rx="99.53" ry="18"/>
<text text-anchor="middle" x="124" y="-62.6" font-family="Times,serif" font-size="14.00">SeederServiceProvider</text>
</g>
<!-- SeederServiceProvider&#45;&gt;StimFeatureSeedApplicationModule -->
<g id="edge6" class="edge">
<title>SeederServiceProvider&#45;&gt;StimFeatureSeedApplicationModule</title>
<path fill="none" stroke="black" d="M124,-85.08C124,-106.12 124,-137.8 124,-137.8 124,-137.8 469.27,-137.8 469.27,-137.8"/>
<polygon fill="black" stroke="black" points="469.27,-141.3 479.27,-137.8 469.27,-134.3 469.27,-141.3"/>
</g>
</g>
</svg>
