<?xml version="1.0" encoding="UTF-8" standalone="no"?>
<!DOCTYPE svg PUBLIC "-//W3C//DTD SVG 1.1//EN"
 "http://www.w3.org/Graphics/SVG/1.1/DTD/svg11.dtd">
<!-- Generated by graphviz version 2.47.3 (20210619.1520)
 -->
<!-- Title: dependencies Pages: 1 -->
<svg width="1209pt" height="247pt"
 viewBox="0.00 0.00 1209.00 246.80" xmlns="http://www.w3.org/2000/svg" xmlns:xlink="http://www.w3.org/1999/xlink">
<g id="graph0" class="graph" transform="scale(1 1) rotate(0) translate(4 242.8)">
<title>dependencies</title>
<polygon fill="white" stroke="transparent" points="-4,4 -4,-242.8 1205,-242.8 1205,4 -4,4"/>
<text text-anchor="middle" x="600.5" y="-8.2" font-family="sans-serif" font-size="14.00">dependencies</text>
<g id="clust1" class="cluster">
<title>cluster_StimFeatureSeedApplicationModule</title>
<polygon fill="none" stroke="black" stroke-dasharray="1,5" points="8,-32.8 8,-230.8 1193,-230.8 1193,-32.8 8,-32.8"/>
</g>
<g id="clust4" class="cluster">
<title>cluster_StimFeatureSeedApplicationModule_exports</title>
<polygon fill="none" stroke="black" points="476,-170.8 476,-222.8 640,-222.8 640,-170.8 476,-170.8"/>
</g>
<g id="clust6" class="cluster">
<title>cluster_StimFeatureSeedApplicationModule_providers</title>
<polygon fill="none" stroke="black" points="240,-40.8 240,-92.8 1185,-92.8 1185,-40.8 240,-40.8"/>
</g>
<g id="clust3" class="cluster">
<title>cluster_StimFeatureSeedApplicationModule_imports</title>
<polygon fill="none" stroke="black" points="16,-40.8 16,-92.8 232,-92.8 232,-40.8 16,-40.8"/>
</g>
<!-- StimFeatureSeedDomainModule -->
<g id="node1" class="node">
<title>StimFeatureSeedDomainModule</title>
<polygon fill="#8dd3c7" stroke="black" points="224.3,-84.8 221.3,-88.8 200.3,-88.8 197.3,-84.8 23.7,-84.8 23.7,-48.8 224.3,-48.8 224.3,-84.8"/>
<text text-anchor="middle" x="124" y="-62.6" font-family="Times,serif" font-size="14.00">StimFeatureSeedDomainModule</text>
</g>
<!-- StimFeatureSeedApplicationModule -->
<g id="node2" class="node">
<title>StimFeatureSeedApplicationModule</title>
<polygon fill="#8dd3c7" stroke="black" points="668.79,-149.8 665.79,-153.8 644.79,-153.8 641.79,-149.8 447.21,-149.8 447.21,-113.8 668.79,-113.8 668.79,-149.8"/>
<text text-anchor="middle" x="558" y="-127.6" font-family="Times,serif" font-size="14.00">StimFeatureSeedApplicationModule</text>
</g>
<!-- StimFeatureSeedDomainModule&#45;&gt;StimFeatureSeedApplicationModule -->
<g id="edge1" class="edge">
<title>StimFeatureSeedDomainModule&#45;&gt;StimFeatureSeedApplicationModule</title>
<path fill="none" stroke="black" d="M124,-84.91C124,-104.14 124,-131.8 124,-131.8 124,-131.8 437.08,-131.8 437.08,-131.8"/>
<polygon fill="black" stroke="black" points="437.08,-135.3 447.08,-131.8 437.08,-128.3 437.08,-135.3"/>
</g>
<!-- SeederServiceProvider  -->
<g id="node3" class="node">
<title>SeederServiceProvider </title>
<polygon fill="#fb8072" stroke="black" points="631.77,-214.8 484.23,-214.8 484.23,-178.8 631.77,-178.8 631.77,-214.8"/>
<text text-anchor="middle" x="558" y="-192.6" font-family="Times,serif" font-size="14.00">SeederServiceProvider </text>
</g>
<!-- StimFeatureSeedApplicationModule&#45;&gt;SeederServiceProvider  -->
<g id="edge2" class="edge">
<title>StimFeatureSeedApplicationModule&#45;&gt;SeederServiceProvider </title>
<path fill="none" stroke="black" stroke-dasharray="5,2" d="M558,-149.91C558,-149.91 558,-168.79 558,-168.79"/>
<polygon fill="black" stroke="black" points="554.5,-168.79 558,-178.79 561.5,-168.79 554.5,-168.79"/>
</g>
<!-- DatabaseDumpService -->
<g id="node4" class="node">
<title>DatabaseDumpService</title>
<ellipse fill="#fdb462" stroke="black" cx="1077" cy="-66.8" rx="99.54" ry="18"/>
<text text-anchor="middle" x="1077" y="-62.6" font-family="Times,serif" font-size="14.00">DatabaseDumpService</text>
</g>
<!-- DatabaseDumpService&#45;&gt;StimFeatureSeedApplicationModule -->
<g id="edge3" class="edge">
<title>DatabaseDumpService&#45;&gt;StimFeatureSeedApplicationModule</title>
<path fill="none" stroke="black" d="M1077,-84.91C1077,-104.14 1077,-131.8 1077,-131.8 1077,-131.8 678.7,-131.8 678.7,-131.8"/>
<polygon fill="black" stroke="black" points="678.7,-128.3 668.7,-131.8 678.7,-135.3 678.7,-128.3"/>
</g>
<!-- EntityTransformerExplorerService -->
<g id="node5" class="node">
<title>EntityTransformerExplorerService</title>
<ellipse fill="#fdb462" stroke="black" cx="814" cy="-66.8" rx="145.78" ry="18"/>
<text text-anchor="middle" x="814" y="-62.6" font-family="Times,serif" font-size="14.00">EntityTransformerExplorerService</text>
</g>
<!-- EntityTransformerExplorerService&#45;&gt;StimFeatureSeedApplicationModule -->
<g id="edge4" class="edge">
<title>EntityTransformerExplorerService&#45;&gt;StimFeatureSeedApplicationModule</title>
<path fill="none" stroke="black" d="M668.2,-66.8C662.68,-66.8 659.45,-66.8 659.45,-66.8 659.45,-66.8 659.45,-103.69 659.45,-103.69"/>
<polygon fill="black" stroke="black" points="655.95,-103.69 659.45,-113.69 662.95,-103.69 655.95,-103.69"/>
</g>
<!-- SeedExplorerService -->
<g id="node6" class="node">
<title>SeedExplorerService</title>
<ellipse fill="#fdb462" stroke="black" cx="558" cy="-66.8" rx="92.59" ry="18"/>
<text text-anchor="middle" x="558" y="-62.6" font-family="Times,serif" font-size="14.00">SeedExplorerService</text>
</g>
<!-- SeedExplorerService&#45;&gt;StimFeatureSeedApplicationModule -->
<g id="edge5" class="edge">
<title>SeedExplorerService&#45;&gt;StimFeatureSeedApplicationModule</title>
<path fill="none" stroke="black" d="M558,-84.91C558,-84.91 558,-103.79 558,-103.79"/>
<polygon fill="black" stroke="black" points="554.5,-103.79 558,-113.79 561.5,-103.79 554.5,-103.79"/>
</g>
<!-- SeederServiceProvider -->
<g id="node7" class="node">
<title>SeederServiceProvider</title>
<ellipse fill="#fdb462" stroke="black" cx="348" cy="-66.8" rx="99.53" ry="18"/>
<text text-anchor="middle" x="348" y="-62.6" font-family="Times,serif" font-size="14.00">SeederServiceProvider</text>
</g>
<!-- SeederServiceProvider&#45;&gt;StimFeatureSeedApplicationModule -->
<g id="edge6" class="edge">
<title>SeederServiceProvider&#45;&gt;StimFeatureSeedApplicationModule</title>
<path fill="none" stroke="black" d="M447.61,-66.8C453.13,-66.8 456.49,-66.8 456.49,-66.8 456.49,-66.8 456.49,-103.69 456.49,-103.69"/>
<polygon fill="black" stroke="black" points="452.99,-103.69 456.49,-113.69 459.99,-103.69 452.99,-103.69"/>
</g>
</g>
</svg>
