<?xml version="1.0" encoding="UTF-8" standalone="no"?>
<!DOCTYPE svg PUBLIC "-//W3C//DTD SVG 1.1//EN"
 "http://www.w3.org/Graphics/SVG/1.1/DTD/svg11.dtd">
<!-- Generated by graphviz version 2.47.3 (20210619.1520)
 -->
<!-- Title: dependencies Pages: 1 -->
<svg width="260pt" height="247pt"
 viewBox="0.00 0.00 260.00 246.80" xmlns="http://www.w3.org/2000/svg" xmlns:xlink="http://www.w3.org/1999/xlink">
<g id="graph0" class="graph" transform="scale(1 1) rotate(0) translate(4 242.8)">
<title>dependencies</title>
<polygon fill="white" stroke="transparent" points="-4,4 -4,-242.8 256,-242.8 256,4 -4,4"/>
<text text-anchor="middle" x="126" y="-8.2" font-family="sans-serif" font-size="14.00">dependencies</text>
<g id="clust1" class="cluster">
<title>cluster_StimFeatureTriggersDomainModule</title>
<polygon fill="none" stroke="black" stroke-dasharray="1,5" points="8,-32.8 8,-230.8 244,-230.8 244,-32.8 8,-32.8"/>
</g>
<g id="clust6" class="cluster">
<title>cluster_StimFeatureTriggersDomainModule_providers</title>
<polygon fill="none" stroke="black" points="51,-40.8 51,-92.8 201,-92.8 201,-40.8 51,-40.8"/>
</g>
<g id="clust4" class="cluster">
<title>cluster_StimFeatureTriggersDomainModule_exports</title>
<polygon fill="none" stroke="black" points="67,-170.8 67,-222.8 185,-222.8 185,-170.8 67,-170.8"/>
</g>
<!-- AclRepository  -->
<g id="node1" class="node">
<title>AclRepository </title>
<polygon fill="#fb8072" stroke="black" points="176.65,-214.8 75.35,-214.8 75.35,-178.8 176.65,-178.8 176.65,-214.8"/>
<text text-anchor="middle" x="126" y="-192.6" font-family="Times,serif" font-size="14.00">AclRepository </text>
</g>
<!-- StimFeatureTriggersDomainModule -->
<g id="node2" class="node">
<title>StimFeatureTriggersDomainModule</title>
<polygon fill="#8dd3c7" stroke="black" points="236.01,-149.8 233.01,-153.8 212.01,-153.8 209.01,-149.8 15.99,-149.8 15.99,-113.8 236.01,-113.8 236.01,-149.8"/>
<text text-anchor="middle" x="126" y="-127.6" font-family="Times,serif" font-size="14.00">StimFeatureTriggersDomainModule</text>
</g>
<!-- StimFeatureTriggersDomainModule&#45;&gt;AclRepository  -->
<g id="edge1" class="edge">
<title>StimFeatureTriggersDomainModule&#45;&gt;AclRepository </title>
<path fill="none" stroke="black" stroke-dasharray="5,2" d="M126,-149.91C126,-149.91 126,-168.79 126,-168.79"/>
<polygon fill="black" stroke="black" points="122.5,-168.79 126,-178.79 129.5,-168.79 122.5,-168.79"/>
</g>
<!-- AclRepository -->
<g id="node3" class="node">
<title>AclRepository</title>
<ellipse fill="#fdb462" stroke="black" cx="126" cy="-66.8" rx="67.21" ry="18"/>
<text text-anchor="middle" x="126" y="-62.6" font-family="Times,serif" font-size="14.00">AclRepository</text>
</g>
<!-- AclRepository&#45;&gt;StimFeatureTriggersDomainModule -->
<g id="edge2" class="edge">
<title>AclRepository&#45;&gt;StimFeatureTriggersDomainModule</title>
<path fill="none" stroke="black" d="M126,-84.91C126,-84.91 126,-103.79 126,-103.79"/>
<polygon fill="black" stroke="black" points="122.5,-103.79 126,-113.79 129.5,-103.79 122.5,-103.79"/>
</g>
</g>
</svg>
