<?xml version="1.0" encoding="UTF-8" standalone="no"?>
<!DOCTYPE svg PUBLIC "-//W3C//DTD SVG 1.1//EN"
 "http://www.w3.org/Graphics/SVG/1.1/DTD/svg11.dtd">
<!-- Generated by graphviz version 2.47.3 (20210619.1520)
 -->
<!-- Title: dependencies Pages: 1 -->
<svg width="272pt" height="247pt"
 viewBox="0.00 0.00 272.00 246.80" xmlns="http://www.w3.org/2000/svg" xmlns:xlink="http://www.w3.org/1999/xlink">
<g id="graph0" class="graph" transform="scale(1 1) rotate(0) translate(4 242.8)">
<title>dependencies</title>
<polygon fill="white" stroke="transparent" points="-4,4 -4,-242.8 268,-242.8 268,4 -4,4"/>
<text text-anchor="middle" x="132" y="-8.2" font-family="sans-serif" font-size="14.00">dependencies</text>
<g id="clust1" class="cluster">
<title>cluster_StimFeatureTriggersDomainModule</title>
<polygon fill="none" stroke="black" stroke-dasharray="1,5" points="8,-32.8 8,-230.8 256,-230.8 256,-32.8 8,-32.8"/>
</g>
<g id="clust4" class="cluster">
<title>cluster_StimFeatureTriggersDomainModule_exports</title>
<polygon fill="none" stroke="black" points="44,-170.8 44,-222.8 220,-222.8 220,-170.8 44,-170.8"/>
</g>
<g id="clust6" class="cluster">
<title>cluster_StimFeatureTriggersDomainModule_providers</title>
<polygon fill="none" stroke="black" points="16,-40.8 16,-92.8 248,-92.8 248,-40.8 16,-40.8"/>
</g>
<!-- RefreshTokenRepository  -->
<g id="node1" class="node">
<title>RefreshTokenRepository </title>
<polygon fill="#fb8072" stroke="black" points="212.24,-214.8 51.76,-214.8 51.76,-178.8 212.24,-178.8 212.24,-214.8"/>
<text text-anchor="middle" x="132" y="-192.6" font-family="Times,serif" font-size="14.00">RefreshTokenRepository </text>
</g>
<!-- StimFeatureTriggersDomainModule -->
<g id="node2" class="node">
<title>StimFeatureTriggersDomainModule</title>
<polygon fill="#8dd3c7" stroke="black" points="242.01,-149.8 239.01,-153.8 218.01,-153.8 215.01,-149.8 21.99,-149.8 21.99,-113.8 242.01,-113.8 242.01,-149.8"/>
<text text-anchor="middle" x="132" y="-127.6" font-family="Times,serif" font-size="14.00">StimFeatureTriggersDomainModule</text>
</g>
<!-- StimFeatureTriggersDomainModule&#45;&gt;RefreshTokenRepository  -->
<g id="edge1" class="edge">
<title>StimFeatureTriggersDomainModule&#45;&gt;RefreshTokenRepository </title>
<path fill="none" stroke="black" stroke-dasharray="5,2" d="M132,-149.91C132,-149.91 132,-168.79 132,-168.79"/>
<polygon fill="black" stroke="black" points="128.5,-168.79 132,-178.79 135.5,-168.79 128.5,-168.79"/>
</g>
<!-- RefreshTokenRepository -->
<g id="node3" class="node">
<title>RefreshTokenRepository</title>
<ellipse fill="#fdb462" stroke="black" cx="132" cy="-66.8" rx="108.23" ry="18"/>
<text text-anchor="middle" x="132" y="-62.6" font-family="Times,serif" font-size="14.00">RefreshTokenRepository</text>
</g>
<!-- RefreshTokenRepository&#45;&gt;StimFeatureTriggersDomainModule -->
<g id="edge2" class="edge">
<title>RefreshTokenRepository&#45;&gt;StimFeatureTriggersDomainModule</title>
<path fill="none" stroke="black" d="M132,-84.91C132,-84.91 132,-103.79 132,-103.79"/>
<polygon fill="black" stroke="black" points="128.5,-103.79 132,-113.79 135.5,-103.79 128.5,-103.79"/>
</g>
</g>
</svg>
