<?xml version="1.0" encoding="UTF-8" standalone="no"?>
<!DOCTYPE svg PUBLIC "-//W3C//DTD SVG 1.1//EN"
 "http://www.w3.org/Graphics/SVG/1.1/DTD/svg11.dtd">
<!-- Generated by graphviz version 2.47.3 (20210619.1520)
 -->
<!-- Title: dependencies Pages: 1 -->
<svg width="260pt" height="174pt"
 viewBox="0.00 0.00 260.00 173.80" xmlns="http://www.w3.org/2000/svg" xmlns:xlink="http://www.w3.org/1999/xlink">
<g id="graph0" class="graph" transform="scale(1 1) rotate(0) translate(4 169.8)">
<title>dependencies</title>
<polygon fill="white" stroke="transparent" points="-4,4 -4,-169.8 256,-169.8 256,4 -4,4"/>
<text text-anchor="middle" x="126" y="-8.2" font-family="sans-serif" font-size="14.00">dependencies</text>
<g id="clust1" class="cluster">
<title>cluster_StimFeatureTriggersDomainModule</title>
<polygon fill="none" stroke="black" stroke-dasharray="1,5" points="8,-32.8 8,-157.8 244,-157.8 244,-32.8 8,-32.8"/>
</g>
<g id="clust4" class="cluster">
<title>cluster_StimFeatureTriggersDomainModule_exports</title>
<polygon fill="none" stroke="black" points="24,-97.8 24,-149.8 228,-149.8 228,-97.8 24,-97.8"/>
</g>
<!-- ExperimentResultsRepository  -->
<g id="node1" class="node">
<title>ExperimentResultsRepository </title>
<polygon fill="#fb8072" stroke="black" points="219.97,-141.8 32.03,-141.8 32.03,-105.8 219.97,-105.8 219.97,-141.8"/>
<text text-anchor="middle" x="126" y="-119.6" font-family="Times,serif" font-size="14.00">ExperimentResultsRepository </text>
</g>
<!-- StimFeatureTriggersDomainModule -->
<g id="node2" class="node">
<title>StimFeatureTriggersDomainModule</title>
<polygon fill="#8dd3c7" stroke="black" points="236.01,-76.8 233.01,-80.8 212.01,-80.8 209.01,-76.8 15.99,-76.8 15.99,-40.8 236.01,-40.8 236.01,-76.8"/>
<text text-anchor="middle" x="126" y="-54.6" font-family="Times,serif" font-size="14.00">StimFeatureTriggersDomainModule</text>
</g>
<!-- StimFeatureTriggersDomainModule&#45;&gt;ExperimentResultsRepository  -->
<g id="edge1" class="edge">
<title>StimFeatureTriggersDomainModule&#45;&gt;ExperimentResultsRepository </title>
<path fill="none" stroke="black" stroke-dasharray="5,2" d="M126,-76.91C126,-76.91 126,-95.79 126,-95.79"/>
<polygon fill="black" stroke="black" points="122.5,-95.79 126,-105.79 129.5,-95.79 122.5,-95.79"/>
</g>
</g>
</svg>
