<?xml version="1.0" encoding="UTF-8" standalone="no"?>
<!DOCTYPE svg PUBLIC "-//W3C//DTD SVG 1.1//EN"
 "http://www.w3.org/Graphics/SVG/1.1/DTD/svg11.dtd">
<!-- Generated by graphviz version 2.47.3 (20210619.1520)
 -->
<!-- Title: dependencies Pages: 1 -->
<svg width="558pt" height="247pt"
 viewBox="0.00 0.00 558.00 246.80" xmlns="http://www.w3.org/2000/svg" xmlns:xlink="http://www.w3.org/1999/xlink">
<g id="graph0" class="graph" transform="scale(1 1) rotate(0) translate(4 242.8)">
<title>dependencies</title>
<polygon fill="white" stroke="transparent" points="-4,4 -4,-242.8 554,-242.8 554,4 -4,4"/>
<text text-anchor="middle" x="275" y="-8.2" font-family="sans-serif" font-size="14.00">dependencies</text>
<g id="clust1" class="cluster">
<title>cluster_StimFeatureTriggersInfrastructureModule</title>
<polygon fill="none" stroke="black" stroke-dasharray="1,5" points="8,-32.8 8,-230.8 542,-230.8 542,-32.8 8,-32.8"/>
</g>
<g id="clust3" class="cluster">
<title>cluster_StimFeatureTriggersInfrastructureModule_imports</title>
<polygon fill="none" stroke="black" points="276,-40.8 276,-92.8 534,-92.8 534,-40.8 276,-40.8"/>
</g>
<g id="clust6" class="cluster">
<title>cluster_StimFeatureTriggersInfrastructureModule_providers</title>
<polygon fill="none" stroke="black" points="16,-40.8 16,-92.8 268,-92.8 268,-40.8 16,-40.8"/>
</g>
<g id="clust4" class="cluster">
<title>cluster_StimFeatureTriggersInfrastructureModule_exports</title>
<polygon fill="none" stroke="black" points="178,-170.8 178,-222.8 368,-222.8 368,-170.8 178,-170.8"/>
</g>
<!-- StimFeatureTriggersApplicationModule -->
<g id="node1" class="node">
<title>StimFeatureTriggersApplicationModule</title>
<polygon fill="#8dd3c7" stroke="black" points="525.5,-84.8 522.5,-88.8 501.5,-88.8 498.5,-84.8 284.5,-84.8 284.5,-48.8 525.5,-48.8 525.5,-84.8"/>
<text text-anchor="middle" x="405" y="-62.6" font-family="Times,serif" font-size="14.00">StimFeatureTriggersApplicationModule</text>
</g>
<!-- StimFeatureTriggersInfrastructureModule -->
<g id="node2" class="node">
<title>StimFeatureTriggersInfrastructureModule</title>
<polygon fill="#8dd3c7" stroke="black" points="398.58,-149.8 395.58,-153.8 374.58,-153.8 371.58,-149.8 147.42,-149.8 147.42,-113.8 398.58,-113.8 398.58,-149.8"/>
<text text-anchor="middle" x="273" y="-127.6" font-family="Times,serif" font-size="14.00">StimFeatureTriggersInfrastructureModule</text>
</g>
<!-- StimFeatureTriggersApplicationModule&#45;&gt;StimFeatureTriggersInfrastructureModule -->
<g id="edge1" class="edge">
<title>StimFeatureTriggersApplicationModule&#45;&gt;StimFeatureTriggersInfrastructureModule</title>
<path fill="none" stroke="black" d="M341.52,-84.91C341.52,-84.91 341.52,-103.79 341.52,-103.79"/>
<polygon fill="black" stroke="black" points="338.02,-103.79 341.52,-113.79 345.02,-103.79 338.02,-103.79"/>
</g>
<!-- StimFeatureTriggersFacade  -->
<g id="node3" class="node">
<title>StimFeatureTriggersFacade </title>
<polygon fill="#fb8072" stroke="black" points="360.5,-214.8 185.5,-214.8 185.5,-178.8 360.5,-178.8 360.5,-214.8"/>
<text text-anchor="middle" x="273" y="-192.6" font-family="Times,serif" font-size="14.00">StimFeatureTriggersFacade </text>
</g>
<!-- StimFeatureTriggersInfrastructureModule&#45;&gt;StimFeatureTriggersFacade  -->
<g id="edge2" class="edge">
<title>StimFeatureTriggersInfrastructureModule&#45;&gt;StimFeatureTriggersFacade </title>
<path fill="none" stroke="black" stroke-dasharray="5,2" d="M273,-149.91C273,-149.91 273,-168.79 273,-168.79"/>
<polygon fill="black" stroke="black" points="269.5,-168.79 273,-178.79 276.5,-168.79 269.5,-168.79"/>
</g>
<!-- StimFeatureTriggersFacade -->
<g id="node4" class="node">
<title>StimFeatureTriggersFacade</title>
<ellipse fill="#fdb462" stroke="black" cx="142" cy="-66.8" rx="118.09" ry="18"/>
<text text-anchor="middle" x="142" y="-62.6" font-family="Times,serif" font-size="14.00">StimFeatureTriggersFacade</text>
</g>
<!-- StimFeatureTriggersFacade&#45;&gt;StimFeatureTriggersInfrastructureModule -->
<g id="edge3" class="edge">
<title>StimFeatureTriggersFacade&#45;&gt;StimFeatureTriggersInfrastructureModule</title>
<path fill="none" stroke="black" d="M203.75,-82.2C203.75,-82.2 203.75,-103.74 203.75,-103.74"/>
<polygon fill="black" stroke="black" points="200.25,-103.74 203.75,-113.74 207.25,-103.74 200.25,-103.74"/>
</g>
</g>
</svg>
