<?xml version="1.0" encoding="UTF-8" standalone="no"?>
<!DOCTYPE svg PUBLIC "-//W3C//DTD SVG 1.1//EN"
 "http://www.w3.org/Graphics/SVG/1.1/DTD/svg11.dtd">
<!-- Generated by graphviz version 2.47.3 (20210619.1520)
 -->
<!-- Title: dependencies Pages: 1 -->
<svg width="670pt" height="174pt"
 viewBox="0.00 0.00 670.00 173.80" xmlns="http://www.w3.org/2000/svg" xmlns:xlink="http://www.w3.org/1999/xlink">
<g id="graph0" class="graph" transform="scale(1 1) rotate(0) translate(4 169.8)">
<title>dependencies</title>
<polygon fill="white" stroke="transparent" points="-4,4 -4,-169.8 666,-169.8 666,4 -4,4"/>
<text text-anchor="middle" x="331" y="-8.2" font-family="sans-serif" font-size="14.00">dependencies</text>
<g id="clust1" class="cluster">
<title>cluster_StimFeatureTriggersApplicationModule</title>
<polygon fill="none" stroke="black" stroke-dasharray="1,5" points="8,-32.8 8,-157.8 654,-157.8 654,-32.8 8,-32.8"/>
</g>
<g id="clust3" class="cluster">
<title>cluster_StimFeatureTriggersApplicationModule_imports</title>
<polygon fill="none" stroke="black" points="410,-40.8 410,-92.8 646,-92.8 646,-40.8 410,-40.8"/>
</g>
<g id="clust6" class="cluster">
<title>cluster_StimFeatureTriggersApplicationModule_providers</title>
<polygon fill="none" stroke="black" points="16,-40.8 16,-92.8 402,-92.8 402,-40.8 16,-40.8"/>
</g>
<!-- StimFeatureTriggersDomainModule -->
<g id="node1" class="node">
<title>StimFeatureTriggersDomainModule</title>
<polygon fill="#8dd3c7" stroke="black" points="638.01,-84.8 635.01,-88.8 614.01,-88.8 611.01,-84.8 417.99,-84.8 417.99,-48.8 638.01,-48.8 638.01,-84.8"/>
<text text-anchor="middle" x="528" y="-62.6" font-family="Times,serif" font-size="14.00">StimFeatureTriggersDomainModule</text>
</g>
<!-- StimFeatureTriggersApplicationModule -->
<g id="node2" class="node">
<title>StimFeatureTriggersApplicationModule</title>
<polygon fill="#8dd3c7" stroke="black" points="411.5,-149.8 408.5,-153.8 387.5,-153.8 384.5,-149.8 170.5,-149.8 170.5,-113.8 411.5,-113.8 411.5,-149.8"/>
<text text-anchor="middle" x="291" y="-127.6" font-family="Times,serif" font-size="14.00">StimFeatureTriggersApplicationModule</text>
</g>
<!-- StimFeatureTriggersDomainModule&#45;&gt;StimFeatureTriggersApplicationModule -->
<g id="edge1" class="edge">
<title>StimFeatureTriggersDomainModule&#45;&gt;StimFeatureTriggersApplicationModule</title>
<path fill="none" stroke="black" d="M417.85,-66.8C408.79,-66.8 403.02,-66.8 403.02,-66.8 403.02,-66.8 403.02,-103.69 403.02,-103.69"/>
<polygon fill="black" stroke="black" points="399.52,-103.69 403.02,-113.69 406.52,-103.69 399.52,-103.69"/>
</g>
<!-- ExperimentResultsSaga -->
<g id="node3" class="node">
<title>ExperimentResultsSaga</title>
<ellipse fill="#fdb462" stroke="black" cx="291" cy="-66.8" rx="103.09" ry="18"/>
<text text-anchor="middle" x="291" y="-62.6" font-family="Times,serif" font-size="14.00">ExperimentResultsSaga</text>
</g>
<!-- ExperimentResultsSaga&#45;&gt;StimFeatureTriggersApplicationModule -->
<g id="edge2" class="edge">
<title>ExperimentResultsSaga&#45;&gt;StimFeatureTriggersApplicationModule</title>
<path fill="none" stroke="black" d="M291,-84.91C291,-84.91 291,-103.79 291,-103.79"/>
<polygon fill="black" stroke="black" points="287.5,-103.79 291,-113.79 294.5,-103.79 287.5,-103.79"/>
</g>
<!-- TriggersService -->
<g id="node4" class="node">
<title>TriggersService</title>
<ellipse fill="#fdb462" stroke="black" cx="97" cy="-66.8" rx="72.91" ry="18"/>
<text text-anchor="middle" x="97" y="-62.6" font-family="Times,serif" font-size="14.00">TriggersService</text>
</g>
<!-- TriggersService&#45;&gt;StimFeatureTriggersApplicationModule -->
<g id="edge3" class="edge">
<title>TriggersService&#45;&gt;StimFeatureTriggersApplicationModule</title>
<path fill="none" stroke="black" d="M169.89,-66.8C175.46,-66.8 178.98,-66.8 178.98,-66.8 178.98,-66.8 178.98,-103.69 178.98,-103.69"/>
<polygon fill="black" stroke="black" points="175.48,-103.69 178.98,-113.69 182.48,-103.69 175.48,-103.69"/>
</g>
</g>
</svg>
