<?xml version="1.0" encoding="UTF-8" standalone="no"?>
<!DOCTYPE svg PUBLIC "-//W3C//DTD SVG 1.1//EN"
 "http://www.w3.org/Graphics/SVG/1.1/DTD/svg11.dtd">
<!-- Generated by graphviz version 2.47.3 (20210619.1520)
 -->
<!-- Title: dependencies Pages: 1 -->
<svg width="446pt" height="174pt"
 viewBox="0.00 0.00 446.00 173.80" xmlns="http://www.w3.org/2000/svg" xmlns:xlink="http://www.w3.org/1999/xlink">
<g id="graph0" class="graph" transform="scale(1 1) rotate(0) translate(4 169.8)">
<title>dependencies</title>
<polygon fill="white" stroke="transparent" points="-4,4 -4,-169.8 442,-169.8 442,4 -4,4"/>
<text text-anchor="middle" x="219" y="-8.2" font-family="sans-serif" font-size="14.00">dependencies</text>
<g id="clust1" class="cluster">
<title>cluster_StimFeatureTriggersApplicationModule</title>
<polygon fill="none" stroke="black" stroke-dasharray="1,5" points="8,-32.8 8,-157.8 430,-157.8 430,-32.8 8,-32.8"/>
</g>
<g id="clust6" class="cluster">
<title>cluster_StimFeatureTriggersApplicationModule_providers</title>
<polygon fill="none" stroke="black" points="260,-40.8 260,-92.8 422,-92.8 422,-40.8 260,-40.8"/>
</g>
<g id="clust3" class="cluster">
<title>cluster_StimFeatureTriggersApplicationModule_imports</title>
<polygon fill="none" stroke="black" points="16,-40.8 16,-92.8 252,-92.8 252,-40.8 16,-40.8"/>
</g>
<!-- StimFeatureTriggersDomainModule -->
<g id="node1" class="node">
<title>StimFeatureTriggersDomainModule</title>
<polygon fill="#8dd3c7" stroke="black" points="244.01,-84.8 241.01,-88.8 220.01,-88.8 217.01,-84.8 23.99,-84.8 23.99,-48.8 244.01,-48.8 244.01,-84.8"/>
<text text-anchor="middle" x="134" y="-62.6" font-family="Times,serif" font-size="14.00">StimFeatureTriggersDomainModule</text>
</g>
<!-- StimFeatureTriggersApplicationModule -->
<g id="node2" class="node">
<title>StimFeatureTriggersApplicationModule</title>
<polygon fill="#8dd3c7" stroke="black" points="339.5,-149.8 336.5,-153.8 315.5,-153.8 312.5,-149.8 98.5,-149.8 98.5,-113.8 339.5,-113.8 339.5,-149.8"/>
<text text-anchor="middle" x="219" y="-127.6" font-family="Times,serif" font-size="14.00">StimFeatureTriggersApplicationModule</text>
</g>
<!-- StimFeatureTriggersDomainModule&#45;&gt;StimFeatureTriggersApplicationModule -->
<g id="edge1" class="edge">
<title>StimFeatureTriggersDomainModule&#45;&gt;StimFeatureTriggersApplicationModule</title>
<path fill="none" stroke="black" d="M171.25,-84.91C171.25,-84.91 171.25,-103.79 171.25,-103.79"/>
<polygon fill="black" stroke="black" points="167.75,-103.79 171.25,-113.79 174.75,-103.79 167.75,-103.79"/>
</g>
<!-- TriggersService -->
<g id="node3" class="node">
<title>TriggersService</title>
<ellipse fill="#fdb462" stroke="black" cx="341" cy="-66.8" rx="72.91" ry="18"/>
<text text-anchor="middle" x="341" y="-62.6" font-family="Times,serif" font-size="14.00">TriggersService</text>
</g>
<!-- TriggersService&#45;&gt;StimFeatureTriggersApplicationModule -->
<g id="edge2" class="edge">
<title>TriggersService&#45;&gt;StimFeatureTriggersApplicationModule</title>
<path fill="none" stroke="black" d="M304.02,-82.53C304.02,-82.53 304.02,-103.45 304.02,-103.45"/>
<polygon fill="black" stroke="black" points="300.52,-103.45 304.02,-113.45 307.52,-103.45 300.52,-103.45"/>
</g>
</g>
</svg>
