<?xml version="1.0" encoding="UTF-8" standalone="no"?>
<!DOCTYPE svg PUBLIC "-//W3C//DTD SVG 1.1//EN"
 "http://www.w3.org/Graphics/SVG/1.1/DTD/svg11.dtd">
<!-- Generated by graphviz version 2.47.3 (20210619.1520)
 -->
<!-- Title: dependencies Pages: 1 -->
<svg width="973pt" height="174pt"
 viewBox="0.00 0.00 973.00 173.80" xmlns="http://www.w3.org/2000/svg" xmlns:xlink="http://www.w3.org/1999/xlink">
<g id="graph0" class="graph" transform="scale(1 1) rotate(0) translate(4 169.8)">
<title>dependencies</title>
<polygon fill="white" stroke="transparent" points="-4,4 -4,-169.8 969,-169.8 969,4 -4,4"/>
<text text-anchor="middle" x="482.5" y="-8.2" font-family="sans-serif" font-size="14.00">dependencies</text>
<g id="clust1" class="cluster">
<title>cluster_StimFeatureExperimentResultsApplicationModule</title>
<polygon fill="none" stroke="black" stroke-dasharray="1,5" points="8,-32.8 8,-157.8 957,-157.8 957,-32.8 8,-32.8"/>
</g>
<g id="clust3" class="cluster">
<title>cluster_StimFeatureExperimentResultsApplicationModule_imports</title>
<polygon fill="none" stroke="black" points="491,-40.8 491,-92.8 949,-92.8 949,-40.8 491,-40.8"/>
</g>
<g id="clust6" class="cluster">
<title>cluster_StimFeatureExperimentResultsApplicationModule_providers</title>
<polygon fill="none" stroke="black" points="16,-40.8 16,-92.8 483,-92.8 483,-40.8 16,-40.8"/>
</g>
<!-- StimFeatureExperimentResultsDomainModule -->
<g id="node1" class="node">
<title>StimFeatureExperimentResultsDomainModule</title>
<polygon fill="#8dd3c7" stroke="black" points="940.62,-84.8 937.62,-88.8 916.62,-88.8 913.62,-84.8 661.38,-84.8 661.38,-48.8 940.62,-48.8 940.62,-84.8"/>
<text text-anchor="middle" x="801" y="-62.6" font-family="Times,serif" font-size="14.00">StimFeatureExperimentResultsDomainModule</text>
</g>
<!-- StimFeatureExperimentResultsApplicationModule -->
<g id="node3" class="node">
<title>StimFeatureExperimentResultsApplicationModule</title>
<polygon fill="#8dd3c7" stroke="black" points="621.12,-149.8 618.12,-153.8 597.12,-153.8 594.12,-149.8 320.88,-149.8 320.88,-113.8 621.12,-113.8 621.12,-149.8"/>
<text text-anchor="middle" x="471" y="-127.6" font-family="Times,serif" font-size="14.00">StimFeatureExperimentResultsApplicationModule</text>
</g>
<!-- StimFeatureExperimentResultsDomainModule&#45;&gt;StimFeatureExperimentResultsApplicationModule -->
<g id="edge1" class="edge">
<title>StimFeatureExperimentResultsDomainModule&#45;&gt;StimFeatureExperimentResultsApplicationModule</title>
<path fill="none" stroke="black" d="M801,-84.91C801,-104.14 801,-131.8 801,-131.8 801,-131.8 631.51,-131.8 631.51,-131.8"/>
<polygon fill="black" stroke="black" points="631.51,-128.3 621.51,-131.8 631.51,-135.3 631.51,-128.3"/>
</g>
<!-- StimLibSocketModule -->
<g id="node2" class="node">
<title>StimLibSocketModule</title>
<polygon fill="#8dd3c7" stroke="black" points="642.55,-84.8 639.55,-88.8 618.55,-88.8 615.55,-84.8 499.45,-84.8 499.45,-48.8 642.55,-48.8 642.55,-84.8"/>
<text text-anchor="middle" x="571" y="-62.6" font-family="Times,serif" font-size="14.00">StimLibSocketModule</text>
</g>
<!-- StimLibSocketModule&#45;&gt;StimFeatureExperimentResultsApplicationModule -->
<g id="edge2" class="edge">
<title>StimLibSocketModule&#45;&gt;StimFeatureExperimentResultsApplicationModule</title>
<path fill="none" stroke="black" d="M560.27,-84.91C560.27,-84.91 560.27,-103.79 560.27,-103.79"/>
<polygon fill="black" stroke="black" points="556.77,-103.79 560.27,-113.79 563.77,-103.79 556.77,-103.79"/>
</g>
<!-- ExperimentResultsSaga -->
<g id="node4" class="node">
<title>ExperimentResultsSaga</title>
<ellipse fill="#fdb462" stroke="black" cx="372" cy="-66.8" rx="103.09" ry="18"/>
<text text-anchor="middle" x="372" y="-62.6" font-family="Times,serif" font-size="14.00">ExperimentResultsSaga</text>
</g>
<!-- ExperimentResultsSaga&#45;&gt;StimFeatureExperimentResultsApplicationModule -->
<g id="edge3" class="edge">
<title>ExperimentResultsSaga&#45;&gt;StimFeatureExperimentResultsApplicationModule</title>
<path fill="none" stroke="black" d="M397.99,-84.56C397.99,-84.56 397.99,-103.61 397.99,-103.61"/>
<polygon fill="black" stroke="black" points="394.49,-103.61 397.99,-113.61 401.49,-103.61 394.49,-103.61"/>
</g>
<!-- ExperimentResultsService -->
<g id="node5" class="node">
<title>ExperimentResultsService</title>
<ellipse fill="#fdb462" stroke="black" cx="137" cy="-66.8" rx="113.46" ry="18"/>
<text text-anchor="middle" x="137" y="-62.6" font-family="Times,serif" font-size="14.00">ExperimentResultsService</text>
</g>
<!-- ExperimentResultsService&#45;&gt;StimFeatureExperimentResultsApplicationModule -->
<g id="edge4" class="edge">
<title>ExperimentResultsService&#45;&gt;StimFeatureExperimentResultsApplicationModule</title>
<path fill="none" stroke="black" d="M137,-84.91C137,-104.14 137,-131.8 137,-131.8 137,-131.8 310.61,-131.8 310.61,-131.8"/>
<polygon fill="black" stroke="black" points="310.61,-135.3 320.61,-131.8 310.61,-128.3 310.61,-135.3"/>
</g>
</g>
</svg>
