<?xml version="1.0" encoding="UTF-8" standalone="no"?>
<!DOCTYPE svg PUBLIC "-//W3C//DTD SVG 1.1//EN"
 "http://www.w3.org/Graphics/SVG/1.1/DTD/svg11.dtd">
<!-- Generated by graphviz version 2.47.3 (20210619.1520)
 -->
<!-- Title: dependencies Pages: 1 -->
<svg width="973pt" height="174pt"
 viewBox="0.00 0.00 973.00 173.80" xmlns="http://www.w3.org/2000/svg" xmlns:xlink="http://www.w3.org/1999/xlink">
<g id="graph0" class="graph" transform="scale(1 1) rotate(0) translate(4 169.8)">
<title>dependencies</title>
<polygon fill="white" stroke="transparent" points="-4,4 -4,-169.8 969,-169.8 969,4 -4,4"/>
<text text-anchor="middle" x="482.5" y="-8.2" font-family="sans-serif" font-size="14.00">dependencies</text>
<g id="clust1" class="cluster">
<title>cluster_StimFeatureExperimentResultsApplicationModule</title>
<polygon fill="none" stroke="black" stroke-dasharray="1,5" points="8,-32.8 8,-157.8 957,-157.8 957,-32.8 8,-32.8"/>
</g>
<g id="clust6" class="cluster">
<title>cluster_StimFeatureExperimentResultsApplicationModule_providers</title>
<polygon fill="none" stroke="black" points="482,-40.8 482,-92.8 949,-92.8 949,-40.8 482,-40.8"/>
</g>
<g id="clust3" class="cluster">
<title>cluster_StimFeatureExperimentResultsApplicationModule_imports</title>
<polygon fill="none" stroke="black" points="16,-40.8 16,-92.8 474,-92.8 474,-40.8 16,-40.8"/>
</g>
<!-- StimFeatureExperimentResultsDomainModule -->
<g id="node1" class="node">
<title>StimFeatureExperimentResultsDomainModule</title>
<polygon fill="#8dd3c7" stroke="black" points="465.62,-84.8 462.62,-88.8 441.62,-88.8 438.62,-84.8 186.38,-84.8 186.38,-48.8 465.62,-48.8 465.62,-84.8"/>
<text text-anchor="middle" x="326" y="-62.6" font-family="Times,serif" font-size="14.00">StimFeatureExperimentResultsDomainModule</text>
</g>
<!-- StimFeatureExperimentResultsApplicationModule -->
<g id="node3" class="node">
<title>StimFeatureExperimentResultsApplicationModule</title>
<polygon fill="#8dd3c7" stroke="black" points="614.12,-149.8 611.12,-153.8 590.12,-153.8 587.12,-149.8 313.88,-149.8 313.88,-113.8 614.12,-113.8 614.12,-149.8"/>
<text text-anchor="middle" x="464" y="-127.6" font-family="Times,serif" font-size="14.00">StimFeatureExperimentResultsApplicationModule</text>
</g>
<!-- StimFeatureExperimentResultsDomainModule&#45;&gt;StimFeatureExperimentResultsApplicationModule -->
<g id="edge1" class="edge">
<title>StimFeatureExperimentResultsDomainModule&#45;&gt;StimFeatureExperimentResultsApplicationModule</title>
<path fill="none" stroke="black" d="M389.75,-84.91C389.75,-84.91 389.75,-103.79 389.75,-103.79"/>
<polygon fill="black" stroke="black" points="386.25,-103.79 389.75,-113.79 393.25,-103.79 386.25,-103.79"/>
</g>
<!-- StimLibSocketModule -->
<g id="node2" class="node">
<title>StimLibSocketModule</title>
<polygon fill="#8dd3c7" stroke="black" points="167.55,-84.8 164.55,-88.8 143.55,-88.8 140.55,-84.8 24.45,-84.8 24.45,-48.8 167.55,-48.8 167.55,-84.8"/>
<text text-anchor="middle" x="96" y="-62.6" font-family="Times,serif" font-size="14.00">StimLibSocketModule</text>
</g>
<!-- StimLibSocketModule&#45;&gt;StimFeatureExperimentResultsApplicationModule -->
<g id="edge2" class="edge">
<title>StimLibSocketModule&#45;&gt;StimFeatureExperimentResultsApplicationModule</title>
<path fill="none" stroke="black" d="M96,-84.91C96,-104.14 96,-131.8 96,-131.8 96,-131.8 303.79,-131.8 303.79,-131.8"/>
<polygon fill="black" stroke="black" points="303.79,-135.3 313.79,-131.8 303.79,-128.3 303.79,-135.3"/>
</g>
<!-- ExperimentResultsSaga -->
<g id="node4" class="node">
<title>ExperimentResultsSaga</title>
<ellipse fill="#fdb462" stroke="black" cx="838" cy="-66.8" rx="103.09" ry="18"/>
<text text-anchor="middle" x="838" y="-62.6" font-family="Times,serif" font-size="14.00">ExperimentResultsSaga</text>
</g>
<!-- ExperimentResultsSaga&#45;&gt;StimFeatureExperimentResultsApplicationModule -->
<g id="edge3" class="edge">
<title>ExperimentResultsSaga&#45;&gt;StimFeatureExperimentResultsApplicationModule</title>
<path fill="none" stroke="black" d="M838,-84.91C838,-104.14 838,-131.8 838,-131.8 838,-131.8 624.23,-131.8 624.23,-131.8"/>
<polygon fill="black" stroke="black" points="624.23,-128.3 614.23,-131.8 624.23,-135.3 624.23,-128.3"/>
</g>
<!-- ExperimentResultsService -->
<g id="node5" class="node">
<title>ExperimentResultsService</title>
<ellipse fill="#fdb462" stroke="black" cx="603" cy="-66.8" rx="113.46" ry="18"/>
<text text-anchor="middle" x="603" y="-62.6" font-family="Times,serif" font-size="14.00">ExperimentResultsService</text>
</g>
<!-- ExperimentResultsService&#45;&gt;StimFeatureExperimentResultsApplicationModule -->
<g id="edge4" class="edge">
<title>ExperimentResultsService&#45;&gt;StimFeatureExperimentResultsApplicationModule</title>
<path fill="none" stroke="black" d="M551.91,-83.2C551.91,-83.2 551.91,-103.34 551.91,-103.34"/>
<polygon fill="black" stroke="black" points="548.41,-103.34 551.91,-113.34 555.41,-103.34 548.41,-103.34"/>
</g>
</g>
</svg>
