<?xml version="1.0" encoding="UTF-8" standalone="no"?>
<!DOCTYPE svg PUBLIC "-//W3C//DTD SVG 1.1//EN"
 "http://www.w3.org/Graphics/SVG/1.1/DTD/svg11.dtd">
<!-- Generated by graphviz version 2.47.3 (20210619.1520)
 -->
<!-- Title: dependencies Pages: 1 -->
<svg width="748pt" height="174pt"
 viewBox="0.00 0.00 748.00 173.80" xmlns="http://www.w3.org/2000/svg" xmlns:xlink="http://www.w3.org/1999/xlink">
<g id="graph0" class="graph" transform="scale(1 1) rotate(0) translate(4 169.8)">
<title>dependencies</title>
<polygon fill="white" stroke="transparent" points="-4,4 -4,-169.8 744,-169.8 744,4 -4,4"/>
<text text-anchor="middle" x="370" y="-8.2" font-family="sans-serif" font-size="14.00">dependencies</text>
<g id="clust1" class="cluster">
<title>cluster_StimFeatureExperimentResultsApplicationModule</title>
<polygon fill="none" stroke="black" stroke-dasharray="1,5" points="8,-32.8 8,-157.8 732,-157.8 732,-32.8 8,-32.8"/>
</g>
<g id="clust6" class="cluster">
<title>cluster_StimFeatureExperimentResultsApplicationModule_providers</title>
<polygon fill="none" stroke="black" points="482,-40.8 482,-92.8 724,-92.8 724,-40.8 482,-40.8"/>
</g>
<g id="clust3" class="cluster">
<title>cluster_StimFeatureExperimentResultsApplicationModule_imports</title>
<polygon fill="none" stroke="black" points="16,-40.8 16,-92.8 474,-92.8 474,-40.8 16,-40.8"/>
</g>
<!-- StimFeatureExperimentResultsDomainModule -->
<g id="node1" class="node">
<title>StimFeatureExperimentResultsDomainModule</title>
<polygon fill="#8dd3c7" stroke="black" points="465.62,-84.8 462.62,-88.8 441.62,-88.8 438.62,-84.8 186.38,-84.8 186.38,-48.8 465.62,-48.8 465.62,-84.8"/>
<text text-anchor="middle" x="326" y="-62.6" font-family="Times,serif" font-size="14.00">StimFeatureExperimentResultsDomainModule</text>
</g>
<!-- StimFeatureExperimentResultsApplicationModule -->
<g id="node3" class="node">
<title>StimFeatureExperimentResultsApplicationModule</title>
<polygon fill="#8dd3c7" stroke="black" points="476.12,-149.8 473.12,-153.8 452.12,-153.8 449.12,-149.8 175.88,-149.8 175.88,-113.8 476.12,-113.8 476.12,-149.8"/>
<text text-anchor="middle" x="326" y="-127.6" font-family="Times,serif" font-size="14.00">StimFeatureExperimentResultsApplicationModule</text>
</g>
<!-- StimFeatureExperimentResultsDomainModule&#45;&gt;StimFeatureExperimentResultsApplicationModule -->
<g id="edge1" class="edge">
<title>StimFeatureExperimentResultsDomainModule&#45;&gt;StimFeatureExperimentResultsApplicationModule</title>
<path fill="none" stroke="black" d="M326,-84.91C326,-84.91 326,-103.79 326,-103.79"/>
<polygon fill="black" stroke="black" points="322.5,-103.79 326,-113.79 329.5,-103.79 322.5,-103.79"/>
</g>
<!-- StimLibSocketModule -->
<g id="node2" class="node">
<title>StimLibSocketModule</title>
<polygon fill="#8dd3c7" stroke="black" points="167.55,-84.8 164.55,-88.8 143.55,-88.8 140.55,-84.8 24.45,-84.8 24.45,-48.8 167.55,-48.8 167.55,-84.8"/>
<text text-anchor="middle" x="96" y="-62.6" font-family="Times,serif" font-size="14.00">StimLibSocketModule</text>
</g>
<!-- StimLibSocketModule&#45;&gt;StimFeatureExperimentResultsApplicationModule -->
<g id="edge2" class="edge">
<title>StimLibSocketModule&#45;&gt;StimFeatureExperimentResultsApplicationModule</title>
<path fill="none" stroke="black" d="M167.67,-66.8C175.63,-66.8 180.94,-66.8 180.94,-66.8 180.94,-66.8 180.94,-103.69 180.94,-103.69"/>
<polygon fill="black" stroke="black" points="177.44,-103.69 180.94,-113.69 184.44,-103.69 177.44,-103.69"/>
</g>
<!-- ExperimentResultsService -->
<g id="node4" class="node">
<title>ExperimentResultsService</title>
<ellipse fill="#fdb462" stroke="black" cx="603" cy="-66.8" rx="113.46" ry="18"/>
<text text-anchor="middle" x="603" y="-62.6" font-family="Times,serif" font-size="14.00">ExperimentResultsService</text>
</g>
<!-- ExperimentResultsService&#45;&gt;StimFeatureExperimentResultsApplicationModule -->
<g id="edge3" class="edge">
<title>ExperimentResultsService&#45;&gt;StimFeatureExperimentResultsApplicationModule</title>
<path fill="none" stroke="black" d="M489.4,-66.8C478.31,-66.8 471.06,-66.8 471.06,-66.8 471.06,-66.8 471.06,-103.69 471.06,-103.69"/>
<polygon fill="black" stroke="black" points="467.56,-103.69 471.06,-113.69 474.56,-103.69 467.56,-103.69"/>
</g>
</g>
</svg>
