<?xml version="1.0" encoding="UTF-8" standalone="no"?>
<!DOCTYPE svg PUBLIC "-//W3C//DTD SVG 1.1//EN"
 "http://www.w3.org/Graphics/SVG/1.1/DTD/svg11.dtd">
<!-- Generated by graphviz version 2.47.3 (20210619.1520)
 -->
<!-- Title: dependencies Pages: 1 -->
<svg width="604pt" height="247pt"
 viewBox="0.00 0.00 604.00 246.80" xmlns="http://www.w3.org/2000/svg" xmlns:xlink="http://www.w3.org/1999/xlink">
<g id="graph0" class="graph" transform="scale(1 1) rotate(0) translate(4 242.8)">
<title>dependencies</title>
<polygon fill="white" stroke="transparent" points="-4,4 -4,-242.8 600,-242.8 600,4 -4,4"/>
<text text-anchor="middle" x="298" y="-8.2" font-family="sans-serif" font-size="14.00">dependencies</text>
<g id="clust1" class="cluster">
<title>cluster_StimFeatureExperimentResultsInfrastructureModule</title>
<polygon fill="none" stroke="black" stroke-dasharray="1,5" points="8,-32.8 8,-230.8 588,-230.8 588,-32.8 8,-32.8"/>
</g>
<g id="clust3" class="cluster">
<title>cluster_StimFeatureExperimentResultsInfrastructureModule_imports</title>
<polygon fill="none" stroke="black" points="264,-40.8 264,-92.8 580,-92.8 580,-40.8 264,-40.8"/>
</g>
<g id="clust6" class="cluster">
<title>cluster_StimFeatureExperimentResultsInfrastructureModule_providers</title>
<polygon fill="none" stroke="black" points="16,-40.8 16,-92.8 256,-92.8 256,-40.8 16,-40.8"/>
</g>
<g id="clust4" class="cluster">
<title>cluster_StimFeatureExperimentResultsInfrastructureModule_exports</title>
<polygon fill="none" stroke="black" points="205,-170.8 205,-222.8 387,-222.8 387,-170.8 205,-170.8"/>
</g>
<!-- StimFeatureExperimentResultsApplicationModule -->
<g id="node1" class="node">
<title>StimFeatureExperimentResultsApplicationModule</title>
<polygon fill="#8dd3c7" stroke="black" points="572.12,-84.8 569.12,-88.8 548.12,-88.8 545.12,-84.8 271.88,-84.8 271.88,-48.8 572.12,-48.8 572.12,-84.8"/>
<text text-anchor="middle" x="422" y="-62.6" font-family="Times,serif" font-size="14.00">StimFeatureExperimentResultsApplicationModule</text>
</g>
<!-- StimFeatureExperimentResultsInfrastructureModule -->
<g id="node2" class="node">
<title>StimFeatureExperimentResultsInfrastructureModule</title>
<polygon fill="#8dd3c7" stroke="black" points="451.19,-149.8 448.19,-153.8 427.19,-153.8 424.19,-149.8 140.81,-149.8 140.81,-113.8 451.19,-113.8 451.19,-149.8"/>
<text text-anchor="middle" x="296" y="-127.6" font-family="Times,serif" font-size="14.00">StimFeatureExperimentResultsInfrastructureModule</text>
</g>
<!-- StimFeatureExperimentResultsApplicationModule&#45;&gt;StimFeatureExperimentResultsInfrastructureModule -->
<g id="edge1" class="edge">
<title>StimFeatureExperimentResultsApplicationModule&#45;&gt;StimFeatureExperimentResultsInfrastructureModule</title>
<path fill="none" stroke="black" d="M361.52,-84.91C361.52,-84.91 361.52,-103.79 361.52,-103.79"/>
<polygon fill="black" stroke="black" points="358.02,-103.79 361.52,-113.79 365.02,-103.79 358.02,-103.79"/>
</g>
<!-- ExperimentResultsFacade  -->
<g id="node3" class="node">
<title>ExperimentResultsFacade </title>
<polygon fill="#fb8072" stroke="black" points="378.68,-214.8 213.32,-214.8 213.32,-178.8 378.68,-178.8 378.68,-214.8"/>
<text text-anchor="middle" x="296" y="-192.6" font-family="Times,serif" font-size="14.00">ExperimentResultsFacade </text>
</g>
<!-- StimFeatureExperimentResultsInfrastructureModule&#45;&gt;ExperimentResultsFacade  -->
<g id="edge2" class="edge">
<title>StimFeatureExperimentResultsInfrastructureModule&#45;&gt;ExperimentResultsFacade </title>
<path fill="none" stroke="black" stroke-dasharray="5,2" d="M296,-149.91C296,-149.91 296,-168.79 296,-168.79"/>
<polygon fill="black" stroke="black" points="292.5,-168.79 296,-178.79 299.5,-168.79 292.5,-168.79"/>
</g>
<!-- ExperimentResultsFacade -->
<g id="node4" class="node">
<title>ExperimentResultsFacade</title>
<ellipse fill="#fdb462" stroke="black" cx="136" cy="-66.8" rx="111.73" ry="18"/>
<text text-anchor="middle" x="136" y="-62.6" font-family="Times,serif" font-size="14.00">ExperimentResultsFacade</text>
</g>
<!-- ExperimentResultsFacade&#45;&gt;StimFeatureExperimentResultsInfrastructureModule -->
<g id="edge3" class="edge">
<title>ExperimentResultsFacade&#45;&gt;StimFeatureExperimentResultsInfrastructureModule</title>
<path fill="none" stroke="black" d="M194.26,-82.2C194.26,-82.2 194.26,-103.74 194.26,-103.74"/>
<polygon fill="black" stroke="black" points="190.76,-103.74 194.26,-113.74 197.76,-103.74 190.76,-103.74"/>
</g>
</g>
</svg>
